<?xml version="1.0" encoding="UTF-8"?>
<svg id="Layer_2" data-name="Layer 2" xmlns="http://www.w3.org/2000/svg" viewBox="0 0 1830.87 1476.76">
  <defs>
    <style>
      .cls-1 {
        fill: #03274d;
        stroke-width: 0px;
      }
    </style>
  </defs>
  <g id="Layer_1-2" data-name="Layer 1">
    <g>
      <path class="cls-1" d="m914.56,510.04h-.18l-570.93-8.67c-.5-.01-.99-.05-1.48-.12l-250.23-35.83c-6.41-.92-10.87-6.86-9.94-13.27.92-6.42,6.92-10.87,13.27-9.94l249.49,35.72,570.18,8.66c6.48.1,11.64,5.43,11.55,11.9-.1,6.41-5.33,11.55-11.72,11.55Z"/>
      <path class="cls-1" d="m910.91,1476.76c-4.01,0-7.92-2.06-10.11-5.77l-196.44-333.04,118.89,219.19c2.84,5.23,1.31,11.75-3.56,15.17-4.85,3.44-11.51,2.67-15.49-1.76L2.99,475.73c-1.92-2.15-2.99-4.94-2.99-7.82v-40.18c0-3.58,1.64-6.97,4.45-9.19L460.28,57.98c4.14-3.29,10-3.38,14.25-.22,4.26,3.15,5.87,8.77,3.94,13.7l-46.6,118.77,80.54-158.47c1.71-3.37,4.94-5.7,8.67-6.27,3.76-.57,7.52.69,10.16,3.38l181.58,185.4L554.98,19.1c-2.85-3.52-3.41-8.35-1.47-12.42,1.95-4.08,6.06-6.68,10.58-6.68h350.46c6.48,0,11.73,5.25,11.73,11.73s-5.25,11.73-11.73,11.73h-325.9l297.23,367.52,3.84,3.92c4.4,4.49,4.47,11.64.18,16.23s-11.44,4.96-16.2.86l-2.43-2.09c-.53-.46-1.02-.97-1.47-1.51l-1.45-1.8L525.91,56.95l-179.07,352.35c-2.09,4.1-6.45,6.49-11.01,6.4l-.96-.05c-3.78-.18-7.23-2.17-9.29-5.34s-2.46-7.14-1.08-10.65l116.28-296.36L23.45,433.4v30.03l731.47,816.92-382.53-705.23c-3.05-5.62-1.04-12.64,4.53-15.79,5.58-3.16,12.62-1.26,15.88,4.25l528.2,895.5c3.29,5.58,1.44,12.76-4.14,16.05-1.87,1.1-3.92,1.63-5.94,1.63Z"/>
    </g>
    <g>
      <g>
        <path class="cls-1" d="m941.93,22.03c0-10.03,6.04-17.12,14.6-17.12s14.61,7.09,14.61,17.12-6.05,17.16-14.61,17.16-14.6-7.09-14.6-17.16Zm20.2,0c0-5.06-2.3-8.63-5.59-8.63s-5.59,3.57-5.59,8.63,2.3,8.68,5.59,8.68,5.59-3.62,5.59-8.68Z"/>
        <path class="cls-1" d="m974.27,22.03c0-10.03,6.04-17.12,14.6-17.12s14.61,7.09,14.61,17.12-6.05,17.16-14.61,17.16-14.6-7.09-14.6-17.16Zm20.2,0c0-5.06-2.3-8.63-5.59-8.63s-5.59,3.57-5.59,8.63,2.3,8.68,5.59,8.68,5.59-3.62,5.59-8.68Z"/>
        <path class="cls-1" d="m1006.61,22.03c0-10.03,6.04-17.12,14.6-17.12s14.61,7.09,14.61,17.12-6.05,17.16-14.61,17.16-14.6-7.09-14.6-17.16Zm20.2,0c0-5.06-2.3-8.63-5.59-8.63s-5.59,3.57-5.59,8.63,2.3,8.68,5.59,8.68,5.59-3.62,5.59-8.68Z"/>
        <path class="cls-1" d="m1046.25,16l-5.18,3.38-3.43-6.46,10.37-7.43h6.99v33.13h-8.75v-22.61Z"/>
        <path class="cls-1" d="m1066.79,16l-5.18,3.38-3.43-6.46,10.37-7.43h6.99v33.13h-8.75v-22.61Z"/>
        <path class="cls-1" d="m1080.03,22.03c0-10.03,6.04-17.12,14.6-17.12s14.61,7.09,14.61,17.12-6.05,17.16-14.61,17.16-14.6-7.09-14.6-17.16Zm20.2,0c0-5.06-2.3-8.63-5.59-8.63s-5.59,3.57-5.59,8.63,2.3,8.68,5.59,8.68,5.59-3.62,5.59-8.68Z"/>
        <path class="cls-1" d="m1119.68,16l-5.18,3.38-3.43-6.46,10.37-7.43h6.98v33.13h-8.75v-22.61Z"/>
        <path class="cls-1" d="m1132.92,22.03c0-10.03,6.04-17.12,14.6-17.12s14.61,7.09,14.61,17.12-6.05,17.16-14.61,17.16-14.6-7.09-14.6-17.16Zm20.2,0c0-5.06-2.3-8.63-5.59-8.63s-5.59,3.57-5.59,8.63,2.3,8.68,5.59,8.68,5.59-3.62,5.59-8.68Z"/>
        <path class="cls-1" d="m1172.56,16l-5.18,3.38-3.43-6.46,10.37-7.43h6.99v33.13h-8.75v-22.61Z"/>
        <path class="cls-1" d="m1185.8,22.03c0-10.03,6.04-17.12,14.6-17.12s14.61,7.09,14.61,17.12-6.05,17.16-14.61,17.16-14.6-7.09-14.6-17.16Zm20.2,0c0-5.06-2.3-8.63-5.59-8.63s-5.59,3.57-5.59,8.63,2.3,8.68,5.59,8.68,5.59-3.62,5.59-8.68Z"/>
        <path class="cls-1" d="m1218.14,22.03c0-10.03,6.04-17.12,14.6-17.12s14.61,7.09,14.61,17.12-6.05,17.16-14.61,17.16-14.6-7.09-14.6-17.16Zm20.2,0c0-5.06-2.3-8.63-5.59-8.63s-5.59,3.57-5.59,8.63,2.3,8.68,5.59,8.68,5.59-3.62,5.59-8.68Z"/>
        <path class="cls-1" d="m1257.78,16l-5.18,3.38-3.43-6.46,10.37-7.43h6.99v33.13h-8.75v-22.61Z"/>
        <path class="cls-1" d="m1278.32,16l-5.18,3.38-3.43-6.46,10.37-7.43h6.99v33.13h-8.75v-22.61Z"/>
        <path class="cls-1" d="m942.33,79.9c0-10.03,6.04-17.12,14.6-17.12s14.61,7.09,14.61,17.12-6.05,17.16-14.61,17.16-14.6-7.09-14.6-17.16Zm20.2,0c0-5.06-2.3-8.63-5.59-8.63s-5.59,3.57-5.59,8.63,2.3,8.68,5.59,8.68,5.59-3.62,5.59-8.68Z"/>
        <path class="cls-1" d="m981.97,73.87l-5.18,3.38-3.43-6.46,10.37-7.43h6.99v33.13h-8.75v-22.61Z"/>
        <path class="cls-1" d="m995.21,79.9c0-10.03,6.04-17.12,14.6-17.12s14.61,7.09,14.61,17.12-6.05,17.16-14.61,17.16-14.6-7.09-14.6-17.16Zm20.2,0c0-5.06-2.3-8.63-5.59-8.63s-5.59,3.57-5.59,8.63,2.3,8.68,5.59,8.68,5.59-3.62,5.59-8.68Z"/>
        <path class="cls-1" d="m1034.85,73.87l-5.18,3.38-3.43-6.46,10.37-7.43h6.98v33.13h-8.75v-22.61Z"/>
        <path class="cls-1" d="m1048.09,79.9c0-10.03,6.04-17.12,14.6-17.12s14.61,7.09,14.61,17.12-6.05,17.16-14.61,17.16-14.6-7.09-14.6-17.16Zm20.2,0c0-5.06-2.3-8.63-5.59-8.63s-5.59,3.57-5.59,8.63,2.3,8.68,5.59,8.68,5.59-3.62,5.59-8.68Z"/>
        <path class="cls-1" d="m1080.44,79.9c0-10.03,6.04-17.12,14.6-17.12s14.61,7.09,14.61,17.12-6.05,17.16-14.61,17.16-14.6-7.09-14.6-17.16Zm20.2,0c0-5.06-2.3-8.63-5.59-8.63s-5.59,3.57-5.59,8.63,2.3,8.68,5.59,8.68,5.59-3.62,5.59-8.68Z"/>
        <path class="cls-1" d="m1120.08,73.87l-5.18,3.38-3.43-6.46,10.37-7.43h6.98v33.13h-8.75v-22.61Z"/>
        <path class="cls-1" d="m1133.32,79.9c0-10.03,6.04-17.12,14.6-17.12s14.61,7.09,14.61,17.12-6.05,17.16-14.61,17.16-14.6-7.09-14.6-17.16Zm20.2,0c0-5.06-2.3-8.63-5.59-8.63s-5.59,3.57-5.59,8.63,2.3,8.68,5.59,8.68,5.59-3.62,5.59-8.68Z"/>
        <path class="cls-1" d="m1172.96,73.87l-5.18,3.38-3.43-6.46,10.37-7.43h6.99v33.13h-8.75v-22.61Z"/>
        <path class="cls-1" d="m1186.2,79.9c0-10.03,6.04-17.12,14.6-17.12s14.61,7.09,14.61,17.12-6.05,17.16-14.61,17.16-14.6-7.09-14.6-17.16Zm20.2,0c0-5.06-2.3-8.63-5.59-8.63s-5.59,3.57-5.59,8.63,2.3,8.68,5.59,8.68,5.59-3.62,5.59-8.68Z"/>
        <path class="cls-1" d="m1225.84,73.87l-5.18,3.38-3.43-6.46,10.37-7.43h6.98v33.13h-8.75v-22.61Z"/>
        <path class="cls-1" d="m1239.08,79.9c0-10.03,6.04-17.12,14.6-17.12s14.61,7.09,14.61,17.12-6.05,17.16-14.61,17.16-14.6-7.09-14.6-17.16Zm20.2,0c0-5.06-2.3-8.63-5.59-8.63s-5.59,3.57-5.59,8.63,2.3,8.68,5.59,8.68,5.59-3.62,5.59-8.68Z"/>
        <path class="cls-1" d="m1271.43,79.9c0-10.03,6.04-17.12,14.6-17.12s14.61,7.09,14.61,17.12-6.05,17.16-14.61,17.16-14.6-7.09-14.6-17.16Zm20.2,0c0-5.06-2.3-8.63-5.59-8.63s-5.59,3.57-5.59,8.63,2.3,8.68,5.59,8.68,5.59-3.62,5.59-8.68Z"/>
        <path class="cls-1" d="m1303.77,79.9c0-10.03,6.04-17.12,14.6-17.12s14.61,7.09,14.61,17.12-6.05,17.16-14.61,17.16-14.6-7.09-14.6-17.16Zm20.2,0c0-5.06-2.3-8.63-5.59-8.63s-5.59,3.57-5.59,8.63,2.3,8.68,5.59,8.68,5.59-3.62,5.59-8.68Z"/>
        <path class="cls-1" d="m1343.41,73.87l-5.18,3.38-3.43-6.46,10.37-7.43h6.99v33.13h-8.75v-22.61Z"/>
        <path class="cls-1" d="m1363.95,73.87l-5.18,3.38-3.43-6.46,10.37-7.43h6.99v33.13h-8.75v-22.61Z"/>
        <path class="cls-1" d="m1377.19,79.9c0-10.03,6.04-17.12,14.6-17.12s14.61,7.09,14.61,17.12-6.05,17.16-14.61,17.16-14.6-7.09-14.6-17.16Zm20.2,0c0-5.06-2.3-8.63-5.59-8.63s-5.59,3.57-5.59,8.63,2.3,8.68,5.59,8.68,5.59-3.62,5.59-8.68Z"/>
        <path class="cls-1" d="m950.02,131.74l-5.18,3.38-3.43-6.46,10.37-7.43h6.99v33.13h-8.75v-22.61Z"/>
        <path class="cls-1" d="m963.26,137.77c0-10.03,6.04-17.12,14.6-17.12s14.61,7.09,14.61,17.12-6.05,17.16-14.61,17.16-14.6-7.09-14.6-17.16Zm20.2,0c0-5.06-2.3-8.63-5.59-8.63s-5.59,3.57-5.59,8.63,2.3,8.68,5.59,8.68,5.59-3.62,5.59-8.68Z"/>
        <path class="cls-1" d="m1002.91,131.74l-5.18,3.38-3.43-6.46,10.37-7.43h6.98v33.13h-8.75v-22.61Z"/>
        <path class="cls-1" d="m1016.15,137.77c0-10.03,6.04-17.12,14.6-17.12s14.61,7.09,14.61,17.12-6.05,17.16-14.61,17.16-14.6-7.09-14.6-17.16Zm20.2,0c0-5.06-2.3-8.63-5.59-8.63s-5.59,3.57-5.59,8.63,2.3,8.68,5.59,8.68,5.59-3.62,5.59-8.68Z"/>
        <path class="cls-1" d="m1048.49,137.77c0-10.03,6.04-17.12,14.6-17.12s14.61,7.09,14.61,17.12-6.05,17.16-14.61,17.16-14.6-7.09-14.6-17.16Zm20.2,0c0-5.06-2.3-8.63-5.59-8.63s-5.59,3.57-5.59,8.63,2.3,8.68,5.59,8.68,5.59-3.62,5.59-8.68Z"/>
        <path class="cls-1" d="m1088.13,131.74l-5.18,3.38-3.43-6.46,10.37-7.43h6.98v33.13h-8.75v-22.61Z"/>
        <path class="cls-1" d="m1108.67,131.74l-5.18,3.38-3.43-6.46,10.37-7.43h6.98v33.13h-8.75v-22.61Z"/>
        <path class="cls-1" d="m1121.91,137.77c0-10.03,6.04-17.12,14.6-17.12s14.61,7.09,14.61,17.12-6.05,17.16-14.61,17.16-14.6-7.09-14.6-17.16Zm20.2,0c0-5.06-2.3-8.63-5.59-8.63s-5.59,3.57-5.59,8.63,2.3,8.68,5.59,8.68,5.59-3.62,5.59-8.68Z"/>
        <path class="cls-1" d="m1161.55,131.74l-5.18,3.38-3.43-6.46,10.37-7.43h6.99v33.13h-8.75v-22.61Z"/>
        <path class="cls-1" d="m1174.8,137.77c0-10.03,6.04-17.12,14.6-17.12s14.61,7.09,14.61,17.12-6.05,17.16-14.61,17.16-14.6-7.09-14.6-17.16Zm20.2,0c0-5.06-2.3-8.63-5.59-8.63s-5.59,3.57-5.59,8.63,2.3,8.68,5.59,8.68,5.59-3.62,5.59-8.68Z"/>
        <path class="cls-1" d="m1214.44,131.74l-5.18,3.38-3.43-6.46,10.37-7.43h6.98v33.13h-8.75v-22.61Z"/>
        <path class="cls-1" d="m1227.68,137.77c0-10.03,6.04-17.12,14.6-17.12s14.61,7.09,14.61,17.12-6.05,17.16-14.61,17.16-14.6-7.09-14.6-17.16Zm20.2,0c0-5.06-2.3-8.63-5.59-8.63s-5.59,3.57-5.59,8.63,2.3,8.68,5.59,8.68,5.59-3.62,5.59-8.68Z"/>
        <path class="cls-1" d="m1260.02,137.77c0-10.03,6.04-17.12,14.6-17.12s14.61,7.09,14.61,17.12-6.05,17.16-14.61,17.16-14.6-7.09-14.6-17.16Zm20.2,0c0-5.06-2.3-8.63-5.59-8.63s-5.59,3.57-5.59,8.63,2.3,8.68,5.59,8.68,5.59-3.62,5.59-8.68Z"/>
        <path class="cls-1" d="m1299.66,131.74l-5.18,3.38-3.43-6.46,10.37-7.43h6.98v33.13h-8.75v-22.61Z"/>
        <path class="cls-1" d="m1312.9,137.77c0-10.03,6.04-17.12,14.6-17.12s14.61,7.09,14.61,17.12-6.05,17.16-14.61,17.16-14.6-7.09-14.6-17.16Zm20.2,0c0-5.06-2.3-8.63-5.59-8.63s-5.59,3.57-5.59,8.63,2.3,8.68,5.59,8.68,5.59-3.62,5.59-8.68Z"/>
        <path class="cls-1" d="m1352.55,131.74l-5.18,3.38-3.43-6.46,10.37-7.43h6.99v33.13h-8.75v-22.61Z"/>
        <path class="cls-1" d="m1365.79,137.77c0-10.03,6.04-17.12,14.6-17.12s14.61,7.09,14.61,17.12-6.05,17.16-14.61,17.16-14.6-7.09-14.6-17.16Zm20.2,0c0-5.06-2.3-8.63-5.59-8.63s-5.59,3.57-5.59,8.63,2.3,8.68,5.59,8.68,5.59-3.62,5.59-8.68Z"/>
        <path class="cls-1" d="m1405.43,131.74l-5.18,3.38-3.43-6.46,10.37-7.43h6.98v33.13h-8.75v-22.61Z"/>
        <path class="cls-1" d="m1418.67,137.77c0-10.03,6.04-17.12,14.6-17.12s14.61,7.09,14.61,17.12-6.05,17.16-14.61,17.16-14.6-7.09-14.6-17.16Zm20.2,0c0-5.06-2.3-8.63-5.59-8.63s-5.59,3.57-5.59,8.63,2.3,8.68,5.59,8.68,5.59-3.62,5.59-8.68Z"/>
        <path class="cls-1" d="m943.11,195.63c0-10.03,6.04-17.12,14.6-17.12s14.61,7.09,14.61,17.12-6.05,17.16-14.61,17.16-14.6-7.09-14.6-17.16Zm20.2,0c0-5.06-2.3-8.63-5.59-8.63s-5.59,3.57-5.59,8.63,2.3,8.68,5.59,8.68,5.59-3.62,5.59-8.68Z"/>
        <path class="cls-1" d="m975.45,195.63c0-10.03,6.04-17.12,14.6-17.12s14.61,7.09,14.61,17.12-6.05,17.16-14.61,17.16-14.6-7.09-14.6-17.16Zm20.2,0c0-5.06-2.3-8.63-5.59-8.63s-5.59,3.57-5.59,8.63,2.3,8.68,5.59,8.68,5.59-3.62,5.59-8.68Z"/>
        <path class="cls-1" d="m1015.09,189.6l-5.18,3.38-3.43-6.46,10.37-7.43h6.99v33.13h-8.75v-22.61Z"/>
        <path class="cls-1" d="m1035.64,189.6l-5.18,3.38-3.43-6.46,10.37-7.43h6.99v33.13h-8.75v-22.61Z"/>
        <path class="cls-1" d="m1048.88,195.63c0-10.03,6.04-17.12,14.6-17.12s14.61,7.09,14.61,17.12-6.05,17.16-14.61,17.16-14.6-7.09-14.6-17.16Zm20.2,0c0-5.06-2.3-8.63-5.59-8.63s-5.59,3.57-5.59,8.63,2.3,8.68,5.59,8.68,5.59-3.62,5.59-8.68Z"/>
        <path class="cls-1" d="m1088.52,189.6l-5.18,3.38-3.43-6.46,10.37-7.43h6.98v33.13h-8.75v-22.61Z"/>
        <path class="cls-1" d="m1101.76,195.63c0-10.03,6.04-17.12,14.6-17.12s14.61,7.09,14.61,17.12-6.05,17.16-14.61,17.16-14.6-7.09-14.6-17.16Zm20.2,0c0-5.06-2.3-8.63-5.59-8.63s-5.59,3.57-5.59,8.63,2.3,8.68,5.59,8.68,5.59-3.62,5.59-8.68Z"/>
        <path class="cls-1" d="m1141.4,189.6l-5.18,3.38-3.43-6.46,10.37-7.43h6.99v33.13h-8.75v-22.61Z"/>
        <path class="cls-1" d="m1154.64,195.63c0-10.03,6.04-17.12,14.6-17.12s14.61,7.09,14.61,17.12-6.05,17.16-14.61,17.16-14.6-7.09-14.6-17.16Zm20.2,0c0-5.06-2.3-8.63-5.59-8.63s-5.59,3.57-5.59,8.63,2.3,8.68,5.59,8.68,5.59-3.62,5.59-8.68Z"/>
        <path class="cls-1" d="m1186.99,195.63c0-10.03,6.04-17.12,14.6-17.12s14.61,7.09,14.61,17.12-6.05,17.16-14.61,17.16-14.6-7.09-14.6-17.16Zm20.2,0c0-5.06-2.3-8.63-5.59-8.63s-5.59,3.57-5.59,8.63,2.3,8.68,5.59,8.68,5.59-3.62,5.59-8.68Z"/>
        <path class="cls-1" d="m1226.63,189.6l-5.18,3.38-3.43-6.46,10.37-7.43h6.99v33.13h-8.75v-22.61Z"/>
        <path class="cls-1" d="m1247.17,189.6l-5.18,3.38-3.43-6.46,10.37-7.43h6.99v33.13h-8.75v-22.61Z"/>
        <path class="cls-1" d="m1260.41,195.63c0-10.03,6.04-17.12,14.6-17.12s14.61,7.09,14.61,17.12-6.05,17.16-14.61,17.16-14.6-7.09-14.6-17.16Zm20.2,0c0-5.06-2.3-8.63-5.59-8.63s-5.59,3.57-5.59,8.63,2.3,8.68,5.59,8.68,5.59-3.62,5.59-8.68Z"/>
        <path class="cls-1" d="m1300.05,189.6l-5.18,3.38-3.43-6.46,10.37-7.43h6.98v33.13h-8.75v-22.61Z"/>
        <path class="cls-1" d="m1313.29,195.63c0-10.03,6.04-17.12,14.6-17.12s14.61,7.09,14.61,17.12-6.05,17.16-14.61,17.16-14.6-7.09-14.6-17.16Zm20.2,0c0-5.06-2.3-8.63-5.59-8.63s-5.59,3.57-5.59,8.63,2.3,8.68,5.59,8.68,5.59-3.62,5.59-8.68Z"/>
        <path class="cls-1" d="m1352.93,189.6l-5.18,3.38-3.43-6.46,10.37-7.43h6.99v33.13h-8.75v-22.61Z"/>
        <path class="cls-1" d="m1366.18,195.63c0-10.03,6.04-17.12,14.6-17.12s14.61,7.09,14.61,17.12-6.05,17.16-14.61,17.16-14.6-7.09-14.6-17.16Zm20.2,0c0-5.06-2.3-8.63-5.59-8.63s-5.59,3.57-5.59,8.63,2.3,8.68,5.59,8.68,5.59-3.62,5.59-8.68Z"/>
        <path class="cls-1" d="m1398.52,195.63c0-10.03,6.04-17.12,14.6-17.12s14.61,7.09,14.61,17.12-6.05,17.16-14.61,17.16-14.6-7.09-14.6-17.16Zm20.2,0c0-5.06-2.3-8.63-5.59-8.63s-5.59,3.57-5.59,8.63,2.3,8.68,5.59,8.68,5.59-3.62,5.59-8.68Z"/>
        <path class="cls-1" d="m1438.16,189.6l-5.18,3.38-3.43-6.46,10.37-7.43h6.99v33.13h-8.75v-22.61Z"/>
        <path class="cls-1" d="m1451.4,195.63c0-10.03,6.04-17.12,14.6-17.12s14.61,7.09,14.61,17.12-6.05,17.16-14.61,17.16-14.6-7.09-14.6-17.16Zm20.2,0c0-5.06-2.3-8.63-5.59-8.63s-5.59,3.57-5.59,8.63,2.3,8.68,5.59,8.68,5.59-3.62,5.59-8.68Z"/>
        <path class="cls-1" d="m1491.04,189.6l-5.18,3.38-3.43-6.46,10.37-7.43h6.98v33.13h-8.75v-22.61Z"/>
        <path class="cls-1" d="m1504.28,195.63c0-10.03,6.04-17.12,14.6-17.12s14.61,7.09,14.61,17.12-6.05,17.16-14.61,17.16-14.6-7.09-14.6-17.16Zm20.2,0c0-5.06-2.3-8.63-5.59-8.63s-5.59,3.57-5.59,8.63,2.3,8.68,5.59,8.68,5.59-3.62,5.59-8.68Z"/>
        <path class="cls-1" d="m950.81,247.47l-5.18,3.38-3.43-6.46,10.37-7.43h6.98v33.13h-8.75v-22.61Z"/>
        <path class="cls-1" d="m964.05,253.49c0-10.03,6.04-17.12,14.6-17.12s14.61,7.09,14.61,17.12-6.05,17.16-14.61,17.16-14.6-7.09-14.6-17.16Zm20.2,0c0-5.06-2.3-8.63-5.59-8.63s-5.59,3.57-5.59,8.63,2.3,8.68,5.59,8.68,5.59-3.62,5.59-8.68Z"/>
        <path class="cls-1" d="m996.39,253.49c0-10.03,6.04-17.12,14.6-17.12s14.61,7.09,14.61,17.12-6.05,17.16-14.61,17.16-14.6-7.09-14.6-17.16Zm20.2,0c0-5.06-2.3-8.63-5.59-8.63s-5.59,3.57-5.59,8.63,2.3,8.68,5.59,8.68,5.59-3.62,5.59-8.68Z"/>
        <path class="cls-1" d="m1028.73,253.49c0-10.03,6.04-17.12,14.6-17.12s14.61,7.09,14.61,17.12-6.05,17.16-14.61,17.16-14.6-7.09-14.6-17.16Zm20.2,0c0-5.06-2.3-8.63-5.59-8.63s-5.59,3.57-5.59,8.63,2.3,8.68,5.59,8.68,5.59-3.62,5.59-8.68Z"/>
        <path class="cls-1" d="m1068.37,247.47l-5.18,3.38-3.43-6.46,10.37-7.43h6.99v33.13h-8.75v-22.61Z"/>
        <path class="cls-1" d="m1088.91,247.47l-5.18,3.38-3.43-6.46,10.37-7.43h6.99v33.13h-8.75v-22.61Z"/>
        <path class="cls-1" d="m1102.16,253.49c0-10.03,6.04-17.12,14.6-17.12s14.61,7.09,14.61,17.12-6.05,17.16-14.61,17.16-14.6-7.09-14.6-17.16Zm20.2,0c0-5.06-2.3-8.63-5.59-8.63s-5.59,3.57-5.59,8.63,2.3,8.68,5.59,8.68,5.59-3.62,5.59-8.68Z"/>
        <path class="cls-1" d="m1141.8,247.47l-5.18,3.38-3.43-6.46,10.37-7.43h6.98v33.13h-8.75v-22.61Z"/>
        <path class="cls-1" d="m1155.04,253.49c0-10.03,6.04-17.12,14.6-17.12s14.61,7.09,14.61,17.12-6.05,17.16-14.61,17.16-14.6-7.09-14.6-17.16Zm20.2,0c0-5.06-2.3-8.63-5.59-8.63s-5.59,3.57-5.59,8.63,2.3,8.68,5.59,8.68,5.59-3.62,5.59-8.68Z"/>
        <path class="cls-1" d="m1194.68,247.47l-5.18,3.38-3.43-6.46,10.37-7.43h6.99v33.13h-8.75v-22.61Z"/>
        <path class="cls-1" d="m1207.92,253.49c0-10.03,6.04-17.12,14.6-17.12s14.61,7.09,14.61,17.12-6.05,17.16-14.61,17.16-14.6-7.09-14.6-17.16Zm20.2,0c0-5.06-2.3-8.63-5.59-8.63s-5.59,3.57-5.59,8.63,2.3,8.68,5.59,8.68,5.59-3.62,5.59-8.68Z"/>
        <path class="cls-1" d="m1240.26,253.49c0-10.03,6.04-17.12,14.6-17.12s14.61,7.09,14.61,17.12-6.05,17.16-14.61,17.16-14.6-7.09-14.6-17.16Zm20.2,0c0-5.06-2.3-8.63-5.59-8.63s-5.59,3.57-5.59,8.63,2.3,8.68,5.59,8.68,5.59-3.62,5.59-8.68Z"/>
        <path class="cls-1" d="m1279.9,247.47l-5.18,3.38-3.43-6.46,10.37-7.43h6.99v33.13h-8.75v-22.61Z"/>
        <path class="cls-1" d="m1300.45,247.47l-5.18,3.38-3.43-6.46,10.37-7.43h6.99v33.13h-8.75v-22.61Z"/>
        <path class="cls-1" d="m1313.69,253.49c0-10.03,6.04-17.12,14.6-17.12s14.61,7.09,14.61,17.12-6.05,17.16-14.61,17.16-14.6-7.09-14.6-17.16Zm20.2,0c0-5.06-2.3-8.63-5.59-8.63s-5.59,3.57-5.59,8.63,2.3,8.68,5.59,8.68,5.59-3.62,5.59-8.68Z"/>
        <path class="cls-1" d="m1353.33,247.47l-5.18,3.38-3.43-6.46,10.37-7.43h6.98v33.13h-8.75v-22.61Z"/>
        <path class="cls-1" d="m1366.57,253.49c0-10.03,6.04-17.12,14.6-17.12s14.61,7.09,14.61,17.12-6.05,17.16-14.61,17.16-14.6-7.09-14.6-17.16Zm20.2,0c0-5.06-2.3-8.63-5.59-8.63s-5.59,3.57-5.59,8.63,2.3,8.68,5.59,8.68,5.59-3.62,5.59-8.68Z"/>
        <path class="cls-1" d="m1406.21,247.47l-5.18,3.38-3.43-6.46,10.37-7.43h6.99v33.13h-8.75v-22.61Z"/>
        <path class="cls-1" d="m1419.45,253.49c0-10.03,6.04-17.12,14.6-17.12s14.61,7.09,14.61,17.12-6.05,17.16-14.61,17.16-14.6-7.09-14.6-17.16Zm20.2,0c0-5.06-2.3-8.63-5.59-8.63s-5.59,3.57-5.59,8.63,2.3,8.68,5.59,8.68,5.59-3.62,5.59-8.68Z"/>
        <path class="cls-1" d="m1451.8,253.49c0-10.03,6.04-17.12,14.6-17.12s14.61,7.09,14.61,17.12-6.05,17.16-14.61,17.16-14.6-7.09-14.6-17.16Zm20.2,0c0-5.06-2.3-8.63-5.59-8.63s-5.59,3.57-5.59,8.63,2.3,8.68,5.59,8.68,5.59-3.62,5.59-8.68Z"/>
        <path class="cls-1" d="m1491.44,247.47l-5.18,3.38-3.43-6.46,10.37-7.43h6.99v33.13h-8.75v-22.61Z"/>
        <path class="cls-1" d="m1504.68,253.49c0-10.03,6.04-17.12,14.6-17.12s14.61,7.09,14.61,17.12-6.05,17.16-14.61,17.16-14.6-7.09-14.6-17.16Zm20.2,0c0-5.06-2.3-8.63-5.59-8.63s-5.59,3.57-5.59,8.63,2.3,8.68,5.59,8.68,5.59-3.62,5.59-8.68Z"/>
        <path class="cls-1" d="m1544.32,247.47l-5.18,3.38-3.43-6.46,10.37-7.43h6.98v33.13h-8.75v-22.61Z"/>
        <path class="cls-1" d="m1557.56,253.49c0-10.03,6.04-17.12,14.6-17.12s14.61,7.09,14.61,17.12-6.05,17.16-14.61,17.16-14.6-7.09-14.6-17.16Zm20.2,0c0-5.06-2.3-8.63-5.59-8.63s-5.59,3.57-5.59,8.63,2.3,8.68,5.59,8.68,5.59-3.62,5.59-8.68Z"/>
        <path class="cls-1" d="m951.21,305.33l-5.18,3.38-3.43-6.46,10.37-7.43h6.98v33.13h-8.75v-22.61Z"/>
        <path class="cls-1" d="m964.45,311.36c0-10.03,6.04-17.12,14.6-17.12s14.61,7.09,14.61,17.12-6.05,17.16-14.61,17.16-14.6-7.09-14.6-17.16Zm20.2,0c0-5.06-2.3-8.63-5.59-8.63s-5.59,3.57-5.59,8.63,2.3,8.68,5.59,8.68,5.59-3.62,5.59-8.68Z"/>
        <path class="cls-1" d="m996.79,311.36c0-10.03,6.04-17.12,14.6-17.12s14.61,7.09,14.61,17.12-6.05,17.16-14.61,17.16-14.6-7.09-14.6-17.16Zm20.2,0c0-5.06-2.3-8.63-5.59-8.63s-5.59,3.57-5.59,8.63,2.3,8.68,5.59,8.68,5.59-3.62,5.59-8.68Z"/>
        <path class="cls-1" d="m1029.13,311.36c0-10.03,6.04-17.12,14.6-17.12s14.61,7.09,14.61,17.12-6.05,17.16-14.61,17.16-14.6-7.09-14.6-17.16Zm20.2,0c0-5.06-2.3-8.63-5.59-8.63s-5.59,3.57-5.59,8.63,2.3,8.68,5.59,8.68,5.59-3.62,5.59-8.68Z"/>
        <path class="cls-1" d="m1068.77,305.33l-5.18,3.38-3.43-6.46,10.37-7.43h6.99v33.13h-8.75v-22.61Z"/>
        <path class="cls-1" d="m1089.31,305.33l-5.18,3.38-3.43-6.46,10.37-7.43h6.99v33.13h-8.75v-22.61Z"/>
        <path class="cls-1" d="m1102.56,311.36c0-10.03,6.04-17.12,14.6-17.12s14.61,7.09,14.61,17.12-6.05,17.16-14.61,17.16-14.6-7.09-14.6-17.16Zm20.2,0c0-5.06-2.3-8.63-5.59-8.63s-5.59,3.57-5.59,8.63,2.3,8.68,5.59,8.68,5.59-3.62,5.59-8.68Z"/>
        <path class="cls-1" d="m1142.2,305.33l-5.18,3.38-3.43-6.46,10.37-7.43h6.98v33.13h-8.75v-22.61Z"/>
        <path class="cls-1" d="m1155.44,311.36c0-10.03,6.04-17.12,14.6-17.12s14.61,7.09,14.61,17.12-6.05,17.16-14.61,17.16-14.6-7.09-14.6-17.16Zm20.2,0c0-5.06-2.3-8.63-5.59-8.63s-5.59,3.57-5.59,8.63,2.3,8.68,5.59,8.68,5.59-3.62,5.59-8.68Z"/>
        <path class="cls-1" d="m1195.08,305.33l-5.18,3.38-3.43-6.46,10.37-7.43h6.99v33.13h-8.75v-22.61Z"/>
        <path class="cls-1" d="m1208.32,311.36c0-10.03,6.04-17.12,14.6-17.12s14.61,7.09,14.61,17.12-6.05,17.16-14.61,17.16-14.6-7.09-14.6-17.16Zm20.2,0c0-5.06-2.3-8.63-5.59-8.63s-5.59,3.57-5.59,8.63,2.3,8.68,5.59,8.68,5.59-3.62,5.59-8.68Z"/>
        <path class="cls-1" d="m1240.66,311.36c0-10.03,6.04-17.12,14.6-17.12s14.61,7.09,14.61,17.12-6.05,17.16-14.61,17.16-14.6-7.09-14.6-17.16Zm20.2,0c0-5.06-2.3-8.63-5.59-8.63s-5.59,3.57-5.59,8.63,2.3,8.68,5.59,8.68,5.59-3.62,5.59-8.68Z"/>
        <path class="cls-1" d="m1280.31,305.33l-5.18,3.38-3.43-6.46,10.37-7.43h6.99v33.13h-8.75v-22.61Z"/>
        <path class="cls-1" d="m1300.85,305.33l-5.18,3.38-3.43-6.46,10.37-7.43h6.99v33.13h-8.75v-22.61Z"/>
        <path class="cls-1" d="m1314.09,311.36c0-10.03,6.04-17.12,14.6-17.12s14.61,7.09,14.61,17.12-6.05,17.16-14.61,17.16-14.6-7.09-14.6-17.16Zm20.2,0c0-5.06-2.3-8.63-5.59-8.63s-5.59,3.57-5.59,8.63,2.3,8.68,5.59,8.68,5.59-3.62,5.59-8.68Z"/>
        <path class="cls-1" d="m1353.73,305.33l-5.18,3.38-3.43-6.46,10.37-7.43h6.98v33.13h-8.75v-22.61Z"/>
        <path class="cls-1" d="m1366.97,311.36c0-10.03,6.04-17.12,14.6-17.12s14.61,7.09,14.61,17.12-6.05,17.16-14.61,17.16-14.6-7.09-14.6-17.16Zm20.2,0c0-5.06-2.3-8.63-5.59-8.63s-5.59,3.57-5.59,8.63,2.3,8.68,5.59,8.68,5.59-3.62,5.59-8.68Z"/>
        <path class="cls-1" d="m1406.61,305.33l-5.18,3.38-3.43-6.46,10.37-7.43h6.99v33.13h-8.75v-22.61Z"/>
        <path class="cls-1" d="m1419.86,311.36c0-10.03,6.04-17.12,14.6-17.12s14.61,7.09,14.61,17.12-6.05,17.16-14.61,17.16-14.6-7.09-14.6-17.16Zm20.2,0c0-5.06-2.3-8.63-5.59-8.63s-5.59,3.57-5.59,8.63,2.3,8.68,5.59,8.68,5.59-3.62,5.59-8.68Z"/>
        <path class="cls-1" d="m1452.2,311.36c0-10.03,6.04-17.12,14.6-17.12s14.61,7.09,14.61,17.12-6.05,17.16-14.61,17.16-14.6-7.09-14.6-17.16Zm20.2,0c0-5.06-2.3-8.63-5.59-8.63s-5.59,3.57-5.59,8.63,2.3,8.68,5.59,8.68,5.59-3.62,5.59-8.68Z"/>
        <path class="cls-1" d="m1491.84,305.33l-5.18,3.38-3.43-6.46,10.37-7.43h6.99v33.13h-8.75v-22.61Z"/>
        <path class="cls-1" d="m1505.08,311.36c0-10.03,6.04-17.12,14.6-17.12s14.61,7.09,14.61,17.12-6.05,17.16-14.61,17.16-14.6-7.09-14.6-17.16Zm20.2,0c0-5.06-2.3-8.63-5.59-8.63s-5.59,3.57-5.59,8.63,2.3,8.68,5.59,8.68,5.59-3.62,5.59-8.68Z"/>
        <path class="cls-1" d="m1544.72,305.33l-5.18,3.38-3.43-6.46,10.37-7.43h6.98v33.13h-8.75v-22.61Z"/>
        <path class="cls-1" d="m1557.96,311.36c0-10.03,6.04-17.12,14.6-17.12s14.61,7.09,14.61,17.12-6.05,17.16-14.61,17.16-14.6-7.09-14.6-17.16Zm20.2,0c0-5.06-2.3-8.63-5.59-8.63s-5.59,3.57-5.59,8.63,2.3,8.68,5.59,8.68,5.59-3.62,5.59-8.68Z"/>
        <path class="cls-1" d="m1597.6,305.33l-5.18,3.38-3.43-6.46,10.37-7.43h6.99v33.13h-8.75v-22.61Z"/>
        <path class="cls-1" d="m1610.85,311.36c0-10.03,6.04-17.12,14.6-17.12s14.61,7.09,14.61,17.12-6.05,17.16-14.61,17.16-14.6-7.09-14.6-17.16Zm20.2,0c0-5.06-2.3-8.63-5.59-8.63s-5.59,3.57-5.59,8.63,2.3,8.68,5.59,8.68,5.59-3.62,5.59-8.68Z"/>
        <path class="cls-1" d="m944.3,369.22c0-10.03,6.04-17.12,14.6-17.12s14.61,7.09,14.61,17.12-6.05,17.16-14.61,17.16-14.6-7.09-14.6-17.16Zm20.2,0c0-5.06-2.3-8.63-5.59-8.63s-5.59,3.57-5.59,8.63,2.3,8.68,5.59,8.68,5.59-3.62,5.59-8.68Z"/>
        <path class="cls-1" d="m976.64,369.22c0-10.03,6.04-17.12,14.6-17.12s14.61,7.09,14.61,17.12-6.05,17.16-14.61,17.16-14.6-7.09-14.6-17.16Zm20.2,0c0-5.06-2.3-8.63-5.59-8.63s-5.59,3.57-5.59,8.63,2.3,8.68,5.59,8.68,5.59-3.62,5.59-8.68Z"/>
        <path class="cls-1" d="m1016.28,363.19l-5.18,3.38-3.43-6.46,10.37-7.43h6.99v33.13h-8.75v-22.61Z"/>
        <path class="cls-1" d="m1036.83,363.19l-5.18,3.38-3.43-6.46,10.37-7.43h6.99v33.13h-8.75v-22.61Z"/>
        <path class="cls-1" d="m1050.07,369.22c0-10.03,6.04-17.12,14.6-17.12s14.61,7.09,14.61,17.12-6.05,17.16-14.61,17.16-14.6-7.09-14.6-17.16Zm20.2,0c0-5.06-2.3-8.63-5.59-8.63s-5.59,3.57-5.59,8.63,2.3,8.68,5.59,8.68,5.59-3.62,5.59-8.68Z"/>
        <path class="cls-1" d="m1089.71,363.19l-5.18,3.38-3.43-6.46,10.37-7.43h6.98v33.13h-8.75v-22.61Z"/>
        <path class="cls-1" d="m1102.95,369.22c0-10.03,6.04-17.12,14.6-17.12s14.61,7.09,14.61,17.12-6.05,17.16-14.61,17.16-14.6-7.09-14.6-17.16Zm20.2,0c0-5.06-2.3-8.63-5.59-8.63s-5.59,3.57-5.59,8.63,2.3,8.68,5.59,8.68,5.59-3.62,5.59-8.68Z"/>
        <path class="cls-1" d="m1142.59,363.19l-5.18,3.38-3.43-6.46,10.37-7.43h6.99v33.13h-8.75v-22.61Z"/>
        <path class="cls-1" d="m1155.84,369.22c0-10.03,6.04-17.12,14.6-17.12s14.61,7.09,14.61,17.12-6.05,17.16-14.61,17.16-14.6-7.09-14.6-17.16Zm20.2,0c0-5.06-2.3-8.63-5.59-8.63s-5.59,3.57-5.59,8.63,2.3,8.68,5.59,8.68,5.59-3.62,5.59-8.68Z"/>
        <path class="cls-1" d="m1188.18,369.22c0-10.03,6.04-17.12,14.6-17.12s14.61,7.09,14.61,17.12-6.05,17.16-14.61,17.16-14.6-7.09-14.6-17.16Zm20.2,0c0-5.06-2.3-8.63-5.59-8.63s-5.59,3.57-5.59,8.63,2.3,8.68,5.59,8.68,5.59-3.62,5.59-8.68Z"/>
        <path class="cls-1" d="m1227.82,363.19l-5.18,3.38-3.43-6.46,10.37-7.43h6.99v33.13h-8.75v-22.61Z"/>
        <path class="cls-1" d="m1248.36,363.19l-5.18,3.38-3.43-6.46,10.37-7.43h6.99v33.13h-8.75v-22.61Z"/>
        <path class="cls-1" d="m1261.6,369.22c0-10.03,6.04-17.12,14.6-17.12s14.61,7.09,14.61,17.12-6.05,17.16-14.61,17.16-14.6-7.09-14.6-17.16Zm20.2,0c0-5.06-2.3-8.63-5.59-8.63s-5.59,3.57-5.59,8.63,2.3,8.68,5.59,8.68,5.59-3.62,5.59-8.68Z"/>
        <path class="cls-1" d="m1301.24,363.19l-5.18,3.38-3.43-6.46,10.37-7.43h6.98v33.13h-8.75v-22.61Z"/>
        <path class="cls-1" d="m1314.48,369.22c0-10.03,6.04-17.12,14.6-17.12s14.61,7.09,14.61,17.12-6.05,17.16-14.61,17.16-14.6-7.09-14.6-17.16Zm20.2,0c0-5.06-2.3-8.63-5.59-8.63s-5.59,3.57-5.59,8.63,2.3,8.68,5.59,8.68,5.59-3.62,5.59-8.68Z"/>
        <path class="cls-1" d="m1354.13,363.19l-5.18,3.38-3.43-6.46,10.37-7.43h6.99v33.13h-8.75v-22.61Z"/>
        <path class="cls-1" d="m1367.37,369.22c0-10.03,6.04-17.12,14.6-17.12s14.61,7.09,14.61,17.12-6.05,17.16-14.61,17.16-14.6-7.09-14.6-17.16Zm20.2,0c0-5.06-2.3-8.63-5.59-8.63s-5.59,3.57-5.59,8.63,2.3,8.68,5.59,8.68,5.59-3.62,5.59-8.68Z"/>
        <path class="cls-1" d="m1399.71,369.22c0-10.03,6.04-17.12,14.6-17.12s14.61,7.09,14.61,17.12-6.05,17.16-14.61,17.16-14.6-7.09-14.6-17.16Zm20.2,0c0-5.06-2.3-8.63-5.59-8.63s-5.59,3.57-5.59,8.63,2.3,8.68,5.59,8.68,5.59-3.62,5.59-8.68Z"/>
        <path class="cls-1" d="m1439.35,363.19l-5.18,3.38-3.43-6.46,10.37-7.43h6.99v33.13h-8.75v-22.61Z"/>
        <path class="cls-1" d="m1452.59,369.22c0-10.03,6.04-17.12,14.6-17.12s14.61,7.09,14.61,17.12-6.05,17.16-14.61,17.16-14.6-7.09-14.6-17.16Zm20.2,0c0-5.06-2.3-8.63-5.59-8.63s-5.59,3.57-5.59,8.63,2.3,8.68,5.59,8.68,5.59-3.62,5.59-8.68Z"/>
        <path class="cls-1" d="m1492.23,363.19l-5.18,3.38-3.43-6.46,10.37-7.43h6.98v33.13h-8.75v-22.61Z"/>
        <path class="cls-1" d="m1505.48,369.22c0-10.03,6.04-17.12,14.6-17.12s14.61,7.09,14.61,17.12-6.05,17.16-14.61,17.16-14.6-7.09-14.6-17.16Zm20.2,0c0-5.06-2.3-8.63-5.59-8.63s-5.59,3.57-5.59,8.63,2.3,8.68,5.59,8.68,5.59-3.62,5.59-8.68Z"/>
        <path class="cls-1" d="m1545.12,363.19l-5.18,3.38-3.43-6.46,10.37-7.43h6.99v33.13h-8.75v-22.61Z"/>
        <path class="cls-1" d="m1558.36,369.22c0-10.03,6.04-17.12,14.6-17.12s14.61,7.09,14.61,17.12-6.05,17.16-14.61,17.16-14.6-7.09-14.6-17.16Zm20.2,0c0-5.06-2.3-8.63-5.59-8.63s-5.59,3.57-5.59,8.63,2.3,8.68,5.59,8.68,5.59-3.62,5.59-8.68Z"/>
        <path class="cls-1" d="m1590.7,369.22c0-10.03,6.04-17.12,14.6-17.12s14.61,7.09,14.61,17.12-6.05,17.16-14.61,17.16-14.6-7.09-14.6-17.16Zm20.2,0c0-5.06-2.3-8.63-5.59-8.63s-5.59,3.57-5.59,8.63,2.3,8.68,5.59,8.68,5.59-3.62,5.59-8.68Z"/>
        <path class="cls-1" d="m1623.04,369.22c0-10.03,6.04-17.12,14.6-17.12s14.61,7.09,14.61,17.12-6.05,17.16-14.61,17.16-14.6-7.09-14.6-17.16Zm20.2,0c0-5.06-2.3-8.63-5.59-8.63s-5.59,3.57-5.59,8.63,2.3,8.68,5.59,8.68,5.59-3.62,5.59-8.68Z"/>
        <path class="cls-1" d="m1662.68,363.19l-5.18,3.38-3.43-6.46,10.37-7.43h6.98v33.13h-8.75v-22.61Z"/>
        <path class="cls-1" d="m1683.22,363.19l-5.18,3.38-3.43-6.46,10.37-7.43h6.98v33.13h-8.75v-22.61Z"/>
        <path class="cls-1" d="m1696.47,369.22c0-10.03,6.04-17.12,14.6-17.12s14.61,7.09,14.61,17.12-6.05,17.16-14.61,17.16-14.6-7.09-14.6-17.16Zm20.2,0c0-5.06-2.3-8.63-5.59-8.63s-5.59,3.57-5.59,8.63,2.3,8.68,5.59,8.68,5.59-3.62,5.59-8.68Z"/>
        <path class="cls-1" d="m952,421.06l-5.18,3.38-3.43-6.46,10.37-7.43h6.98v33.13h-8.75v-22.61Z"/>
        <path class="cls-1" d="m965.24,427.09c0-10.03,6.04-17.12,14.6-17.12s14.61,7.09,14.61,17.12-6.05,17.16-14.61,17.16-14.6-7.09-14.6-17.16Zm20.2,0c0-5.06-2.3-8.63-5.59-8.63s-5.59,3.57-5.59,8.63,2.3,8.68,5.59,8.68,5.59-3.62,5.59-8.68Z"/>
        <path class="cls-1" d="m1004.88,421.06l-5.18,3.38-3.43-6.46,10.37-7.43h6.99v33.13h-8.75v-22.61Z"/>
        <path class="cls-1" d="m1018.12,427.09c0-10.03,6.04-17.12,14.6-17.12s14.61,7.09,14.61,17.12-6.05,17.16-14.61,17.16-14.6-7.09-14.6-17.16Zm20.2,0c0-5.06-2.3-8.63-5.59-8.63s-5.59,3.57-5.59,8.63,2.3,8.68,5.59,8.68,5.59-3.62,5.59-8.68Z"/>
        <path class="cls-1" d="m1050.46,427.09c0-10.03,6.04-17.12,14.6-17.12s14.61,7.09,14.61,17.12-6.05,17.16-14.61,17.16-14.6-7.09-14.6-17.16Zm20.2,0c0-5.06-2.3-8.63-5.59-8.63s-5.59,3.57-5.59,8.63,2.3,8.68,5.59,8.68,5.59-3.62,5.59-8.68Z"/>
        <path class="cls-1" d="m1090.1,421.06l-5.18,3.38-3.43-6.46,10.37-7.43h6.99v33.13h-8.75v-22.61Z"/>
        <path class="cls-1" d="m1110.65,421.06l-5.18,3.38-3.43-6.46,10.37-7.43h6.99v33.13h-8.75v-22.61Z"/>
        <path class="cls-1" d="m1123.89,427.09c0-10.03,6.04-17.12,14.6-17.12s14.61,7.09,14.61,17.12-6.05,17.16-14.61,17.16-14.6-7.09-14.6-17.16Zm20.2,0c0-5.06-2.3-8.63-5.59-8.63s-5.59,3.57-5.59,8.63,2.3,8.68,5.59,8.68,5.59-3.62,5.59-8.68Z"/>
        <path class="cls-1" d="m1163.53,421.06l-5.18,3.38-3.43-6.46,10.37-7.43h6.98v33.13h-8.75v-22.61Z"/>
        <path class="cls-1" d="m1176.77,427.09c0-10.03,6.04-17.12,14.6-17.12s14.61,7.09,14.61,17.12-6.05,17.16-14.61,17.16-14.6-7.09-14.6-17.16Zm20.2,0c0-5.06-2.3-8.63-5.59-8.63s-5.59,3.57-5.59,8.63,2.3,8.68,5.59,8.68,5.59-3.62,5.59-8.68Z"/>
        <path class="cls-1" d="m1216.41,421.06l-5.18,3.38-3.43-6.46,10.37-7.43h6.99v33.13h-8.75v-22.61Z"/>
        <path class="cls-1" d="m1229.66,427.09c0-10.03,6.04-17.12,14.6-17.12s14.61,7.09,14.61,17.12-6.05,17.16-14.61,17.16-14.6-7.09-14.6-17.16Zm20.2,0c0-5.06-2.3-8.63-5.59-8.63s-5.59,3.57-5.59,8.63,2.3,8.68,5.59,8.68,5.59-3.62,5.59-8.68Z"/>
        <path class="cls-1" d="m1262,427.09c0-10.03,6.04-17.12,14.6-17.12s14.61,7.09,14.61,17.12-6.05,17.16-14.61,17.16-14.6-7.09-14.6-17.16Zm20.2,0c0-5.06-2.3-8.63-5.59-8.63s-5.59,3.57-5.59,8.63,2.3,8.68,5.59,8.68,5.59-3.62,5.59-8.68Z"/>
        <path class="cls-1" d="m1301.64,421.06l-5.18,3.38-3.43-6.46,10.37-7.43h6.99v33.13h-8.75v-22.61Z"/>
        <path class="cls-1" d="m1314.88,427.09c0-10.03,6.04-17.12,14.6-17.12s14.61,7.09,14.61,17.12-6.05,17.16-14.61,17.16-14.6-7.09-14.6-17.16Zm20.2,0c0-5.06-2.3-8.63-5.59-8.63s-5.59,3.57-5.59,8.63,2.3,8.68,5.59,8.68,5.59-3.62,5.59-8.68Z"/>
        <path class="cls-1" d="m1354.52,421.06l-5.18,3.38-3.43-6.46,10.37-7.43h6.98v33.13h-8.75v-22.61Z"/>
        <path class="cls-1" d="m1367.76,427.09c0-10.03,6.04-17.12,14.6-17.12s14.61,7.09,14.61,17.12-6.05,17.16-14.61,17.16-14.6-7.09-14.6-17.16Zm20.2,0c0-5.06-2.3-8.63-5.59-8.63s-5.59,3.57-5.59,8.63,2.3,8.68,5.59,8.68,5.59-3.62,5.59-8.68Z"/>
        <path class="cls-1" d="m1407.4,421.06l-5.18,3.38-3.43-6.46,10.37-7.43h6.99v33.13h-8.75v-22.61Z"/>
        <path class="cls-1" d="m1420.65,427.09c0-10.03,6.04-17.12,14.6-17.12s14.61,7.09,14.61,17.12-6.05,17.16-14.61,17.16-14.6-7.09-14.6-17.16Zm20.2,0c0-5.06-2.3-8.63-5.59-8.63s-5.59,3.57-5.59,8.63,2.3,8.68,5.59,8.68,5.59-3.62,5.59-8.68Z"/>
        <path class="cls-1" d="m1452.99,427.09c0-10.03,6.04-17.12,14.6-17.12s14.61,7.09,14.61,17.12-6.05,17.16-14.61,17.16-14.6-7.09-14.6-17.16Zm20.2,0c0-5.06-2.3-8.63-5.59-8.63s-5.59,3.57-5.59,8.63,2.3,8.68,5.59,8.68,5.59-3.62,5.59-8.68Z"/>
        <path class="cls-1" d="m1485.33,427.09c0-10.03,6.04-17.12,14.6-17.12s14.61,7.09,14.61,17.12-6.05,17.16-14.61,17.16-14.6-7.09-14.6-17.16Zm20.2,0c0-5.06-2.3-8.63-5.59-8.63s-5.59,3.57-5.59,8.63,2.3,8.68,5.59,8.68,5.59-3.62,5.59-8.68Z"/>
        <path class="cls-1" d="m1524.97,421.06l-5.18,3.38-3.43-6.46,10.37-7.43h6.98v33.13h-8.75v-22.61Z"/>
        <path class="cls-1" d="m1545.51,421.06l-5.18,3.38-3.43-6.46,10.37-7.43h6.98v33.13h-8.75v-22.61Z"/>
        <path class="cls-1" d="m1558.75,427.09c0-10.03,6.04-17.12,14.6-17.12s14.61,7.09,14.61,17.12-6.05,17.16-14.61,17.16-14.6-7.09-14.6-17.16Zm20.2,0c0-5.06-2.3-8.63-5.59-8.63s-5.59,3.57-5.59,8.63,2.3,8.68,5.59,8.68,5.59-3.62,5.59-8.68Z"/>
        <path class="cls-1" d="m1598.39,421.06l-5.18,3.38-3.43-6.46,10.37-7.43h6.99v33.13h-8.75v-22.61Z"/>
        <path class="cls-1" d="m1611.64,427.09c0-10.03,6.04-17.12,14.6-17.12s14.61,7.09,14.61,17.12-6.05,17.16-14.61,17.16-14.6-7.09-14.6-17.16Zm20.2,0c0-5.06-2.3-8.63-5.59-8.63s-5.59,3.57-5.59,8.63,2.3,8.68,5.59,8.68,5.59-3.62,5.59-8.68Z"/>
        <path class="cls-1" d="m1651.28,421.06l-5.18,3.38-3.43-6.46,10.37-7.43h6.98v33.13h-8.75v-22.61Z"/>
        <path class="cls-1" d="m1664.52,427.09c0-10.03,6.04-17.12,14.6-17.12s14.61,7.09,14.61,17.12-6.05,17.16-14.61,17.16-14.6-7.09-14.6-17.16Zm20.2,0c0-5.06-2.3-8.63-5.59-8.63s-5.59,3.57-5.59,8.63,2.3,8.68,5.59,8.68,5.59-3.62,5.59-8.68Z"/>
        <path class="cls-1" d="m1696.86,427.09c0-10.03,6.04-17.12,14.6-17.12s14.61,7.09,14.61,17.12-6.05,17.16-14.61,17.16-14.6-7.09-14.6-17.16Zm20.2,0c0-5.06-2.3-8.63-5.59-8.63s-5.59,3.57-5.59,8.63,2.3,8.68,5.59,8.68,5.59-3.62,5.59-8.68Z"/>
        <path class="cls-1" d="m1736.5,421.06l-5.18,3.38-3.43-6.46,10.37-7.43h6.98v33.13h-8.75v-22.61Z"/>
        <path class="cls-1" d="m1757.04,421.06l-5.18,3.38-3.43-6.46,10.37-7.43h6.98v33.13h-8.75v-22.61Z"/>
        <path class="cls-1" d="m945.09,484.96c0-10.03,6.04-17.12,14.6-17.12s14.61,7.09,14.61,17.12-6.05,17.16-14.61,17.16-14.6-7.09-14.6-17.16Zm20.2,0c0-5.06-2.3-8.63-5.59-8.63s-5.59,3.57-5.59,8.63,2.3,8.68,5.59,8.68,5.59-3.62,5.59-8.68Z"/>
        <path class="cls-1" d="m984.73,478.93l-5.18,3.38-3.43-6.46,10.37-7.43h6.98v33.13h-8.75v-22.61Z"/>
        <path class="cls-1" d="m997.98,484.96c0-10.03,6.04-17.12,14.6-17.12s14.61,7.09,14.61,17.12-6.05,17.16-14.61,17.16-14.6-7.09-14.6-17.16Zm20.2,0c0-5.06-2.3-8.63-5.59-8.63s-5.59,3.57-5.59,8.63,2.3,8.68,5.59,8.68,5.59-3.62,5.59-8.68Z"/>
        <path class="cls-1" d="m1037.62,478.93l-5.18,3.38-3.43-6.46,10.37-7.43h6.99v33.13h-8.75v-22.61Z"/>
        <path class="cls-1" d="m1050.86,484.96c0-10.03,6.04-17.12,14.6-17.12s14.61,7.09,14.61,17.12-6.05,17.16-14.61,17.16-14.6-7.09-14.6-17.16Zm20.2,0c0-5.06-2.3-8.63-5.59-8.63s-5.59,3.57-5.59,8.63,2.3,8.68,5.59,8.68,5.59-3.62,5.59-8.68Z"/>
        <path class="cls-1" d="m1083.2,484.96c0-10.03,6.04-17.12,14.6-17.12s14.61,7.09,14.61,17.12-6.05,17.16-14.61,17.16-14.6-7.09-14.6-17.16Zm20.2,0c0-5.06-2.3-8.63-5.59-8.63s-5.59,3.57-5.59,8.63,2.3,8.68,5.59,8.68,5.59-3.62,5.59-8.68Z"/>
        <path class="cls-1" d="m1122.84,478.93l-5.18,3.38-3.43-6.46,10.37-7.43h6.99v33.13h-8.75v-22.61Z"/>
        <path class="cls-1" d="m1136.08,484.96c0-10.03,6.04-17.12,14.6-17.12s14.61,7.09,14.61,17.12-6.05,17.16-14.61,17.16-14.6-7.09-14.6-17.16Zm20.2,0c0-5.06-2.3-8.63-5.59-8.63s-5.59,3.57-5.59,8.63,2.3,8.68,5.59,8.68,5.59-3.62,5.59-8.68Z"/>
        <path class="cls-1" d="m1175.72,478.93l-5.18,3.38-3.43-6.46,10.37-7.43h6.98v33.13h-8.75v-22.61Z"/>
        <path class="cls-1" d="m1188.97,484.96c0-10.03,6.04-17.12,14.6-17.12s14.61,7.09,14.61,17.12-6.05,17.16-14.61,17.16-14.6-7.09-14.6-17.16Zm20.2,0c0-5.06-2.3-8.63-5.59-8.63s-5.59,3.57-5.59,8.63,2.3,8.68,5.59,8.68,5.59-3.62,5.59-8.68Z"/>
        <path class="cls-1" d="m1228.61,478.93l-5.18,3.38-3.43-6.46,10.37-7.43h6.99v33.13h-8.75v-22.61Z"/>
        <path class="cls-1" d="m1241.85,484.96c0-10.03,6.04-17.12,14.6-17.12s14.61,7.09,14.61,17.12-6.05,17.16-14.61,17.16-14.6-7.09-14.6-17.16Zm20.2,0c0-5.06-2.3-8.63-5.59-8.63s-5.59,3.57-5.59,8.63,2.3,8.68,5.59,8.68,5.59-3.62,5.59-8.68Z"/>
        <path class="cls-1" d="m1274.19,484.96c0-10.03,6.04-17.12,14.6-17.12s14.61,7.09,14.61,17.12-6.05,17.16-14.61,17.16-14.6-7.09-14.6-17.16Zm20.2,0c0-5.06-2.3-8.63-5.59-8.63s-5.59,3.57-5.59,8.63,2.3,8.68,5.59,8.68,5.59-3.62,5.59-8.68Z"/>
        <path class="cls-1" d="m1306.53,484.96c0-10.03,6.04-17.12,14.6-17.12s14.61,7.09,14.61,17.12-6.05,17.16-14.61,17.16-14.6-7.09-14.6-17.16Zm20.2,0c0-5.06-2.3-8.63-5.59-8.63s-5.59,3.57-5.59,8.63,2.3,8.68,5.59,8.68,5.59-3.62,5.59-8.68Z"/>
        <path class="cls-1" d="m1346.17,478.93l-5.18,3.38-3.43-6.46,10.37-7.43h6.98v33.13h-8.75v-22.61Z"/>
        <path class="cls-1" d="m1366.71,478.93l-5.18,3.38-3.43-6.46,10.37-7.43h6.98v33.13h-8.75v-22.61Z"/>
        <path class="cls-1" d="m1379.96,484.96c0-10.03,6.04-17.12,14.6-17.12s14.61,7.09,14.61,17.12-6.05,17.16-14.61,17.16-14.6-7.09-14.6-17.16Zm20.2,0c0-5.06-2.3-8.63-5.59-8.63s-5.59,3.57-5.59,8.63,2.3,8.68,5.59,8.68,5.59-3.62,5.59-8.68Z"/>
        <path class="cls-1" d="m1419.6,478.93l-5.18,3.38-3.43-6.46,10.37-7.43h6.99v33.13h-8.75v-22.61Z"/>
        <path class="cls-1" d="m1432.84,484.96c0-10.03,6.04-17.12,14.6-17.12s14.61,7.09,14.61,17.12-6.05,17.16-14.61,17.16-14.6-7.09-14.6-17.16Zm20.2,0c0-5.06-2.3-8.63-5.59-8.63s-5.59,3.57-5.59,8.63,2.3,8.68,5.59,8.68,5.59-3.62,5.59-8.68Z"/>
        <path class="cls-1" d="m1472.48,478.93l-5.18,3.38-3.43-6.46,10.37-7.43h6.98v33.13h-8.75v-22.61Z"/>
        <path class="cls-1" d="m1485.72,484.96c0-10.03,6.04-17.12,14.6-17.12s14.61,7.09,14.61,17.12-6.05,17.16-14.61,17.16-14.6-7.09-14.6-17.16Zm20.2,0c0-5.06-2.3-8.63-5.59-8.63s-5.59,3.57-5.59,8.63,2.3,8.68,5.59,8.68,5.59-3.62,5.59-8.68Z"/>
        <path class="cls-1" d="m1518.06,484.96c0-10.03,6.04-17.12,14.6-17.12s14.61,7.09,14.61,17.12-6.05,17.16-14.61,17.16-14.6-7.09-14.6-17.16Zm20.2,0c0-5.06-2.3-8.63-5.59-8.63s-5.59,3.57-5.59,8.63,2.3,8.68,5.59,8.68,5.59-3.62,5.59-8.68Z"/>
        <path class="cls-1" d="m1557.71,478.93l-5.18,3.38-3.43-6.46,10.37-7.43h6.98v33.13h-8.75v-22.61Z"/>
        <path class="cls-1" d="m1578.25,478.93l-5.18,3.38-3.43-6.46,10.37-7.43h6.98v33.13h-8.75v-22.61Z"/>
        <path class="cls-1" d="m1591.49,484.96c0-10.03,6.04-17.12,14.6-17.12s14.61,7.09,14.61,17.12-6.05,17.16-14.61,17.16-14.6-7.09-14.6-17.16Zm20.2,0c0-5.06-2.3-8.63-5.59-8.63s-5.59,3.57-5.59,8.63,2.3,8.68,5.59,8.68,5.59-3.62,5.59-8.68Z"/>
        <path class="cls-1" d="m1631.13,478.93l-5.18,3.38-3.43-6.46,10.37-7.43h6.99v33.13h-8.75v-22.61Z"/>
        <path class="cls-1" d="m1644.37,484.96c0-10.03,6.04-17.12,14.6-17.12s14.61,7.09,14.61,17.12-6.05,17.16-14.61,17.16-14.6-7.09-14.6-17.16Zm20.2,0c0-5.06-2.3-8.63-5.59-8.63s-5.59,3.57-5.59,8.63,2.3,8.68,5.59,8.68,5.59-3.62,5.59-8.68Z"/>
        <path class="cls-1" d="m1684.01,478.93l-5.18,3.38-3.43-6.46,10.37-7.43h6.98v33.13h-8.75v-22.61Z"/>
        <path class="cls-1" d="m1697.26,484.96c0-10.03,6.04-17.12,14.6-17.12s14.61,7.09,14.61,17.12-6.05,17.16-14.61,17.16-14.6-7.09-14.6-17.16Zm20.2,0c0-5.06-2.3-8.63-5.59-8.63s-5.59,3.57-5.59,8.63,2.3,8.68,5.59,8.68,5.59-3.62,5.59-8.68Z"/>
        <path class="cls-1" d="m1729.6,484.96c0-10.03,6.04-17.12,14.6-17.12s14.61,7.09,14.61,17.12-6.05,17.16-14.61,17.16-14.6-7.09-14.6-17.16Zm20.2,0c0-5.06-2.3-8.63-5.59-8.63s-5.59,3.57-5.59,8.63,2.3,8.68,5.59,8.68,5.59-3.62,5.59-8.68Z"/>
        <path class="cls-1" d="m1769.24,478.93l-5.18,3.38-3.43-6.46,10.37-7.43h6.98v33.13h-8.75v-22.61Z"/>
        <path class="cls-1" d="m1782.48,484.96c0-10.03,6.04-17.12,14.6-17.12s14.61,7.09,14.61,17.12-6.05,17.16-14.61,17.16-14.6-7.09-14.6-17.16Zm20.2,0c0-5.06-2.3-8.63-5.59-8.63s-5.59,3.57-5.59,8.63,2.3,8.68,5.59,8.68,5.59-3.62,5.59-8.68Z"/>
        <path class="cls-1" d="m1822.12,478.93l-5.18,3.38-3.43-6.46,10.37-7.43h6.99v33.13h-8.75v-22.61Z"/>
        <path class="cls-1" d="m945.49,542.82c0-10.03,6.04-17.12,14.6-17.12s14.61,7.09,14.61,17.12-6.05,17.16-14.61,17.16-14.6-7.09-14.6-17.16Zm20.2,0c0-5.06-2.3-8.63-5.59-8.63s-5.59,3.57-5.59,8.63,2.3,8.68,5.59,8.68,5.59-3.62,5.59-8.68Z"/>
        <path class="cls-1" d="m985.13,536.79l-5.18,3.38-3.43-6.46,10.37-7.43h6.99v33.13h-8.75v-22.61Z"/>
        <path class="cls-1" d="m998.37,542.82c0-10.03,6.04-17.12,14.6-17.12s14.61,7.09,14.61,17.12-6.05,17.16-14.61,17.16-14.6-7.09-14.6-17.16Zm20.2,0c0-5.06-2.3-8.63-5.59-8.63s-5.59,3.57-5.59,8.63,2.3,8.68,5.59,8.68,5.59-3.62,5.59-8.68Z"/>
        <path class="cls-1" d="m1030.71,542.82c0-10.03,6.04-17.12,14.6-17.12s14.61,7.09,14.61,17.12-6.05,17.16-14.61,17.16-14.6-7.09-14.6-17.16Zm20.2,0c0-5.06-2.3-8.63-5.59-8.63s-5.59,3.57-5.59,8.63,2.3,8.68,5.59,8.68,5.59-3.62,5.59-8.68Z"/>
        <path class="cls-1" d="m1063.05,542.82c0-10.03,6.04-17.12,14.6-17.12s14.61,7.09,14.61,17.12-6.05,17.16-14.61,17.16-14.6-7.09-14.6-17.16Zm20.2,0c0-5.06-2.3-8.63-5.59-8.63s-5.59,3.57-5.59,8.63,2.3,8.68,5.59,8.68,5.59-3.62,5.59-8.68Z"/>
        <path class="cls-1" d="m1102.69,536.79l-5.18,3.38-3.43-6.46,10.37-7.43h6.98v33.13h-8.75v-22.61Z"/>
        <path class="cls-1" d="m1123.24,536.79l-5.18,3.38-3.43-6.46,10.37-7.43h6.98v33.13h-8.75v-22.61Z"/>
        <path class="cls-1" d="m1136.48,542.82c0-10.03,6.04-17.12,14.6-17.12s14.61,7.09,14.61,17.12-6.05,17.16-14.61,17.16-14.6-7.09-14.6-17.16Zm20.2,0c0-5.06-2.3-8.63-5.59-8.63s-5.59,3.57-5.59,8.63,2.3,8.68,5.59,8.68,5.59-3.62,5.59-8.68Z"/>
        <path class="cls-1" d="m1176.12,536.79l-5.18,3.38-3.43-6.46,10.37-7.43h6.99v33.13h-8.75v-22.61Z"/>
        <path class="cls-1" d="m1189.36,542.82c0-10.03,6.04-17.12,14.6-17.12s14.61,7.09,14.61,17.12-6.05,17.16-14.61,17.16-14.6-7.09-14.6-17.16Zm20.2,0c0-5.06-2.3-8.63-5.59-8.63s-5.59,3.57-5.59,8.63,2.3,8.68,5.59,8.68,5.59-3.62,5.59-8.68Z"/>
        <path class="cls-1" d="m1229,536.79l-5.18,3.38-3.43-6.46,10.37-7.43h6.98v33.13h-8.75v-22.61Z"/>
        <path class="cls-1" d="m1242.24,542.82c0-10.03,6.04-17.12,14.6-17.12s14.61,7.09,14.61,17.12-6.05,17.16-14.61,17.16-14.6-7.09-14.6-17.16Zm20.2,0c0-5.06-2.3-8.63-5.59-8.63s-5.59,3.57-5.59,8.63,2.3,8.68,5.59,8.68,5.59-3.62,5.59-8.68Z"/>
        <path class="cls-1" d="m1274.59,542.82c0-10.03,6.04-17.12,14.6-17.12s14.61,7.09,14.61,17.12-6.05,17.16-14.61,17.16-14.6-7.09-14.6-17.16Zm20.2,0c0-5.06-2.3-8.63-5.59-8.63s-5.59,3.57-5.59,8.63,2.3,8.68,5.59,8.68,5.59-3.62,5.59-8.68Z"/>
        <path class="cls-1" d="m1314.23,536.79l-5.18,3.38-3.43-6.46,10.37-7.43h6.98v33.13h-8.75v-22.61Z"/>
        <path class="cls-1" d="m1334.77,536.79l-5.18,3.38-3.43-6.46,10.37-7.43h6.98v33.13h-8.75v-22.61Z"/>
        <path class="cls-1" d="m1348.01,542.82c0-10.03,6.04-17.12,14.6-17.12s14.61,7.09,14.61,17.12-6.05,17.16-14.61,17.16-14.6-7.09-14.6-17.16Zm20.2,0c0-5.06-2.3-8.63-5.59-8.63s-5.59,3.57-5.59,8.63,2.3,8.68,5.59,8.68,5.59-3.62,5.59-8.68Z"/>
        <path class="cls-1" d="m1387.65,536.79l-5.18,3.38-3.43-6.46,10.37-7.43h6.99v33.13h-8.75v-22.61Z"/>
        <path class="cls-1" d="m1400.89,542.82c0-10.03,6.04-17.12,14.6-17.12s14.61,7.09,14.61,17.12-6.05,17.16-14.61,17.16-14.6-7.09-14.6-17.16Zm20.2,0c0-5.06-2.3-8.63-5.59-8.63s-5.59,3.57-5.59,8.63,2.3,8.68,5.59,8.68,5.59-3.62,5.59-8.68Z"/>
        <path class="cls-1" d="m1440.53,536.79l-5.18,3.38-3.43-6.46,10.37-7.43h6.98v33.13h-8.75v-22.61Z"/>
        <path class="cls-1" d="m1453.78,542.82c0-10.03,6.04-17.12,14.6-17.12s14.61,7.09,14.61,17.12-6.05,17.16-14.61,17.16-14.6-7.09-14.6-17.16Zm20.2,0c0-5.06-2.3-8.63-5.59-8.63s-5.59,3.57-5.59,8.63,2.3,8.68,5.59,8.68,5.59-3.62,5.59-8.68Z"/>
        <path class="cls-1" d="m1486.12,542.82c0-10.03,6.04-17.12,14.6-17.12s14.61,7.09,14.61,17.12-6.05,17.16-14.61,17.16-14.6-7.09-14.6-17.16Zm20.2,0c0-5.06-2.3-8.63-5.59-8.63s-5.59,3.57-5.59,8.63,2.3,8.68,5.59,8.68,5.59-3.62,5.59-8.68Z"/>
        <path class="cls-1" d="m1525.76,536.79l-5.18,3.38-3.43-6.46,10.37-7.43h6.98v33.13h-8.75v-22.61Z"/>
        <path class="cls-1" d="m1539,542.82c0-10.03,6.04-17.12,14.6-17.12s14.61,7.09,14.61,17.12-6.05,17.16-14.61,17.16-14.6-7.09-14.6-17.16Zm20.2,0c0-5.06-2.3-8.63-5.59-8.63s-5.59,3.57-5.59,8.63,2.3,8.68,5.59,8.68,5.59-3.62,5.59-8.68Z"/>
        <path class="cls-1" d="m1578.64,536.79l-5.18,3.38-3.43-6.46,10.37-7.43h6.99v33.13h-8.75v-22.61Z"/>
        <path class="cls-1" d="m1591.88,542.82c0-10.03,6.04-17.12,14.6-17.12s14.61,7.09,14.61,17.12-6.05,17.16-14.61,17.16-14.6-7.09-14.6-17.16Zm20.2,0c0-5.06-2.3-8.63-5.59-8.63s-5.59,3.57-5.59,8.63,2.3,8.68,5.59,8.68,5.59-3.62,5.59-8.68Z"/>
        <path class="cls-1" d="m1631.53,536.79l-5.18,3.38-3.43-6.46,10.37-7.43h6.98v33.13h-8.75v-22.61Z"/>
        <path class="cls-1" d="m1644.77,542.82c0-10.03,6.04-17.12,14.6-17.12s14.61,7.09,14.61,17.12-6.05,17.16-14.61,17.16-14.6-7.09-14.6-17.16Zm20.2,0c0-5.06-2.3-8.63-5.59-8.63s-5.59,3.57-5.59,8.63,2.3,8.68,5.59,8.68,5.59-3.62,5.59-8.68Z"/>
        <path class="cls-1" d="m1677.11,542.82c0-10.03,6.04-17.12,14.6-17.12s14.61,7.09,14.61,17.12-6.05,17.16-14.61,17.16-14.6-7.09-14.6-17.16Zm20.2,0c0-5.06-2.3-8.63-5.59-8.63s-5.59,3.57-5.59,8.63,2.3,8.68,5.59,8.68,5.59-3.62,5.59-8.68Z"/>
        <path class="cls-1" d="m1709.45,542.82c0-10.03,6.04-17.12,14.6-17.12s14.61,7.09,14.61,17.12-6.05,17.16-14.61,17.16-14.6-7.09-14.6-17.16Zm20.2,0c0-5.06-2.3-8.63-5.59-8.63s-5.59,3.57-5.59,8.63,2.3,8.68,5.59,8.68,5.59-3.62,5.59-8.68Z"/>
        <path class="cls-1" d="m1749.09,536.79l-5.18,3.38-3.43-6.46,10.37-7.43h6.99v33.13h-8.75v-22.61Z"/>
        <path class="cls-1" d="m1769.63,536.79l-5.18,3.38-3.43-6.46,10.37-7.43h6.99v33.13h-8.75v-22.61Z"/>
        <path class="cls-1" d="m945.88,600.68c0-10.03,6.04-17.12,14.6-17.12s14.61,7.09,14.61,17.12-6.05,17.16-14.61,17.16-14.6-7.09-14.6-17.16Zm20.2,0c0-5.06-2.3-8.63-5.59-8.63s-5.59,3.57-5.59,8.63,2.3,8.68,5.59,8.68,5.59-3.62,5.59-8.68Z"/>
        <path class="cls-1" d="m985.52,594.66l-5.18,3.38-3.43-6.46,10.37-7.43h6.98v33.13h-8.75v-22.61Z"/>
        <path class="cls-1" d="m998.77,600.68c0-10.03,6.04-17.12,14.6-17.12s14.61,7.09,14.61,17.12-6.05,17.16-14.61,17.16-14.6-7.09-14.6-17.16Zm20.2,0c0-5.06-2.3-8.63-5.59-8.63s-5.59,3.57-5.59,8.63,2.3,8.68,5.59,8.68,5.59-3.62,5.59-8.68Z"/>
        <path class="cls-1" d="m1038.41,594.66l-5.18,3.38-3.43-6.46,10.37-7.43h6.99v33.13h-8.75v-22.61Z"/>
        <path class="cls-1" d="m1051.65,600.68c0-10.03,6.04-17.12,14.6-17.12s14.61,7.09,14.61,17.12-6.05,17.16-14.61,17.16-14.6-7.09-14.6-17.16Zm20.2,0c0-5.06-2.3-8.63-5.59-8.63s-5.59,3.57-5.59,8.63,2.3,8.68,5.59,8.68,5.59-3.62,5.59-8.68Z"/>
        <path class="cls-1" d="m1083.99,600.68c0-10.03,6.04-17.12,14.6-17.12s14.61,7.09,14.61,17.12-6.05,17.16-14.61,17.16-14.6-7.09-14.6-17.16Zm20.2,0c0-5.06-2.3-8.63-5.59-8.63s-5.59,3.57-5.59,8.63,2.3,8.68,5.59,8.68,5.59-3.62,5.59-8.68Z"/>
        <path class="cls-1" d="m1123.63,594.66l-5.18,3.38-3.43-6.46,10.37-7.43h6.99v33.13h-8.75v-22.61Z"/>
        <path class="cls-1" d="m1144.17,594.66l-5.18,3.38-3.43-6.46,10.37-7.43h6.99v33.13h-8.75v-22.61Z"/>
        <path class="cls-1" d="m1157.42,600.68c0-10.03,6.04-17.12,14.6-17.12s14.61,7.09,14.61,17.12-6.05,17.16-14.61,17.16-14.6-7.09-14.6-17.16Zm20.2,0c0-5.06-2.3-8.63-5.59-8.63s-5.59,3.57-5.59,8.63,2.3,8.68,5.59,8.68,5.59-3.62,5.59-8.68Z"/>
        <path class="cls-1" d="m1197.06,594.66l-5.18,3.38-3.43-6.46,10.37-7.43h6.98v33.13h-8.75v-22.61Z"/>
        <path class="cls-1" d="m1210.3,600.68c0-10.03,6.04-17.12,14.6-17.12s14.61,7.09,14.61,17.12-6.05,17.16-14.61,17.16-14.6-7.09-14.6-17.16Zm20.2,0c0-5.06-2.3-8.63-5.59-8.63s-5.59,3.57-5.59,8.63,2.3,8.68,5.59,8.68,5.59-3.62,5.59-8.68Z"/>
        <path class="cls-1" d="m1249.94,594.66l-5.18,3.38-3.43-6.46,10.37-7.43h6.99v33.13h-8.75v-22.61Z"/>
        <path class="cls-1" d="m1263.18,600.68c0-10.03,6.04-17.12,14.6-17.12s14.61,7.09,14.61,17.12-6.05,17.16-14.61,17.16-14.6-7.09-14.6-17.16Zm20.2,0c0-5.06-2.3-8.63-5.59-8.63s-5.59,3.57-5.59,8.63,2.3,8.68,5.59,8.68,5.59-3.62,5.59-8.68Z"/>
        <path class="cls-1" d="m1295.52,600.68c0-10.03,6.04-17.12,14.6-17.12s14.61,7.09,14.61,17.12-6.05,17.16-14.61,17.16-14.6-7.09-14.6-17.16Zm20.2,0c0-5.06-2.3-8.63-5.59-8.63s-5.59,3.57-5.59,8.63,2.3,8.68,5.59,8.68,5.59-3.62,5.59-8.68Z"/>
        <path class="cls-1" d="m1335.16,594.66l-5.18,3.38-3.43-6.46,10.37-7.43h6.99v33.13h-8.75v-22.61Z"/>
        <path class="cls-1" d="m1348.41,600.68c0-10.03,6.04-17.12,14.6-17.12s14.61,7.09,14.61,17.12-6.05,17.16-14.61,17.16-14.6-7.09-14.6-17.16Zm20.2,0c0-5.06-2.3-8.63-5.59-8.63s-5.59,3.57-5.59,8.63,2.3,8.68,5.59,8.68,5.59-3.62,5.59-8.68Z"/>
        <path class="cls-1" d="m1388.05,594.66l-5.18,3.38-3.43-6.46,10.37-7.43h6.98v33.13h-8.75v-22.61Z"/>
        <path class="cls-1" d="m1401.29,600.68c0-10.03,6.04-17.12,14.6-17.12s14.61,7.09,14.61,17.12-6.05,17.16-14.61,17.16-14.6-7.09-14.6-17.16Zm20.2,0c0-5.06-2.3-8.63-5.59-8.63s-5.59,3.57-5.59,8.63,2.3,8.68,5.59,8.68,5.59-3.62,5.59-8.68Z"/>
        <path class="cls-1" d="m1440.93,594.66l-5.18,3.38-3.43-6.46,10.37-7.43h6.99v33.13h-8.75v-22.61Z"/>
        <path class="cls-1" d="m1454.17,600.68c0-10.03,6.04-17.12,14.6-17.12s14.61,7.09,14.61,17.12-6.05,17.16-14.61,17.16-14.6-7.09-14.6-17.16Zm20.2,0c0-5.06-2.3-8.63-5.59-8.63s-5.59,3.57-5.59,8.63,2.3,8.68,5.59,8.68,5.59-3.62,5.59-8.68Z"/>
        <path class="cls-1" d="m1486.51,600.68c0-10.03,6.04-17.12,14.6-17.12s14.61,7.09,14.61,17.12-6.05,17.16-14.61,17.16-14.6-7.09-14.6-17.16Zm20.2,0c0-5.06-2.3-8.63-5.59-8.63s-5.59,3.57-5.59,8.63,2.3,8.68,5.59,8.68,5.59-3.62,5.59-8.68Z"/>
        <path class="cls-1" d="m1518.85,600.68c0-10.03,6.04-17.12,14.6-17.12s14.61,7.09,14.61,17.12-6.05,17.16-14.61,17.16-14.6-7.09-14.6-17.16Zm20.2,0c0-5.06-2.3-8.63-5.59-8.63s-5.59,3.57-5.59,8.63,2.3,8.68,5.59,8.68,5.59-3.62,5.59-8.68Z"/>
        <path class="cls-1" d="m1558.5,594.66l-5.18,3.38-3.43-6.46,10.37-7.43h6.98v33.13h-8.75v-22.61Z"/>
        <path class="cls-1" d="m1579.04,594.66l-5.18,3.38-3.43-6.46,10.37-7.43h6.98v33.13h-8.75v-22.61Z"/>
        <path class="cls-1" d="m1592.28,600.68c0-10.03,6.04-17.12,14.6-17.12s14.61,7.09,14.61,17.12-6.05,17.16-14.61,17.16-14.6-7.09-14.6-17.16Zm20.2,0c0-5.06-2.3-8.63-5.59-8.63s-5.59,3.57-5.59,8.63,2.3,8.68,5.59,8.68,5.59-3.62,5.59-8.68Z"/>
        <path class="cls-1" d="m1631.92,594.66l-5.18,3.38-3.43-6.46,10.37-7.43h6.99v33.13h-8.75v-22.61Z"/>
        <path class="cls-1" d="m1645.16,600.68c0-10.03,6.04-17.12,14.6-17.12s14.61,7.09,14.61,17.12-6.05,17.16-14.61,17.16-14.6-7.09-14.6-17.16Zm20.2,0c0-5.06-2.3-8.63-5.59-8.63s-5.59,3.57-5.59,8.63,2.3,8.68,5.59,8.68,5.59-3.62,5.59-8.68Z"/>
        <path class="cls-1" d="m1684.8,594.66l-5.18,3.38-3.43-6.46,10.37-7.43h6.98v33.13h-8.75v-22.61Z"/>
        <path class="cls-1" d="m1698.05,600.68c0-10.03,6.04-17.12,14.6-17.12s14.61,7.09,14.61,17.12-6.05,17.16-14.61,17.16-14.6-7.09-14.6-17.16Zm20.2,0c0-5.06-2.3-8.63-5.59-8.63s-5.59,3.57-5.59,8.63,2.3,8.68,5.59,8.68,5.59-3.62,5.59-8.68Z"/>
        <path class="cls-1" d="m946.28,658.55c0-10.03,6.04-17.12,14.6-17.12s14.61,7.09,14.61,17.12-6.05,17.16-14.61,17.16-14.6-7.09-14.6-17.16Zm20.2,0c0-5.06-2.3-8.63-5.59-8.63s-5.59,3.57-5.59,8.63,2.3,8.68,5.59,8.68,5.59-3.62,5.59-8.68Z"/>
        <path class="cls-1" d="m985.92,652.52l-5.18,3.38-3.43-6.46,10.37-7.43h6.99v33.13h-8.75v-22.61Z"/>
        <path class="cls-1" d="m1006.46,652.52l-5.18,3.38-3.43-6.46,10.37-7.43h6.99v33.13h-8.75v-22.61Z"/>
        <path class="cls-1" d="m1019.7,658.55c0-10.03,6.04-17.12,14.6-17.12s14.61,7.09,14.61,17.12-6.05,17.16-14.61,17.16-14.6-7.09-14.6-17.16Zm20.2,0c0-5.06-2.3-8.63-5.59-8.63s-5.59,3.57-5.59,8.63,2.3,8.68,5.59,8.68,5.59-3.62,5.59-8.68Z"/>
        <path class="cls-1" d="m1059.34,652.52l-5.18,3.38-3.43-6.46,10.37-7.43h6.98v33.13h-8.75v-22.61Z"/>
        <path class="cls-1" d="m1072.59,658.55c0-10.03,6.04-17.12,14.6-17.12s14.61,7.09,14.61,17.12-6.05,17.16-14.61,17.16-14.6-7.09-14.6-17.16Zm20.2,0c0-5.06-2.3-8.63-5.59-8.63s-5.59,3.57-5.59,8.63,2.3,8.68,5.59,8.68,5.59-3.62,5.59-8.68Z"/>
        <path class="cls-1" d="m1112.23,652.52l-5.18,3.38-3.43-6.46,10.37-7.43h6.99v33.13h-8.75v-22.61Z"/>
        <path class="cls-1" d="m1125.47,658.55c0-10.03,6.04-17.12,14.6-17.12s14.61,7.09,14.61,17.12-6.05,17.16-14.61,17.16-14.6-7.09-14.6-17.16Zm20.2,0c0-5.06-2.3-8.63-5.59-8.63s-5.59,3.57-5.59,8.63,2.3,8.68,5.59,8.68,5.59-3.62,5.59-8.68Z"/>
        <path class="cls-1" d="m1157.81,658.55c0-10.03,6.04-17.12,14.6-17.12s14.61,7.09,14.61,17.12-6.05,17.16-14.61,17.16-14.6-7.09-14.6-17.16Zm20.2,0c0-5.06-2.3-8.63-5.59-8.63s-5.59,3.57-5.59,8.63,2.3,8.68,5.59,8.68,5.59-3.62,5.59-8.68Z"/>
        <path class="cls-1" d="m1197.45,652.52l-5.18,3.38-3.43-6.46,10.37-7.43h6.99v33.13h-8.75v-22.61Z"/>
        <path class="cls-1" d="m1210.69,658.55c0-10.03,6.04-17.12,14.6-17.12s14.61,7.09,14.61,17.12-6.05,17.16-14.61,17.16-14.6-7.09-14.6-17.16Zm20.2,0c0-5.06-2.3-8.63-5.59-8.63s-5.59,3.57-5.59,8.63,2.3,8.68,5.59,8.68,5.59-3.62,5.59-8.68Z"/>
        <path class="cls-1" d="m1250.33,652.52l-5.18,3.38-3.43-6.46,10.37-7.43h6.98v33.13h-8.75v-22.61Z"/>
        <path class="cls-1" d="m1263.58,658.55c0-10.03,6.04-17.12,14.6-17.12s14.61,7.09,14.61,17.12-6.05,17.16-14.61,17.16-14.6-7.09-14.6-17.16Zm20.2,0c0-5.06-2.3-8.63-5.59-8.63s-5.59,3.57-5.59,8.63,2.3,8.68,5.59,8.68,5.59-3.62,5.59-8.68Z"/>
        <path class="cls-1" d="m1303.22,652.52l-5.18,3.38-3.43-6.46,10.37-7.43h6.99v33.13h-8.75v-22.61Z"/>
        <path class="cls-1" d="m1316.46,658.55c0-10.03,6.04-17.12,14.6-17.12s14.61,7.09,14.61,17.12-6.05,17.16-14.61,17.16-14.6-7.09-14.6-17.16Zm20.2,0c0-5.06-2.3-8.63-5.59-8.63s-5.59,3.57-5.59,8.63,2.3,8.68,5.59,8.68,5.59-3.62,5.59-8.68Z"/>
        <path class="cls-1" d="m1348.8,658.55c0-10.03,6.04-17.12,14.6-17.12s14.61,7.09,14.61,17.12-6.05,17.16-14.61,17.16-14.6-7.09-14.6-17.16Zm20.2,0c0-5.06-2.3-8.63-5.59-8.63s-5.59,3.57-5.59,8.63,2.3,8.68,5.59,8.68,5.59-3.62,5.59-8.68Z"/>
        <path class="cls-1" d="m1381.14,658.55c0-10.03,6.04-17.12,14.6-17.12s14.61,7.09,14.61,17.12-6.05,17.16-14.61,17.16-14.6-7.09-14.6-17.16Zm20.2,0c0-5.06-2.3-8.63-5.59-8.63s-5.59,3.57-5.59,8.63,2.3,8.68,5.59,8.68,5.59-3.62,5.59-8.68Z"/>
        <path class="cls-1" d="m1420.78,652.52l-5.18,3.38-3.43-6.46,10.37-7.43h6.98v33.13h-8.75v-22.61Z"/>
        <path class="cls-1" d="m1441.32,652.52l-5.18,3.38-3.43-6.46,10.37-7.43h6.98v33.13h-8.75v-22.61Z"/>
        <path class="cls-1" d="m1454.57,658.55c0-10.03,6.04-17.12,14.6-17.12s14.61,7.09,14.61,17.12-6.05,17.16-14.61,17.16-14.6-7.09-14.6-17.16Zm20.2,0c0-5.06-2.3-8.63-5.59-8.63s-5.59,3.57-5.59,8.63,2.3,8.68,5.59,8.68,5.59-3.62,5.59-8.68Z"/>
        <path class="cls-1" d="m1494.21,652.52l-5.18,3.38-3.43-6.46,10.37-7.43h6.99v33.13h-8.75v-22.61Z"/>
        <path class="cls-1" d="m1507.45,658.55c0-10.03,6.04-17.12,14.6-17.12s14.61,7.09,14.61,17.12-6.05,17.16-14.61,17.16-14.6-7.09-14.6-17.16Zm20.2,0c0-5.06-2.3-8.63-5.59-8.63s-5.59,3.57-5.59,8.63,2.3,8.68,5.59,8.68,5.59-3.62,5.59-8.68Z"/>
        <path class="cls-1" d="m1547.09,652.52l-5.18,3.38-3.43-6.46,10.37-7.43h6.98v33.13h-8.75v-22.61Z"/>
        <path class="cls-1" d="m1560.33,658.55c0-10.03,6.04-17.12,14.6-17.12s14.61,7.09,14.61,17.12-6.05,17.16-14.61,17.16-14.6-7.09-14.6-17.16Zm20.2,0c0-5.06-2.3-8.63-5.59-8.63s-5.59,3.57-5.59,8.63,2.3,8.68,5.59,8.68,5.59-3.62,5.59-8.68Z"/>
        <path class="cls-1" d="m1592.67,658.55c0-10.03,6.04-17.12,14.6-17.12s14.61,7.09,14.61,17.12-6.05,17.16-14.61,17.16-14.6-7.09-14.6-17.16Zm20.2,0c0-5.06-2.3-8.63-5.59-8.63s-5.59,3.57-5.59,8.63,2.3,8.68,5.59,8.68,5.59-3.62,5.59-8.68Z"/>
        <path class="cls-1" d="m1632.32,652.52l-5.18,3.38-3.43-6.46,10.37-7.43h6.98v33.13h-8.75v-22.61Z"/>
        <path class="cls-1" d="m1652.86,652.52l-5.18,3.38-3.43-6.46,10.37-7.43h6.98v33.13h-8.75v-22.61Z"/>
        <path class="cls-1" d="m946.67,716.41c0-10.03,6.04-17.12,14.6-17.12s14.61,7.09,14.61,17.12-6.05,17.16-14.61,17.16-14.6-7.09-14.6-17.16Zm20.2,0c0-5.06-2.3-8.63-5.59-8.63s-5.59,3.57-5.59,8.63,2.3,8.68,5.59,8.68,5.59-3.62,5.59-8.68Z"/>
        <path class="cls-1" d="m986.31,710.38l-5.18,3.38-3.43-6.46,10.37-7.43h6.98v33.13h-8.75v-22.61Z"/>
        <path class="cls-1" d="m999.56,716.41c0-10.03,6.04-17.12,14.6-17.12s14.61,7.09,14.61,17.12-6.05,17.16-14.61,17.16-14.6-7.09-14.6-17.16Zm20.2,0c0-5.06-2.3-8.63-5.59-8.63s-5.59,3.57-5.59,8.63,2.3,8.68,5.59,8.68,5.59-3.62,5.59-8.68Z"/>
        <path class="cls-1" d="m1039.2,710.38l-5.18,3.38-3.43-6.46,10.37-7.43h6.99v33.13h-8.75v-22.61Z"/>
        <path class="cls-1" d="m1052.44,716.41c0-10.03,6.04-17.12,14.6-17.12s14.61,7.09,14.61,17.12-6.05,17.16-14.61,17.16-14.6-7.09-14.6-17.16Zm20.2,0c0-5.06-2.3-8.63-5.59-8.63s-5.59,3.57-5.59,8.63,2.3,8.68,5.59,8.68,5.59-3.62,5.59-8.68Z"/>
        <path class="cls-1" d="m1084.78,716.41c0-10.03,6.04-17.12,14.6-17.12s14.61,7.09,14.61,17.12-6.05,17.16-14.61,17.16-14.6-7.09-14.6-17.16Zm20.2,0c0-5.06-2.3-8.63-5.59-8.63s-5.59,3.57-5.59,8.63,2.3,8.68,5.59,8.68,5.59-3.62,5.59-8.68Z"/>
        <path class="cls-1" d="m1124.42,710.38l-5.18,3.38-3.43-6.46,10.37-7.43h6.99v33.13h-8.75v-22.61Z"/>
        <path class="cls-1" d="m1137.66,716.41c0-10.03,6.04-17.12,14.6-17.12s14.61,7.09,14.61,17.12-6.05,17.16-14.61,17.16-14.6-7.09-14.6-17.16Zm20.2,0c0-5.06-2.3-8.63-5.59-8.63s-5.59,3.57-5.59,8.63,2.3,8.68,5.59,8.68,5.59-3.62,5.59-8.68Z"/>
        <path class="cls-1" d="m1177.3,710.38l-5.18,3.38-3.43-6.46,10.37-7.43h6.98v33.13h-8.75v-22.61Z"/>
        <path class="cls-1" d="m1190.55,716.41c0-10.03,6.04-17.12,14.6-17.12s14.61,7.09,14.61,17.12-6.05,17.16-14.61,17.16-14.6-7.09-14.6-17.16Zm20.2,0c0-5.06-2.3-8.63-5.59-8.63s-5.59,3.57-5.59,8.63,2.3,8.68,5.59,8.68,5.59-3.62,5.59-8.68Z"/>
        <path class="cls-1" d="m1230.19,710.38l-5.18,3.38-3.43-6.46,10.37-7.43h6.99v33.13h-8.75v-22.61Z"/>
        <path class="cls-1" d="m1243.43,716.41c0-10.03,6.04-17.12,14.6-17.12s14.61,7.09,14.61,17.12-6.05,17.16-14.61,17.16-14.6-7.09-14.6-17.16Zm20.2,0c0-5.06-2.3-8.63-5.59-8.63s-5.59,3.57-5.59,8.63,2.3,8.68,5.59,8.68,5.59-3.62,5.59-8.68Z"/>
        <path class="cls-1" d="m1275.77,716.41c0-10.03,6.04-17.12,14.6-17.12s14.61,7.09,14.61,17.12-6.05,17.16-14.61,17.16-14.6-7.09-14.6-17.16Zm20.2,0c0-5.06-2.3-8.63-5.59-8.63s-5.59,3.57-5.59,8.63,2.3,8.68,5.59,8.68,5.59-3.62,5.59-8.68Z"/>
        <path class="cls-1" d="m1308.11,716.41c0-10.03,6.04-17.12,14.6-17.12s14.61,7.09,14.61,17.12-6.05,17.16-14.61,17.16-14.6-7.09-14.6-17.16Zm20.2,0c0-5.06-2.3-8.63-5.59-8.63s-5.59,3.57-5.59,8.63,2.3,8.68,5.59,8.68,5.59-3.62,5.59-8.68Z"/>
        <path class="cls-1" d="m1347.75,710.38l-5.18,3.38-3.43-6.46,10.37-7.43h6.98v33.13h-8.75v-22.61Z"/>
        <path class="cls-1" d="m1368.3,710.38l-5.18,3.38-3.43-6.46,10.37-7.43h6.98v33.13h-8.75v-22.61Z"/>
        <path class="cls-1" d="m1381.54,716.41c0-10.03,6.04-17.12,14.6-17.12s14.61,7.09,14.61,17.12-6.05,17.16-14.61,17.16-14.6-7.09-14.6-17.16Zm20.2,0c0-5.06-2.3-8.63-5.59-8.63s-5.59,3.57-5.59,8.63,2.3,8.68,5.59,8.68,5.59-3.62,5.59-8.68Z"/>
        <path class="cls-1" d="m1421.18,710.38l-5.18,3.38-3.43-6.46,10.37-7.43h6.99v33.13h-8.75v-22.61Z"/>
        <path class="cls-1" d="m1434.42,716.41c0-10.03,6.04-17.12,14.6-17.12s14.61,7.09,14.61,17.12-6.05,17.16-14.61,17.16-14.6-7.09-14.6-17.16Zm20.2,0c0-5.06-2.3-8.63-5.59-8.63s-5.59,3.57-5.59,8.63,2.3,8.68,5.59,8.68,5.59-3.62,5.59-8.68Z"/>
        <path class="cls-1" d="m1474.06,710.38l-5.18,3.38-3.43-6.46,10.37-7.43h6.98v33.13h-8.75v-22.61Z"/>
        <path class="cls-1" d="m1487.3,716.41c0-10.03,6.04-17.12,14.6-17.12s14.61,7.09,14.61,17.12-6.05,17.16-14.61,17.16-14.6-7.09-14.6-17.16Zm20.2,0c0-5.06-2.3-8.63-5.59-8.63s-5.59,3.57-5.59,8.63,2.3,8.68,5.59,8.68,5.59-3.62,5.59-8.68Z"/>
        <path class="cls-1" d="m1519.64,716.41c0-10.03,6.04-17.12,14.6-17.12s14.61,7.09,14.61,17.12-6.05,17.16-14.61,17.16-14.6-7.09-14.6-17.16Zm20.2,0c0-5.06-2.3-8.63-5.59-8.63s-5.59,3.57-5.59,8.63,2.3,8.68,5.59,8.68,5.59-3.62,5.59-8.68Z"/>
        <path class="cls-1" d="m1559.29,710.38l-5.18,3.38-3.43-6.46,10.37-7.43h6.98v33.13h-8.75v-22.61Z"/>
        <path class="cls-1" d="m1579.83,710.38l-5.18,3.38-3.43-6.46,10.37-7.43h6.98v33.13h-8.75v-22.61Z"/>
        <path class="cls-1" d="m1593.07,716.41c0-10.03,6.04-17.12,14.6-17.12s14.61,7.09,14.61,17.12-6.05,17.16-14.61,17.16-14.6-7.09-14.6-17.16Zm20.2,0c0-5.06-2.3-8.63-5.59-8.63s-5.59,3.57-5.59,8.63,2.3,8.68,5.59,8.68,5.59-3.62,5.59-8.68Z"/>
        <path class="cls-1" d="m954.37,768.25l-5.18,3.38-3.43-6.46,10.37-7.43h6.98v33.13h-8.75v-22.61Z"/>
        <path class="cls-1" d="m967.61,774.28c0-10.03,6.04-17.12,14.6-17.12s14.61,7.09,14.61,17.12-6.05,17.16-14.61,17.16-14.6-7.09-14.6-17.16Zm20.2,0c0-5.06-2.3-8.63-5.59-8.63s-5.59,3.57-5.59,8.63,2.3,8.68,5.59,8.68,5.59-3.62,5.59-8.68Z"/>
        <path class="cls-1" d="m1007.25,768.25l-5.18,3.38-3.43-6.46,10.37-7.43h6.99v33.13h-8.75v-22.61Z"/>
        <path class="cls-1" d="m1020.49,774.28c0-10.03,6.04-17.12,14.6-17.12s14.61,7.09,14.61,17.12-6.05,17.16-14.61,17.16-14.6-7.09-14.6-17.16Zm20.2,0c0-5.06-2.3-8.63-5.59-8.63s-5.59,3.57-5.59,8.63,2.3,8.68,5.59,8.68,5.59-3.62,5.59-8.68Z"/>
        <path class="cls-1" d="m1052.83,774.28c0-10.03,6.04-17.12,14.6-17.12s14.61,7.09,14.61,17.12-6.05,17.16-14.61,17.16-14.6-7.09-14.6-17.16Zm20.2,0c0-5.06-2.3-8.63-5.59-8.63s-5.59,3.57-5.59,8.63,2.3,8.68,5.59,8.68,5.59-3.62,5.59-8.68Z"/>
        <path class="cls-1" d="m1092.48,768.25l-5.18,3.38-3.43-6.46,10.37-7.43h6.99v33.13h-8.75v-22.61Z"/>
        <path class="cls-1" d="m1105.72,774.28c0-10.03,6.04-17.12,14.6-17.12s14.61,7.09,14.61,17.12-6.05,17.16-14.61,17.16-14.6-7.09-14.6-17.16Zm20.2,0c0-5.06-2.3-8.63-5.59-8.63s-5.59,3.57-5.59,8.63,2.3,8.68,5.59,8.68,5.59-3.62,5.59-8.68Z"/>
        <path class="cls-1" d="m1145.36,768.25l-5.18,3.38-3.43-6.46,10.37-7.43h6.98v33.13h-8.75v-22.61Z"/>
        <path class="cls-1" d="m1158.6,774.28c0-10.03,6.04-17.12,14.6-17.12s14.61,7.09,14.61,17.12-6.05,17.16-14.61,17.16-14.6-7.09-14.6-17.16Zm20.2,0c0-5.06-2.3-8.63-5.59-8.63s-5.59,3.57-5.59,8.63,2.3,8.68,5.59,8.68,5.59-3.62,5.59-8.68Z"/>
        <path class="cls-1" d="m1198.24,768.25l-5.18,3.38-3.43-6.46,10.37-7.43h6.99v33.13h-8.75v-22.61Z"/>
        <path class="cls-1" d="m1211.48,774.28c0-10.03,6.04-17.12,14.6-17.12s14.61,7.09,14.61,17.12-6.05,17.16-14.61,17.16-14.6-7.09-14.6-17.16Zm20.2,0c0-5.06-2.3-8.63-5.59-8.63s-5.59,3.57-5.59,8.63,2.3,8.68,5.59,8.68,5.59-3.62,5.59-8.68Z"/>
        <path class="cls-1" d="m1243.82,774.28c0-10.03,6.04-17.12,14.6-17.12s14.61,7.09,14.61,17.12-6.05,17.16-14.61,17.16-14.6-7.09-14.6-17.16Zm20.2,0c0-5.06-2.3-8.63-5.59-8.63s-5.59,3.57-5.59,8.63,2.3,8.68,5.59,8.68,5.59-3.62,5.59-8.68Z"/>
        <path class="cls-1" d="m1276.17,774.28c0-10.03,6.04-17.12,14.6-17.12s14.61,7.09,14.61,17.12-6.05,17.16-14.61,17.16-14.6-7.09-14.6-17.16Zm20.2,0c0-5.06-2.3-8.63-5.59-8.63s-5.59,3.57-5.59,8.63,2.3,8.68,5.59,8.68,5.59-3.62,5.59-8.68Z"/>
        <path class="cls-1" d="m1315.81,768.25l-5.18,3.38-3.43-6.46,10.37-7.43h6.98v33.13h-8.75v-22.61Z"/>
        <path class="cls-1" d="m1336.35,768.25l-5.18,3.38-3.43-6.46,10.37-7.43h6.98v33.13h-8.75v-22.61Z"/>
        <path class="cls-1" d="m1349.59,774.28c0-10.03,6.04-17.12,14.6-17.12s14.61,7.09,14.61,17.12-6.05,17.16-14.61,17.16-14.6-7.09-14.6-17.16Zm20.2,0c0-5.06-2.3-8.63-5.59-8.63s-5.59,3.57-5.59,8.63,2.3,8.68,5.59,8.68,5.59-3.62,5.59-8.68Z"/>
        <path class="cls-1" d="m1389.23,768.25l-5.18,3.38-3.43-6.46,10.37-7.43h6.99v33.13h-8.75v-22.61Z"/>
        <path class="cls-1" d="m1402.47,774.28c0-10.03,6.04-17.12,14.6-17.12s14.61,7.09,14.61,17.12-6.05,17.16-14.61,17.16-14.6-7.09-14.6-17.16Zm20.2,0c0-5.06-2.3-8.63-5.59-8.63s-5.59,3.57-5.59,8.63,2.3,8.68,5.59,8.68,5.59-3.62,5.59-8.68Z"/>
        <path class="cls-1" d="m1442.11,768.25l-5.18,3.38-3.43-6.46,10.37-7.43h6.98v33.13h-8.75v-22.61Z"/>
        <path class="cls-1" d="m1455.36,774.28c0-10.03,6.04-17.12,14.6-17.12s14.61,7.09,14.61,17.12-6.05,17.16-14.61,17.16-14.6-7.09-14.6-17.16Zm20.2,0c0-5.06-2.3-8.63-5.59-8.63s-5.59,3.57-5.59,8.63,2.3,8.68,5.59,8.68,5.59-3.62,5.59-8.68Z"/>
        <path class="cls-1" d="m1487.7,774.28c0-10.03,6.04-17.12,14.6-17.12s14.61,7.09,14.61,17.12-6.05,17.16-14.61,17.16-14.6-7.09-14.6-17.16Zm20.2,0c0-5.06-2.3-8.63-5.59-8.63s-5.59,3.57-5.59,8.63,2.3,8.68,5.59,8.68,5.59-3.62,5.59-8.68Z"/>
        <path class="cls-1" d="m1527.34,768.25l-5.18,3.38-3.43-6.46,10.37-7.43h6.98v33.13h-8.75v-22.61Z"/>
        <path class="cls-1" d="m1547.88,768.25l-5.18,3.38-3.43-6.46,10.37-7.43h6.98v33.13h-8.75v-22.61Z"/>
        <path class="cls-1" d="m947.46,832.15c0-10.03,6.04-17.12,14.6-17.12s14.61,7.09,14.61,17.12-6.05,17.16-14.61,17.16-14.6-7.09-14.6-17.16Zm20.2,0c0-5.06-2.3-8.63-5.59-8.63s-5.59,3.57-5.59,8.63,2.3,8.68,5.59,8.68,5.59-3.62,5.59-8.68Z"/>
        <path class="cls-1" d="m987.1,826.12l-5.18,3.38-3.43-6.46,10.37-7.43h6.98v33.13h-8.75v-22.61Z"/>
        <path class="cls-1" d="m1000.35,832.15c0-10.03,6.04-17.12,14.6-17.12s14.61,7.09,14.61,17.12-6.05,17.16-14.61,17.16-14.6-7.09-14.6-17.16Zm20.2,0c0-5.06-2.3-8.63-5.59-8.63s-5.59,3.57-5.59,8.63,2.3,8.68,5.59,8.68,5.59-3.62,5.59-8.68Z"/>
        <path class="cls-1" d="m1039.99,826.12l-5.18,3.38-3.43-6.46,10.37-7.43h6.99v33.13h-8.75v-22.61Z"/>
        <path class="cls-1" d="m1053.23,832.15c0-10.03,6.04-17.12,14.6-17.12s14.61,7.09,14.61,17.12-6.05,17.16-14.61,17.16-14.6-7.09-14.6-17.16Zm20.2,0c0-5.06-2.3-8.63-5.59-8.63s-5.59,3.57-5.59,8.63,2.3,8.68,5.59,8.68,5.59-3.62,5.59-8.68Z"/>
        <path class="cls-1" d="m1085.57,832.15c0-10.03,6.04-17.12,14.6-17.12s14.61,7.09,14.61,17.12-6.05,17.16-14.61,17.16-14.6-7.09-14.6-17.16Zm20.2,0c0-5.06-2.3-8.63-5.59-8.63s-5.59,3.57-5.59,8.63,2.3,8.68,5.59,8.68,5.59-3.62,5.59-8.68Z"/>
        <path class="cls-1" d="m1125.21,826.12l-5.18,3.38-3.43-6.46,10.37-7.43h6.99v33.13h-8.75v-22.61Z"/>
        <path class="cls-1" d="m1138.45,832.15c0-10.03,6.04-17.12,14.6-17.12s14.61,7.09,14.61,17.12-6.05,17.16-14.61,17.16-14.6-7.09-14.6-17.16Zm20.2,0c0-5.06-2.3-8.63-5.59-8.63s-5.59,3.57-5.59,8.63,2.3,8.68,5.59,8.68,5.59-3.62,5.59-8.68Z"/>
        <path class="cls-1" d="m1178.09,826.12l-5.18,3.38-3.43-6.46,10.37-7.43h6.98v33.13h-8.75v-22.61Z"/>
        <path class="cls-1" d="m1191.34,832.15c0-10.03,6.04-17.12,14.6-17.12s14.61,7.09,14.61,17.12-6.05,17.16-14.61,17.16-14.6-7.09-14.6-17.16Zm20.2,0c0-5.06-2.3-8.63-5.59-8.63s-5.59,3.57-5.59,8.63,2.3,8.68,5.59,8.68,5.59-3.62,5.59-8.68Z"/>
        <path class="cls-1" d="m1230.98,826.12l-5.18,3.38-3.43-6.46,10.37-7.43h6.99v33.13h-8.75v-22.61Z"/>
        <path class="cls-1" d="m1244.22,832.15c0-10.03,6.04-17.12,14.6-17.12s14.61,7.09,14.61,17.12-6.05,17.16-14.61,17.16-14.6-7.09-14.6-17.16Zm20.2,0c0-5.06-2.3-8.63-5.59-8.63s-5.59,3.57-5.59,8.63,2.3,8.68,5.59,8.68,5.59-3.62,5.59-8.68Z"/>
        <path class="cls-1" d="m1276.56,832.15c0-10.03,6.04-17.12,14.6-17.12s14.61,7.09,14.61,17.12-6.05,17.16-14.61,17.16-14.6-7.09-14.6-17.16Zm20.2,0c0-5.06-2.3-8.63-5.59-8.63s-5.59,3.57-5.59,8.63,2.3,8.68,5.59,8.68,5.59-3.62,5.59-8.68Z"/>
        <path class="cls-1" d="m1308.9,832.15c0-10.03,6.04-17.12,14.6-17.12s14.61,7.09,14.61,17.12-6.05,17.16-14.61,17.16-14.6-7.09-14.6-17.16Zm20.2,0c0-5.06-2.3-8.63-5.59-8.63s-5.59,3.57-5.59,8.63,2.3,8.68,5.59,8.68,5.59-3.62,5.59-8.68Z"/>
        <path class="cls-1" d="m1348.54,826.12l-5.18,3.38-3.43-6.46,10.37-7.43h6.98v33.13h-8.75v-22.61Z"/>
        <path class="cls-1" d="m1369.09,826.12l-5.18,3.38-3.43-6.46,10.37-7.43h6.98v33.13h-8.75v-22.61Z"/>
        <path class="cls-1" d="m1382.33,832.15c0-10.03,6.04-17.12,14.6-17.12s14.61,7.09,14.61,17.12-6.05,17.16-14.61,17.16-14.6-7.09-14.6-17.16Zm20.2,0c0-5.06-2.3-8.63-5.59-8.63s-5.59,3.57-5.59,8.63,2.3,8.68,5.59,8.68,5.59-3.62,5.59-8.68Z"/>
        <path class="cls-1" d="m1421.97,826.12l-5.18,3.38-3.43-6.46,10.37-7.43h6.99v33.13h-8.75v-22.61Z"/>
        <path class="cls-1" d="m1435.21,832.15c0-10.03,6.04-17.12,14.6-17.12s14.61,7.09,14.61,17.12-6.05,17.16-14.61,17.16-14.6-7.09-14.6-17.16Zm20.2,0c0-5.06-2.3-8.63-5.59-8.63s-5.59,3.57-5.59,8.63,2.3,8.68,5.59,8.68,5.59-3.62,5.59-8.68Z"/>
        <path class="cls-1" d="m1474.85,826.12l-5.18,3.38-3.43-6.46,10.37-7.43h6.98v33.13h-8.75v-22.61Z"/>
        <path class="cls-1" d="m1488.09,832.15c0-10.03,6.04-17.12,14.6-17.12s14.61,7.09,14.61,17.12-6.05,17.16-14.61,17.16-14.6-7.09-14.6-17.16Zm20.2,0c0-5.06-2.3-8.63-5.59-8.63s-5.59,3.57-5.59,8.63,2.3,8.68,5.59,8.68,5.59-3.62,5.59-8.68Z"/>
        <path class="cls-1" d="m947.86,890.01c0-10.03,6.04-17.12,14.6-17.12s14.61,7.09,14.61,17.12-6.05,17.16-14.61,17.16-14.6-7.09-14.6-17.16Zm20.2,0c0-5.06-2.3-8.63-5.59-8.63s-5.59,3.57-5.59,8.63,2.3,8.68,5.59,8.68,5.59-3.62,5.59-8.68Z"/>
        <path class="cls-1" d="m987.5,883.98l-5.18,3.38-3.43-6.46,10.37-7.43h6.99v33.13h-8.75v-22.61Z"/>
        <path class="cls-1" d="m1008.04,883.98l-5.18,3.38-3.43-6.46,10.37-7.43h6.99v33.13h-8.75v-22.61Z"/>
        <path class="cls-1" d="m1021.28,890.01c0-10.03,6.04-17.12,14.6-17.12s14.61,7.09,14.61,17.12-6.05,17.16-14.61,17.16-14.6-7.09-14.6-17.16Zm20.2,0c0-5.06-2.3-8.63-5.59-8.63s-5.59,3.57-5.59,8.63,2.3,8.68,5.59,8.68,5.59-3.62,5.59-8.68Z"/>
        <path class="cls-1" d="m1060.92,883.98l-5.18,3.38-3.43-6.46,10.37-7.43h6.98v33.13h-8.75v-22.61Z"/>
        <path class="cls-1" d="m1074.17,890.01c0-10.03,6.04-17.12,14.6-17.12s14.61,7.09,14.61,17.12-6.05,17.16-14.61,17.16-14.6-7.09-14.6-17.16Zm20.2,0c0-5.06-2.3-8.63-5.59-8.63s-5.59,3.57-5.59,8.63,2.3,8.68,5.59,8.68,5.59-3.62,5.59-8.68Z"/>
        <path class="cls-1" d="m1113.81,883.98l-5.18,3.38-3.43-6.46,10.37-7.43h6.99v33.13h-8.75v-22.61Z"/>
        <path class="cls-1" d="m1127.05,890.01c0-10.03,6.04-17.12,14.6-17.12s14.61,7.09,14.61,17.12-6.05,17.16-14.61,17.16-14.6-7.09-14.6-17.16Zm20.2,0c0-5.06-2.3-8.63-5.59-8.63s-5.59,3.57-5.59,8.63,2.3,8.68,5.59,8.68,5.59-3.62,5.59-8.68Z"/>
        <path class="cls-1" d="m1159.39,890.01c0-10.03,6.04-17.12,14.6-17.12s14.61,7.09,14.61,17.12-6.05,17.16-14.61,17.16-14.6-7.09-14.6-17.16Zm20.2,0c0-5.06-2.3-8.63-5.59-8.63s-5.59,3.57-5.59,8.63,2.3,8.68,5.59,8.68,5.59-3.62,5.59-8.68Z"/>
        <path class="cls-1" d="m1199.03,883.98l-5.18,3.38-3.43-6.46,10.37-7.43h6.99v33.13h-8.75v-22.61Z"/>
        <path class="cls-1" d="m1212.27,890.01c0-10.03,6.04-17.12,14.6-17.12s14.61,7.09,14.61,17.12-6.05,17.16-14.61,17.16-14.6-7.09-14.6-17.16Zm20.2,0c0-5.06-2.3-8.63-5.59-8.63s-5.59,3.57-5.59,8.63,2.3,8.68,5.59,8.68,5.59-3.62,5.59-8.68Z"/>
        <path class="cls-1" d="m1251.91,883.98l-5.18,3.38-3.43-6.46,10.37-7.43h6.98v33.13h-8.75v-22.61Z"/>
        <path class="cls-1" d="m1265.16,890.01c0-10.03,6.04-17.12,14.6-17.12s14.61,7.09,14.61,17.12-6.05,17.16-14.61,17.16-14.6-7.09-14.6-17.16Zm20.2,0c0-5.06-2.3-8.63-5.59-8.63s-5.59,3.57-5.59,8.63,2.3,8.68,5.59,8.68,5.59-3.62,5.59-8.68Z"/>
        <path class="cls-1" d="m1304.8,883.98l-5.18,3.38-3.43-6.46,10.37-7.43h6.99v33.13h-8.75v-22.61Z"/>
        <path class="cls-1" d="m1318.04,890.01c0-10.03,6.04-17.12,14.6-17.12s14.61,7.09,14.61,17.12-6.05,17.16-14.61,17.16-14.6-7.09-14.6-17.16Zm20.2,0c0-5.06-2.3-8.63-5.59-8.63s-5.59,3.57-5.59,8.63,2.3,8.68,5.59,8.68,5.59-3.62,5.59-8.68Z"/>
        <path class="cls-1" d="m1350.38,890.01c0-10.03,6.04-17.12,14.6-17.12s14.61,7.09,14.61,17.12-6.05,17.16-14.61,17.16-14.6-7.09-14.6-17.16Zm20.2,0c0-5.06-2.3-8.63-5.59-8.63s-5.59,3.57-5.59,8.63,2.3,8.68,5.59,8.68,5.59-3.62,5.59-8.68Z"/>
        <path class="cls-1" d="m1382.72,890.01c0-10.03,6.04-17.12,14.6-17.12s14.61,7.09,14.61,17.12-6.05,17.16-14.61,17.16-14.6-7.09-14.6-17.16Zm20.2,0c0-5.06-2.3-8.63-5.59-8.63s-5.59,3.57-5.59,8.63,2.3,8.68,5.59,8.68,5.59-3.62,5.59-8.68Z"/>
        <path class="cls-1" d="m1422.36,883.98l-5.18,3.38-3.43-6.46,10.37-7.43h6.98v33.13h-8.75v-22.61Z"/>
        <path class="cls-1" d="m1442.91,883.98l-5.18,3.38-3.43-6.46,10.37-7.43h6.98v33.13h-8.75v-22.61Z"/>
        <path class="cls-1" d="m948.26,947.87c0-10.03,6.04-17.12,14.6-17.12s14.61,7.09,14.61,17.12-6.05,17.16-14.61,17.16-14.6-7.09-14.6-17.16Zm20.2,0c0-5.06-2.3-8.63-5.59-8.63s-5.59,3.57-5.59,8.63,2.3,8.68,5.59,8.68,5.59-3.62,5.59-8.68Z"/>
        <path class="cls-1" d="m987.9,941.85l-5.18,3.38-3.43-6.46,10.37-7.43h6.99v33.13h-8.75v-22.61Z"/>
        <path class="cls-1" d="m1001.14,947.87c0-10.03,6.04-17.12,14.6-17.12s14.61,7.09,14.61,17.12-6.05,17.16-14.61,17.16-14.6-7.09-14.6-17.16Zm20.2,0c0-5.06-2.3-8.63-5.59-8.63s-5.59,3.57-5.59,8.63,2.3,8.68,5.59,8.68,5.59-3.62,5.59-8.68Z"/>
        <path class="cls-1" d="m1040.78,941.85l-5.18,3.38-3.43-6.46,10.37-7.43h6.98v33.13h-8.75v-22.61Z"/>
        <path class="cls-1" d="m1054.03,947.87c0-10.03,6.04-17.12,14.6-17.12s14.61,7.09,14.61,17.12-6.05,17.16-14.61,17.16-14.6-7.09-14.6-17.16Zm20.2,0c0-5.06-2.3-8.63-5.59-8.63s-5.59,3.57-5.59,8.63,2.3,8.68,5.59,8.68,5.59-3.62,5.59-8.68Z"/>
        <path class="cls-1" d="m1086.37,947.87c0-10.03,6.04-17.12,14.6-17.12s14.61,7.09,14.61,17.12-6.05,17.16-14.61,17.16-14.6-7.09-14.6-17.16Zm20.2,0c0-5.06-2.3-8.63-5.59-8.63s-5.59,3.57-5.59,8.63,2.3,8.68,5.59,8.68,5.59-3.62,5.59-8.68Z"/>
        <path class="cls-1" d="m1126.01,941.85l-5.18,3.38-3.43-6.46,10.37-7.43h6.98v33.13h-8.75v-22.61Z"/>
        <path class="cls-1" d="m1146.55,941.85l-5.18,3.38-3.43-6.46,10.37-7.43h6.98v33.13h-8.75v-22.61Z"/>
        <path class="cls-1" d="m1159.79,947.87c0-10.03,6.04-17.12,14.6-17.12s14.61,7.09,14.61,17.12-6.05,17.16-14.61,17.16-14.6-7.09-14.6-17.16Zm20.2,0c0-5.06-2.3-8.63-5.59-8.63s-5.59,3.57-5.59,8.63,2.3,8.68,5.59,8.68,5.59-3.62,5.59-8.68Z"/>
        <path class="cls-1" d="m1199.43,941.85l-5.18,3.38-3.43-6.46,10.37-7.43h6.99v33.13h-8.75v-22.61Z"/>
        <path class="cls-1" d="m1212.67,947.87c0-10.03,6.04-17.12,14.6-17.12s14.61,7.09,14.61,17.12-6.05,17.16-14.61,17.16-14.6-7.09-14.6-17.16Zm20.2,0c0-5.06-2.3-8.63-5.59-8.63s-5.59,3.57-5.59,8.63,2.3,8.68,5.59,8.68,5.59-3.62,5.59-8.68Z"/>
        <path class="cls-1" d="m1252.32,941.85l-5.18,3.38-3.43-6.46,10.37-7.43h6.98v33.13h-8.75v-22.61Z"/>
        <path class="cls-1" d="m1265.56,947.87c0-10.03,6.04-17.12,14.6-17.12s14.61,7.09,14.61,17.12-6.05,17.16-14.61,17.16-14.6-7.09-14.6-17.16Zm20.2,0c0-5.06-2.3-8.63-5.59-8.63s-5.59,3.57-5.59,8.63,2.3,8.68,5.59,8.68,5.59-3.62,5.59-8.68Z"/>
        <path class="cls-1" d="m1297.9,947.87c0-10.03,6.04-17.12,14.6-17.12s14.61,7.09,14.61,17.12-6.05,17.16-14.61,17.16-14.6-7.09-14.6-17.16Zm20.2,0c0-5.06-2.3-8.63-5.59-8.63s-5.59,3.57-5.59,8.63,2.3,8.68,5.59,8.68,5.59-3.62,5.59-8.68Z"/>
        <path class="cls-1" d="m1337.54,941.85l-5.18,3.38-3.43-6.46,10.37-7.43h6.98v33.13h-8.75v-22.61Z"/>
        <path class="cls-1" d="m1350.78,947.87c0-10.03,6.04-17.12,14.6-17.12s14.61,7.09,14.61,17.12-6.05,17.16-14.61,17.16-14.6-7.09-14.6-17.16Zm20.2,0c0-5.06-2.3-8.63-5.59-8.63s-5.59,3.57-5.59,8.63,2.3,8.68,5.59,8.68,5.59-3.62,5.59-8.68Z"/>
        <path class="cls-1" d="m1390.42,941.85l-5.18,3.38-3.43-6.46,10.37-7.43h6.99v33.13h-8.75v-22.61Z"/>
        <path class="cls-1" d="m948.65,1005.74c0-10.03,6.04-17.12,14.6-17.12s14.61,7.09,14.61,17.12-6.05,17.16-14.61,17.16-14.6-7.09-14.6-17.16Zm20.2,0c0-5.06-2.3-8.63-5.59-8.63s-5.59,3.57-5.59,8.63,2.3,8.68,5.59,8.68,5.59-3.62,5.59-8.68Z"/>
        <path class="cls-1" d="m988.29,999.71l-5.18,3.38-3.43-6.46,10.37-7.43h6.99v33.13h-8.75v-22.61Z"/>
        <path class="cls-1" d="m1001.53,1005.74c0-10.03,6.04-17.12,14.6-17.12s14.61,7.09,14.61,17.12-6.05,17.16-14.61,17.16-14.6-7.09-14.6-17.16Zm20.2,0c0-5.06-2.3-8.63-5.59-8.63s-5.59,3.57-5.59,8.63,2.3,8.68,5.59,8.68,5.59-3.62,5.59-8.68Z"/>
        <path class="cls-1" d="m1033.87,1005.74c0-10.03,6.04-17.12,14.6-17.12s14.61,7.09,14.61,17.12-6.05,17.16-14.61,17.16-14.6-7.09-14.6-17.16Zm20.2,0c0-5.06-2.3-8.63-5.59-8.63s-5.59,3.57-5.59,8.63,2.3,8.68,5.59,8.68,5.59-3.62,5.59-8.68Z"/>
        <path class="cls-1" d="m1066.21,1005.74c0-10.03,6.04-17.12,14.6-17.12s14.61,7.09,14.61,17.12-6.05,17.16-14.61,17.16-14.6-7.09-14.6-17.16Zm20.2,0c0-5.06-2.3-8.63-5.59-8.63s-5.59,3.57-5.59,8.63,2.3,8.68,5.59,8.68,5.59-3.62,5.59-8.68Z"/>
        <path class="cls-1" d="m1105.85,999.71l-5.18,3.38-3.43-6.46,10.37-7.43h6.98v33.13h-8.75v-22.61Z"/>
        <path class="cls-1" d="m1126.4,999.71l-5.18,3.38-3.43-6.46,10.37-7.43h6.98v33.13h-8.75v-22.61Z"/>
        <path class="cls-1" d="m1139.64,1005.74c0-10.03,6.04-17.12,14.6-17.12s14.61,7.09,14.61,17.12-6.05,17.16-14.61,17.16-14.6-7.09-14.6-17.16Zm20.2,0c0-5.06-2.3-8.63-5.59-8.63s-5.59,3.57-5.59,8.63,2.3,8.68,5.59,8.68,5.59-3.62,5.59-8.68Z"/>
        <path class="cls-1" d="m1179.28,999.71l-5.18,3.38-3.43-6.46,10.37-7.43h6.99v33.13h-8.75v-22.61Z"/>
        <path class="cls-1" d="m1192.52,1005.74c0-10.03,6.04-17.12,14.6-17.12s14.61,7.09,14.61,17.12-6.05,17.16-14.61,17.16-14.6-7.09-14.6-17.16Zm20.2,0c0-5.06-2.3-8.63-5.59-8.63s-5.59,3.57-5.59,8.63,2.3,8.68,5.59,8.68,5.59-3.62,5.59-8.68Z"/>
        <path class="cls-1" d="m1232.16,999.71l-5.18,3.38-3.43-6.46,10.37-7.43h6.98v33.13h-8.75v-22.61Z"/>
        <path class="cls-1" d="m1245.4,1005.74c0-10.03,6.04-17.12,14.6-17.12s14.61,7.09,14.61,17.12-6.05,17.16-14.61,17.16-14.6-7.09-14.6-17.16Zm20.2,0c0-5.06-2.3-8.63-5.59-8.63s-5.59,3.57-5.59,8.63,2.3,8.68,5.59,8.68,5.59-3.62,5.59-8.68Z"/>
        <path class="cls-1" d="m1277.75,1005.74c0-10.03,6.04-17.12,14.6-17.12s14.61,7.09,14.61,17.12-6.05,17.16-14.61,17.16-14.6-7.09-14.6-17.16Zm20.2,0c0-5.06-2.3-8.63-5.59-8.63s-5.59,3.57-5.59,8.63,2.3,8.68,5.59,8.68,5.59-3.62,5.59-8.68Z"/>
        <path class="cls-1" d="m1317.39,999.71l-5.18,3.38-3.43-6.46,10.37-7.43h6.98v33.13h-8.75v-22.61Z"/>
        <path class="cls-1" d="m1337.93,999.71l-5.18,3.38-3.43-6.46,10.37-7.43h6.98v33.13h-8.75v-22.61Z"/>
        <path class="cls-1" d="m949.05,1063.6c0-10.03,6.04-17.12,14.6-17.12s14.61,7.09,14.61,17.12-6.05,17.16-14.61,17.16-14.6-7.09-14.6-17.16Zm20.2,0c0-5.06-2.3-8.63-5.59-8.63s-5.59,3.57-5.59,8.63,2.3,8.68,5.59,8.68,5.59-3.62,5.59-8.68Z"/>
        <path class="cls-1" d="m988.69,1057.57l-5.18,3.38-3.43-6.46,10.37-7.43h6.99v33.13h-8.75v-22.61Z"/>
        <path class="cls-1" d="m1001.93,1063.6c0-10.03,6.04-17.12,14.6-17.12s14.61,7.09,14.61,17.12-6.05,17.16-14.61,17.16-14.6-7.09-14.6-17.16Zm20.2,0c0-5.06-2.3-8.63-5.59-8.63s-5.59,3.57-5.59,8.63,2.3,8.68,5.59,8.68,5.59-3.62,5.59-8.68Z"/>
        <path class="cls-1" d="m1041.57,1057.57l-5.18,3.38-3.43-6.46,10.37-7.43h6.98v33.13h-8.75v-22.61Z"/>
        <path class="cls-1" d="m1054.82,1063.6c0-10.03,6.04-17.12,14.6-17.12s14.61,7.09,14.61,17.12-6.05,17.16-14.61,17.16-14.6-7.09-14.6-17.16Zm20.2,0c0-5.06-2.3-8.63-5.59-8.63s-5.59,3.57-5.59,8.63,2.3,8.68,5.59,8.68,5.59-3.62,5.59-8.68Z"/>
        <path class="cls-1" d="m1087.16,1063.6c0-10.03,6.04-17.12,14.6-17.12s14.61,7.09,14.61,17.12-6.05,17.16-14.61,17.16-14.6-7.09-14.6-17.16Zm20.2,0c0-5.06-2.3-8.63-5.59-8.63s-5.59,3.57-5.59,8.63,2.3,8.68,5.59,8.68,5.59-3.62,5.59-8.68Z"/>
        <path class="cls-1" d="m1126.8,1057.57l-5.18,3.38-3.43-6.46,10.37-7.43h6.98v33.13h-8.75v-22.61Z"/>
        <path class="cls-1" d="m1140.04,1063.6c0-10.03,6.04-17.12,14.6-17.12s14.61,7.09,14.61,17.12-6.05,17.16-14.61,17.16-14.6-7.09-14.6-17.16Zm20.2,0c0-5.06-2.3-8.63-5.59-8.63s-5.59,3.57-5.59,8.63,2.3,8.68,5.59,8.68,5.59-3.62,5.59-8.68Z"/>
        <path class="cls-1" d="m1179.68,1057.57l-5.18,3.38-3.43-6.46,10.37-7.43h6.99v33.13h-8.75v-22.61Z"/>
        <path class="cls-1" d="m1192.92,1063.6c0-10.03,6.04-17.12,14.6-17.12s14.61,7.09,14.61,17.12-6.05,17.16-14.61,17.16-14.6-7.09-14.6-17.16Zm20.2,0c0-5.06-2.3-8.63-5.59-8.63s-5.59,3.57-5.59,8.63,2.3,8.68,5.59,8.68,5.59-3.62,5.59-8.68Z"/>
        <path class="cls-1" d="m1232.56,1057.57l-5.18,3.38-3.43-6.46,10.37-7.43h6.98v33.13h-8.75v-22.61Z"/>
        <path class="cls-1" d="m1245.81,1063.6c0-10.03,6.04-17.12,14.6-17.12s14.61,7.09,14.61,17.12-6.05,17.16-14.61,17.16-14.6-7.09-14.6-17.16Zm20.2,0c0-5.06-2.3-8.63-5.59-8.63s-5.59,3.57-5.59,8.63,2.3,8.68,5.59,8.68,5.59-3.62,5.59-8.68Z"/>
        <path class="cls-1" d="m949.44,1121.47c0-10.03,6.04-17.12,14.6-17.12s14.61,7.09,14.61,17.12-6.05,17.16-14.61,17.16-14.6-7.09-14.6-17.16Zm20.2,0c0-5.06-2.3-8.63-5.59-8.63s-5.59,3.57-5.59,8.63,2.3,8.68,5.59,8.68,5.59-3.62,5.59-8.68Z"/>
        <path class="cls-1" d="m981.78,1121.47c0-10.03,6.04-17.12,14.6-17.12s14.61,7.09,14.61,17.12-6.05,17.16-14.61,17.16-14.6-7.09-14.6-17.16Zm20.2,0c0-5.06-2.3-8.63-5.59-8.63s-5.59,3.57-5.59,8.63,2.3,8.68,5.59,8.68,5.59-3.62,5.59-8.68Z"/>
        <path class="cls-1" d="m1021.42,1115.44l-5.18,3.38-3.43-6.46,10.37-7.43h6.98v33.13h-8.75v-22.61Z"/>
        <path class="cls-1" d="m1041.96,1115.44l-5.18,3.38-3.43-6.46,10.37-7.43h6.98v33.13h-8.75v-22.61Z"/>
        <path class="cls-1" d="m1055.2,1121.47c0-10.03,6.04-17.12,14.6-17.12s14.61,7.09,14.61,17.12-6.05,17.16-14.61,17.16-14.6-7.09-14.6-17.16Zm20.2,0c0-5.06-2.3-8.63-5.59-8.63s-5.59,3.57-5.59,8.63,2.3,8.68,5.59,8.68,5.59-3.62,5.59-8.68Z"/>
        <path class="cls-1" d="m1094.85,1115.44l-5.18,3.38-3.43-6.46,10.37-7.43h6.99v33.13h-8.75v-22.61Z"/>
        <path class="cls-1" d="m1108.09,1121.47c0-10.03,6.04-17.12,14.6-17.12s14.61,7.09,14.61,17.12-6.05,17.16-14.61,17.16-14.6-7.09-14.6-17.16Zm20.2,0c0-5.06-2.3-8.63-5.59-8.63s-5.59,3.57-5.59,8.63,2.3,8.68,5.59,8.68,5.59-3.62,5.59-8.68Z"/>
        <path class="cls-1" d="m1147.73,1115.44l-5.18,3.38-3.43-6.46,10.37-7.43h6.98v33.13h-8.75v-22.61Z"/>
        <path class="cls-1" d="m1160.97,1121.47c0-10.03,6.04-17.12,14.6-17.12s14.61,7.09,14.61,17.12-6.05,17.16-14.61,17.16-14.6-7.09-14.6-17.16Zm20.2,0c0-5.06-2.3-8.63-5.59-8.63s-5.59,3.57-5.59,8.63,2.3,8.68,5.59,8.68,5.59-3.62,5.59-8.68Z"/>
        <path class="cls-1" d="m1193.31,1121.47c0-10.03,6.04-17.12,14.6-17.12s14.61,7.09,14.61,17.12-6.05,17.16-14.61,17.16-14.6-7.09-14.6-17.16Zm20.2,0c0-5.06-2.3-8.63-5.59-8.63s-5.59,3.57-5.59,8.63,2.3,8.68,5.59,8.68,5.59-3.62,5.59-8.68Z"/>
        <path class="cls-1" d="m957.14,1173.31l-5.18,3.38-3.43-6.46,10.37-7.43h6.98v33.13h-8.75v-22.61Z"/>
        <path class="cls-1" d="m977.68,1173.31l-5.18,3.38-3.43-6.46,10.37-7.43h6.98v33.13h-8.75v-22.61Z"/>
        <path class="cls-1" d="m990.92,1179.34c0-10.03,6.04-17.12,14.6-17.12s14.61,7.09,14.61,17.12-6.05,17.16-14.61,17.16-14.6-7.09-14.6-17.16Zm20.2,0c0-5.06-2.3-8.63-5.59-8.63s-5.59,3.57-5.59,8.63,2.3,8.68,5.59,8.68,5.59-3.62,5.59-8.68Z"/>
        <path class="cls-1" d="m1030.56,1173.31l-5.18,3.38-3.43-6.46,10.37-7.43h6.99v33.13h-8.75v-22.61Z"/>
        <path class="cls-1" d="m1043.81,1179.34c0-10.03,6.04-17.12,14.6-17.12s14.61,7.09,14.61,17.12-6.05,17.16-14.61,17.16-14.6-7.09-14.6-17.16Zm20.2,0c0-5.06-2.3-8.63-5.59-8.63s-5.59,3.57-5.59,8.63,2.3,8.68,5.59,8.68,5.59-3.62,5.59-8.68Z"/>
        <path class="cls-1" d="m1083.45,1173.31l-5.18,3.38-3.43-6.46,10.37-7.43h6.98v33.13h-8.75v-22.61Z"/>
        <path class="cls-1" d="m1096.69,1179.34c0-10.03,6.04-17.12,14.6-17.12s14.61,7.09,14.61,17.12-6.05,17.16-14.61,17.16-14.6-7.09-14.6-17.16Zm20.2,0c0-5.06-2.3-8.63-5.59-8.63s-5.59,3.57-5.59,8.63,2.3,8.68,5.59,8.68,5.59-3.62,5.59-8.68Z"/>
        <path class="cls-1" d="m1129.03,1179.34c0-10.03,6.04-17.12,14.6-17.12s14.61,7.09,14.61,17.12-6.05,17.16-14.61,17.16-14.6-7.09-14.6-17.16Zm20.2,0c0-5.06-2.3-8.63-5.59-8.63s-5.59,3.57-5.59,8.63,2.3,8.68,5.59,8.68,5.59-3.62,5.59-8.68Z"/>
        <path class="cls-1" d="m1168.67,1173.31l-5.18,3.38-3.43-6.46,10.37-7.43h6.98v33.13h-8.75v-22.61Z"/>
        <path class="cls-1" d="m950.23,1237.2c0-10.03,6.04-17.12,14.6-17.12s14.61,7.09,14.61,17.12-6.05,17.16-14.61,17.16-14.6-7.09-14.6-17.16Zm20.2,0c0-5.06-2.3-8.63-5.59-8.63s-5.59,3.57-5.59,8.63,2.3,8.68,5.59,8.68,5.59-3.62,5.59-8.68Z"/>
        <path class="cls-1" d="m989.87,1231.17l-5.18,3.38-3.43-6.46,10.37-7.43h6.98v33.13h-8.75v-22.61Z"/>
        <path class="cls-1" d="m1003.12,1237.2c0-10.03,6.04-17.12,14.6-17.12s14.61,7.09,14.61,17.12-6.05,17.16-14.61,17.16-14.6-7.09-14.6-17.16Zm20.2,0c0-5.06-2.3-8.63-5.59-8.63s-5.59,3.57-5.59,8.63,2.3,8.68,5.59,8.68,5.59-3.62,5.59-8.68Z"/>
        <path class="cls-1" d="m1042.76,1231.17l-5.18,3.38-3.43-6.46,10.37-7.43h6.99v33.13h-8.75v-22.61Z"/>
        <path class="cls-1" d="m1056,1237.2c0-10.03,6.04-17.12,14.6-17.12s14.61,7.09,14.61,17.12-6.05,17.16-14.61,17.16-14.6-7.09-14.6-17.16Zm20.2,0c0-5.06-2.3-8.63-5.59-8.63s-5.59,3.57-5.59,8.63,2.3,8.68,5.59,8.68,5.59-3.62,5.59-8.68Z"/>
        <path class="cls-1" d="m1088.34,1237.2c0-10.03,6.04-17.12,14.6-17.12s14.61,7.09,14.61,17.12-6.05,17.16-14.61,17.16-14.6-7.09-14.6-17.16Zm20.2,0c0-5.06-2.3-8.63-5.59-8.63s-5.59,3.57-5.59,8.63,2.3,8.68,5.59,8.68,5.59-3.62,5.59-8.68Z"/>
        <path class="cls-1" d="m950.63,1295.06c0-10.03,6.04-17.12,14.6-17.12s14.61,7.09,14.61,17.12-6.05,17.16-14.61,17.16-14.6-7.09-14.6-17.16Zm20.2,0c0-5.06-2.3-8.63-5.59-8.63s-5.59,3.57-5.59,8.63,2.3,8.68,5.59,8.68,5.59-3.62,5.59-8.68Z"/>
        <path class="cls-1" d="m990.27,1289.03l-5.18,3.38-3.43-6.46,10.37-7.43h6.99v33.13h-8.75v-22.61Z"/>
        <path class="cls-1" d="m1010.81,1289.03l-5.18,3.38-3.43-6.46,10.37-7.43h6.99v33.13h-8.75v-22.61Z"/>
        <path class="cls-1" d="m1024.05,1295.06c0-10.03,6.04-17.12,14.6-17.12s14.61,7.09,14.61,17.12-6.05,17.16-14.61,17.16-14.6-7.09-14.6-17.16Zm20.2,0c0-5.06-2.3-8.63-5.59-8.63s-5.59,3.57-5.59,8.63,2.3,8.68,5.59,8.68,5.59-3.62,5.59-8.68Z"/>
        <path class="cls-1" d="m1063.69,1289.03l-5.18,3.38-3.43-6.46,10.37-7.43h6.98v33.13h-8.75v-22.61Z"/>
        <path class="cls-1" d="m951.02,1352.93c0-10.03,6.04-17.12,14.6-17.12s14.61,7.09,14.61,17.12-6.05,17.16-14.61,17.16-14.6-7.09-14.6-17.16Zm20.2,0c0-5.06-2.3-8.63-5.59-8.63s-5.59,3.57-5.59,8.63,2.3,8.68,5.59,8.68,5.59-3.62,5.59-8.68Z"/>
        <path class="cls-1" d="m990.67,1346.9l-5.18,3.38-3.43-6.46,10.37-7.43h6.98v33.13h-8.75v-22.61Z"/>
      </g>
      <g>
        <path class="cls-1" d="m950.97,1407.04c0-10.03,6.04-17.12,14.6-17.12s14.61,7.09,14.61,17.12-6.05,17.16-14.61,17.16-14.6-7.09-14.6-17.16Zm20.2,0c0-5.06-2.3-8.63-5.59-8.63s-5.59,3.57-5.59,8.63,2.3,8.68,5.59,8.68,5.59-3.62,5.59-8.68Z"/>
        <path class="cls-1" d="m990.61,1401.01l-5.18,3.38-3.43-6.46,10.37-7.43h6.99v33.13h-8.75v-22.61Z"/>
        <path class="cls-1" d="m958.27,1449.23l-5.18,3.38-3.43-6.46,10.37-7.43h6.98v33.13h-8.75v-22.61Z"/>
      </g>
      <path class="cls-1" d="m1005.99,1354.28c0-10.03,6.04-17.12,14.6-17.12s14.61,7.09,14.61,17.12-6.05,17.16-14.61,17.16-14.6-7.09-14.6-17.16Zm20.2,0c0-5.06-2.3-8.63-5.59-8.63s-5.59,3.57-5.59,8.63,2.3,8.68,5.59,8.68,5.59-3.62,5.59-8.68Z"/>
    </g>
  </g>
</svg>
