<?xml version="1.0" encoding="UTF-8"?>
<svg id="Layer_1" data-name="Layer 1" xmlns="http://www.w3.org/2000/svg" viewBox="0 0 1020.28 1020.28">
  <defs>
    <style>
      .cls-1 {
        fill: none;
        stroke: #000047;
        stroke-linecap: round;
        stroke-linejoin: round;
        stroke-width: 10px;
      }

      .cls-2 {
        fill: #03274d;
        font-family: Metropolis-Bold, Metropolis;
        font-size: 24px;
        font-weight: 700;
      }
    </style>
  </defs>
  <text class="cls-2" transform="translate(523.02 175.62) scale(.93 1)"><tspan x="0" y="0">00011010100110</tspan><tspan x=".21" y="28.8">101001010100011010</tspan><tspan x=".42" y="57.6">10011010100101010001</tspan><tspan x=".63" y="86.4">1010100110101001010100</tspan><tspan x=".84" y="115.2">0110101001101010010101000</tspan><tspan x="1.05" y="144">1101010011010100101010001101</tspan><tspan x="1.26" y="172.8">010011010100101010001101010011</tspan><tspan x="1.47" y="201.6">010100101010001101010011010100101</tspan><tspan x="1.68" y="230.4">0100011010100110101001010100011010</tspan><tspan x="1.89" y="259.2">100110101001010100011010100110101</tspan><tspan x="2.1" y="288">001010100011010100110101001010</tspan><tspan x="2.31" y="316.8">1000110101001101010010101000</tspan><tspan x="2.53" y="345.6">11010100110101001010100011</tspan><tspan x="2.74" y="374.4">010100110101001010100011</tspan><tspan x="2.95" y="403.2">010100110101001010100</tspan><tspan x="3.16" y="432">01101010011010100101</tspan><tspan x="3.37" y="460.8">01000110101001101</tspan><tspan x="3.58" y="489.6">010010101000110</tspan><tspan x="3.79" y="518.4">1010011010100</tspan><tspan x="4" y="547.2">10101000110</tspan><tspan x="4.21" y="576">101001101</tspan><tspan x="4.42" y="604.8">0100101</tspan><tspan x="4.63" y="633.6">0100</tspan><tspan x="4.84" y="662.4">011</tspan></text>
  <text class="cls-2" transform="translate(527.52 864.95) scale(.93 1)"><tspan x="0" y="0">01</tspan><tspan x="0" y="24">1</tspan></text>
  <polyline class="cls-1" points="510.14 405.13 226.19 400.81 101.65 382.98"/>
  <polyline class="cls-1" points="510.14 162.84 335.8 162.84 492.5 356.59 493.7 357.63 315.28 175.46 222.47 358.08 221.99 358.05 287.76 190.44 60.88 369.89 60.88 389.89 459.66 835.25 245.52 440.47 245.52 440.47 508.41 886.17"/>
</svg>