<?xml version="1.0" encoding="UTF-8"?>
<svg id="Layer_2" data-name="Layer 2" xmlns="http://www.w3.org/2000/svg" viewBox="0 0 878.38 256.5">
  <defs>
    <style>
      .cls-1 {
        stroke-width: 0px;
      }

      .cls-1, .cls-2 {
        fill: #03274d;
      }

      .cls-2 {
        stroke: #03274d;
        stroke-miterlimit: 10;
        stroke-width: 4px;
      }

      .cls-3 {
        font-family: HelveticaNeue-Roman, 'Helvetica Neue';
        font-size: 18px;
      }
    </style>
  </defs>
  <g id="Layer_1-2" data-name="Layer 1">
    <g>
      <g>
        <g>
          <g>
            <path class="cls-1" d="m160.61,6.94c0-1.71,1.03-2.92,2.49-2.92s2.49,1.21,2.49,2.92-1.03,2.93-2.49,2.93-2.49-1.21-2.49-2.93Zm3.45,0c0-.86-.39-1.47-.95-1.47s-.95.61-.95,1.47.39,1.48.95,1.48.95-.62.95-1.48Z"/>
            <path class="cls-1" d="m166.13,6.94c0-1.71,1.03-2.92,2.49-2.92s2.49,1.21,2.49,2.92-1.03,2.93-2.49,2.93-2.49-1.21-2.49-2.93Zm3.45,0c0-.86-.39-1.47-.95-1.47s-.95.61-.95,1.47.39,1.48.95,1.48.95-.62.95-1.48Z"/>
            <path class="cls-1" d="m171.64,6.94c0-1.71,1.03-2.92,2.49-2.92s2.49,1.21,2.49,2.92-1.03,2.93-2.49,2.93-2.49-1.21-2.49-2.93Zm3.45,0c0-.86-.39-1.47-.95-1.47s-.95.61-.95,1.47.39,1.48.95,1.48.95-.62.95-1.48Z"/>
            <path class="cls-1" d="m178.41,5.91l-.88.58-.58-1.1,1.77-1.27h1.19v5.65h-1.49v-3.86Z"/>
            <path class="cls-1" d="m181.91,5.91l-.88.58-.58-1.1,1.77-1.27h1.19v5.65h-1.49v-3.86Z"/>
            <path class="cls-1" d="m184.17,6.94c0-1.71,1.03-2.92,2.49-2.92s2.49,1.21,2.49,2.92-1.03,2.93-2.49,2.93-2.49-1.21-2.49-2.93Zm3.45,0c0-.86-.39-1.47-.95-1.47s-.95.61-.95,1.47.39,1.48.95,1.48.95-.62.95-1.48Z"/>
            <path class="cls-1" d="m190.93,5.91l-.88.58-.58-1.1,1.77-1.27h1.19v5.65h-1.49v-3.86Z"/>
            <path class="cls-1" d="m193.19,6.94c0-1.71,1.03-2.92,2.49-2.92s2.49,1.21,2.49,2.92-1.03,2.93-2.49,2.93-2.49-1.21-2.49-2.93Zm3.45,0c0-.86-.39-1.47-.95-1.47s-.95.61-.95,1.47.39,1.48.95,1.48.95-.62.95-1.48Z"/>
            <path class="cls-1" d="m199.95,5.91l-.88.58-.58-1.1,1.77-1.27h1.19v5.65h-1.49v-3.86Z"/>
            <path class="cls-1" d="m202.21,6.94c0-1.71,1.03-2.92,2.49-2.92s2.49,1.21,2.49,2.92-1.03,2.93-2.49,2.93-2.49-1.21-2.49-2.93Zm3.45,0c0-.86-.39-1.47-.95-1.47s-.95.61-.95,1.47.39,1.48.95,1.48.95-.62.95-1.48Z"/>
            <path class="cls-1" d="m207.73,6.94c0-1.71,1.03-2.92,2.49-2.92s2.49,1.21,2.49,2.92-1.03,2.93-2.49,2.93-2.49-1.21-2.49-2.93Zm3.45,0c0-.86-.39-1.47-.95-1.47s-.95.61-.95,1.47.39,1.48.95,1.48.95-.62.95-1.48Z"/>
            <path class="cls-1" d="m214.49,5.91l-.88.58-.58-1.1,1.77-1.27h1.19v5.65h-1.49v-3.86Z"/>
            <path class="cls-1" d="m217.99,5.91l-.88.58-.58-1.1,1.77-1.27h1.19v5.65h-1.49v-3.86Z"/>
            <path class="cls-1" d="m160.68,16.81c0-1.71,1.03-2.92,2.49-2.92s2.49,1.21,2.49,2.92-1.03,2.93-2.49,2.93-2.49-1.21-2.49-2.93Zm3.45,0c0-.86-.39-1.47-.95-1.47s-.95.61-.95,1.47.39,1.48.95,1.48.95-.62.95-1.48Z"/>
            <path class="cls-1" d="m167.44,15.78l-.88.58-.58-1.1,1.77-1.27h1.19v5.65h-1.49v-3.86Z"/>
            <path class="cls-1" d="m169.7,16.81c0-1.71,1.03-2.92,2.49-2.92s2.49,1.21,2.49,2.92-1.03,2.93-2.49,2.93-2.49-1.21-2.49-2.93Zm3.45,0c0-.86-.39-1.47-.95-1.47s-.95.61-.95,1.47.39,1.48.95,1.48.95-.62.95-1.48Z"/>
            <path class="cls-1" d="m176.46,15.78l-.88.58-.58-1.1,1.77-1.27h1.19v5.65h-1.49v-3.86Z"/>
            <path class="cls-1" d="m178.72,16.81c0-1.71,1.03-2.92,2.49-2.92s2.49,1.21,2.49,2.92-1.03,2.93-2.49,2.93-2.49-1.21-2.49-2.93Zm3.45,0c0-.86-.39-1.47-.95-1.47s-.95.61-.95,1.47.39,1.48.95,1.48.95-.62.95-1.48Z"/>
            <path class="cls-1" d="m184.24,16.81c0-1.71,1.03-2.92,2.49-2.92s2.49,1.21,2.49,2.92-1.03,2.93-2.49,2.93-2.49-1.21-2.49-2.93Zm3.45,0c0-.86-.39-1.47-.95-1.47s-.95.61-.95,1.47.39,1.48.95,1.48.95-.62.95-1.48Z"/>
            <path class="cls-1" d="m191,15.78l-.88.58-.58-1.1,1.77-1.27h1.19v5.65h-1.49v-3.86Z"/>
            <path class="cls-1" d="m193.26,16.81c0-1.71,1.03-2.92,2.49-2.92s2.49,1.21,2.49,2.92-1.03,2.93-2.49,2.93-2.49-1.21-2.49-2.93Zm3.45,0c0-.86-.39-1.47-.95-1.47s-.95.61-.95,1.47.39,1.48.95,1.48.95-.62.95-1.48Z"/>
            <path class="cls-1" d="m200.02,15.78l-.88.58-.58-1.1,1.77-1.27h1.19v5.65h-1.49v-3.86Z"/>
            <path class="cls-1" d="m202.28,16.81c0-1.71,1.03-2.92,2.49-2.92s2.49,1.21,2.49,2.92-1.03,2.93-2.49,2.93-2.49-1.21-2.49-2.93Zm3.45,0c0-.86-.39-1.47-.95-1.47s-.95.61-.95,1.47.39,1.48.95,1.48.95-.62.95-1.48Z"/>
            <path class="cls-1" d="m209.04,15.78l-.88.58-.58-1.1,1.77-1.27h1.19v5.65h-1.49v-3.86Z"/>
            <path class="cls-1" d="m211.3,16.81c0-1.71,1.03-2.92,2.49-2.92s2.49,1.21,2.49,2.92-1.03,2.93-2.49,2.93-2.49-1.21-2.49-2.93Zm3.45,0c0-.86-.39-1.47-.95-1.47s-.95.61-.95,1.47.39,1.48.95,1.48.95-.62.95-1.48Z"/>
            <path class="cls-1" d="m216.82,16.81c0-1.71,1.03-2.92,2.49-2.92s2.49,1.21,2.49,2.92-1.03,2.93-2.49,2.93-2.49-1.21-2.49-2.93Zm3.45,0c0-.86-.39-1.47-.95-1.47s-.95.61-.95,1.47.39,1.48.95,1.48.95-.62.95-1.48Z"/>
            <path class="cls-1" d="m222.33,16.81c0-1.71,1.03-2.92,2.49-2.92s2.49,1.21,2.49,2.92-1.03,2.93-2.49,2.93-2.49-1.21-2.49-2.93Zm3.45,0c0-.86-.39-1.47-.95-1.47s-.95.61-.95,1.47.39,1.48.95,1.48.95-.62.95-1.48Z"/>
            <path class="cls-1" d="m229.09,15.78l-.88.58-.58-1.1,1.77-1.27h1.19v5.65h-1.49v-3.86Z"/>
            <path class="cls-1" d="m232.6,15.78l-.88.58-.58-1.1,1.77-1.27h1.19v5.65h-1.49v-3.86Z"/>
            <path class="cls-1" d="m234.86,16.81c0-1.71,1.03-2.92,2.49-2.92s2.49,1.21,2.49,2.92-1.03,2.93-2.49,2.93-2.49-1.21-2.49-2.93Zm3.45,0c0-.86-.39-1.47-.95-1.47s-.95.61-.95,1.47.39,1.48.95,1.48.95-.62.95-1.48Z"/>
            <path class="cls-1" d="m161.99,25.65l-.88.58-.58-1.1,1.77-1.27h1.19v5.65h-1.49v-3.86Z"/>
            <path class="cls-1" d="m164.25,26.68c0-1.71,1.03-2.92,2.49-2.92s2.49,1.21,2.49,2.92-1.03,2.93-2.49,2.93-2.49-1.21-2.49-2.93Zm3.45,0c0-.86-.39-1.47-.95-1.47s-.95.61-.95,1.47.39,1.48.95,1.48.95-.62.95-1.48Z"/>
            <path class="cls-1" d="m171.01,25.65l-.88.58-.58-1.1,1.77-1.27h1.19v5.65h-1.49v-3.86Z"/>
            <path class="cls-1" d="m173.27,26.68c0-1.71,1.03-2.92,2.49-2.92s2.49,1.21,2.49,2.92-1.03,2.93-2.49,2.93-2.49-1.21-2.49-2.93Zm3.45,0c0-.86-.39-1.47-.95-1.47s-.95.61-.95,1.47.39,1.48.95,1.48.95-.62.95-1.48Z"/>
            <path class="cls-1" d="m178.79,26.68c0-1.71,1.03-2.92,2.49-2.92s2.49,1.21,2.49,2.92-1.03,2.93-2.49,2.93-2.49-1.21-2.49-2.93Zm3.45,0c0-.86-.39-1.47-.95-1.47s-.95.61-.95,1.47.39,1.48.95,1.48.95-.62.95-1.48Z"/>
            <path class="cls-1" d="m185.55,25.65l-.88.58-.58-1.1,1.77-1.27h1.19v5.65h-1.49v-3.86Z"/>
            <path class="cls-1" d="m189.05,25.65l-.88.58-.58-1.1,1.77-1.27h1.19v5.65h-1.49v-3.86Z"/>
            <path class="cls-1" d="m191.31,26.68c0-1.71,1.03-2.92,2.49-2.92s2.49,1.21,2.49,2.92-1.03,2.93-2.49,2.93-2.49-1.21-2.49-2.93Zm3.45,0c0-.86-.39-1.47-.95-1.47s-.95.61-.95,1.47.39,1.48.95,1.48.95-.62.95-1.48Z"/>
            <path class="cls-1" d="m198.07,25.65l-.88.58-.58-1.1,1.77-1.27h1.19v5.65h-1.49v-3.86Z"/>
            <path class="cls-1" d="m200.33,26.68c0-1.71,1.03-2.92,2.49-2.92s2.49,1.21,2.49,2.92-1.03,2.93-2.49,2.93-2.49-1.21-2.49-2.93Zm3.45,0c0-.86-.39-1.47-.95-1.47s-.95.61-.95,1.47.39,1.48.95,1.48.95-.62.95-1.48Z"/>
            <path class="cls-1" d="m207.09,25.65l-.88.58-.58-1.1,1.77-1.27h1.19v5.65h-1.49v-3.86Z"/>
            <path class="cls-1" d="m209.35,26.68c0-1.71,1.03-2.92,2.49-2.92s2.49,1.21,2.49,2.92-1.03,2.93-2.49,2.93-2.49-1.21-2.49-2.93Zm3.45,0c0-.86-.39-1.47-.95-1.47s-.95.61-.95,1.47.39,1.48.95,1.48.95-.62.95-1.48Z"/>
            <path class="cls-1" d="m214.87,26.68c0-1.71,1.03-2.92,2.49-2.92s2.49,1.21,2.49,2.92-1.03,2.93-2.49,2.93-2.49-1.21-2.49-2.93Zm3.45,0c0-.86-.39-1.47-.95-1.47s-.95.61-.95,1.47.39,1.48.95,1.48.95-.62.95-1.48Z"/>
            <path class="cls-1" d="m221.63,25.65l-.88.58-.58-1.1,1.77-1.27h1.19v5.65h-1.49v-3.86Z"/>
            <path class="cls-1" d="m223.89,26.68c0-1.71,1.03-2.92,2.49-2.92s2.49,1.21,2.49,2.92-1.03,2.93-2.49,2.93-2.49-1.21-2.49-2.93Zm3.45,0c0-.86-.39-1.47-.95-1.47s-.95.61-.95,1.47.39,1.48.95,1.48.95-.62.95-1.48Z"/>
            <path class="cls-1" d="m230.65,25.65l-.88.58-.58-1.1,1.77-1.27h1.19v5.65h-1.49v-3.86Z"/>
            <path class="cls-1" d="m232.91,26.68c0-1.71,1.03-2.92,2.49-2.92s2.49,1.21,2.49,2.92-1.03,2.93-2.49,2.93-2.49-1.21-2.49-2.93Zm3.45,0c0-.86-.39-1.47-.95-1.47s-.95.61-.95,1.47.39,1.48.95,1.48.95-.62.95-1.48Z"/>
            <path class="cls-1" d="m239.67,25.65l-.88.58-.58-1.1,1.77-1.27h1.19v5.65h-1.49v-3.86Z"/>
            <path class="cls-1" d="m241.93,26.68c0-1.71,1.03-2.92,2.49-2.92s2.49,1.21,2.49,2.92-1.03,2.93-2.49,2.93-2.49-1.21-2.49-2.93Zm3.45,0c0-.86-.39-1.47-.95-1.47s-.95.61-.95,1.47.39,1.48.95,1.48.95-.62.95-1.48Z"/>
            <path class="cls-1" d="m160.81,36.55c0-1.71,1.03-2.92,2.49-2.92s2.49,1.21,2.49,2.92-1.03,2.93-2.49,2.93-2.49-1.21-2.49-2.93Zm3.45,0c0-.86-.39-1.47-.95-1.47s-.95.61-.95,1.47.39,1.48.95,1.48.95-.62.95-1.48Z"/>
            <path class="cls-1" d="m166.33,36.55c0-1.71,1.03-2.92,2.49-2.92s2.49,1.21,2.49,2.92-1.03,2.93-2.49,2.93-2.49-1.21-2.49-2.93Zm3.45,0c0-.86-.39-1.47-.95-1.47s-.95.61-.95,1.47.39,1.48.95,1.48.95-.62.95-1.48Z"/>
            <path class="cls-1" d="m173.09,35.52l-.88.58-.58-1.1,1.77-1.27h1.19v5.65h-1.49v-3.86Z"/>
            <path class="cls-1" d="m176.6,35.52l-.88.58-.58-1.1,1.77-1.27h1.19v5.65h-1.49v-3.86Z"/>
            <path class="cls-1" d="m178.85,36.55c0-1.71,1.03-2.92,2.49-2.92s2.49,1.21,2.49,2.92-1.03,2.93-2.49,2.93-2.49-1.21-2.49-2.93Zm3.45,0c0-.86-.39-1.47-.95-1.47s-.95.61-.95,1.47.39,1.48.95,1.48.95-.62.95-1.48Z"/>
            <path class="cls-1" d="m185.62,35.52l-.88.58-.58-1.1,1.77-1.27h1.19v5.65h-1.49v-3.86Z"/>
            <path class="cls-1" d="m187.88,36.55c0-1.71,1.03-2.92,2.49-2.92s2.49,1.21,2.49,2.92-1.03,2.93-2.49,2.93-2.49-1.21-2.49-2.93Zm3.45,0c0-.86-.39-1.47-.95-1.47s-.95.61-.95,1.47.39,1.48.95,1.48.95-.62.95-1.48Z"/>
            <path class="cls-1" d="m194.64,35.52l-.88.58-.58-1.1,1.77-1.27h1.19v5.65h-1.49v-3.86Z"/>
            <path class="cls-1" d="m196.9,36.55c0-1.71,1.03-2.92,2.49-2.92s2.49,1.21,2.49,2.92-1.03,2.93-2.49,2.93-2.49-1.21-2.49-2.93Zm3.45,0c0-.86-.39-1.47-.95-1.47s-.95.61-.95,1.47.39,1.48.95,1.48.95-.62.95-1.48Z"/>
            <path class="cls-1" d="m202.41,36.55c0-1.71,1.03-2.92,2.49-2.92s2.49,1.21,2.49,2.92-1.03,2.93-2.49,2.93-2.49-1.21-2.49-2.93Zm3.45,0c0-.86-.39-1.47-.95-1.47s-.95.61-.95,1.47.39,1.48.95,1.48.95-.62.95-1.48Z"/>
            <path class="cls-1" d="m209.17,35.52l-.88.58-.58-1.1,1.77-1.27h1.19v5.65h-1.49v-3.86Z"/>
            <path class="cls-1" d="m212.68,35.52l-.88.58-.58-1.1,1.77-1.27h1.19v5.65h-1.49v-3.86Z"/>
            <path class="cls-1" d="m214.94,36.55c0-1.71,1.03-2.92,2.49-2.92s2.49,1.21,2.49,2.92-1.03,2.93-2.49,2.93-2.49-1.21-2.49-2.93Zm3.45,0c0-.86-.39-1.47-.95-1.47s-.95.61-.95,1.47.39,1.48.95,1.48.95-.62.95-1.48Z"/>
            <path class="cls-1" d="m221.7,35.52l-.88.58-.58-1.1,1.77-1.27h1.19v5.65h-1.49v-3.86Z"/>
            <path class="cls-1" d="m223.96,36.55c0-1.71,1.03-2.92,2.49-2.92s2.49,1.21,2.49,2.92-1.03,2.93-2.49,2.93-2.49-1.21-2.49-2.93Zm3.45,0c0-.86-.39-1.47-.95-1.47s-.95.61-.95,1.47.39,1.48.95,1.48.95-.62.95-1.48Z"/>
            <path class="cls-1" d="m230.72,35.52l-.88.58-.58-1.1,1.77-1.27h1.19v5.65h-1.49v-3.86Z"/>
            <path class="cls-1" d="m232.98,36.55c0-1.71,1.03-2.92,2.49-2.92s2.49,1.21,2.49,2.92-1.03,2.93-2.49,2.93-2.49-1.21-2.49-2.93Zm3.45,0c0-.86-.39-1.47-.95-1.47s-.95.61-.95,1.47.39,1.48.95,1.48.95-.62.95-1.48Z"/>
            <path class="cls-1" d="m238.49,36.55c0-1.71,1.03-2.92,2.49-2.92s2.49,1.21,2.49,2.92-1.03,2.93-2.49,2.93-2.49-1.21-2.49-2.93Zm3.45,0c0-.86-.39-1.47-.95-1.47s-.95.61-.95,1.47.39,1.48.95,1.48.95-.62.95-1.48Z"/>
            <path class="cls-1" d="m245.26,35.52l-.88.58-.58-1.1,1.77-1.27h1.19v5.65h-1.49v-3.86Z"/>
            <path class="cls-1" d="m247.51,36.55c0-1.71,1.03-2.92,2.49-2.92s2.49,1.21,2.49,2.92-1.03,2.93-2.49,2.93-2.49-1.21-2.49-2.93Zm3.45,0c0-.86-.39-1.47-.95-1.47s-.95.61-.95,1.47.39,1.48.95,1.48.95-.62.95-1.48Z"/>
            <path class="cls-1" d="m254.28,35.52l-.88.58-.58-1.1,1.77-1.27h1.19v5.65h-1.49v-3.86Z"/>
            <path class="cls-1" d="m256.54,36.55c0-1.71,1.03-2.92,2.49-2.92s2.49,1.21,2.49,2.92-1.03,2.93-2.49,2.93-2.49-1.21-2.49-2.93Zm3.45,0c0-.86-.39-1.47-.95-1.47s-.95.61-.95,1.47.39,1.48.95,1.48.95-.62.95-1.48Z"/>
            <path class="cls-1" d="m162.13,45.39l-.88.58-.58-1.1,1.77-1.27h1.19v5.65h-1.49v-3.86Z"/>
            <path class="cls-1" d="m164.38,46.42c0-1.71,1.03-2.92,2.49-2.92s2.49,1.21,2.49,2.92-1.03,2.93-2.49,2.93-2.49-1.21-2.49-2.93Zm3.45,0c0-.86-.39-1.47-.95-1.47s-.95.61-.95,1.47.39,1.48.95,1.48.95-.62.95-1.48Z"/>
            <path class="cls-1" d="m169.9,46.42c0-1.71,1.03-2.92,2.49-2.92s2.49,1.21,2.49,2.92-1.03,2.93-2.49,2.93-2.49-1.21-2.49-2.93Zm3.45,0c0-.86-.39-1.47-.95-1.47s-.95.61-.95,1.47.39,1.48.95,1.48.95-.62.95-1.48Z"/>
            <path class="cls-1" d="m175.42,46.42c0-1.71,1.03-2.92,2.49-2.92s2.49,1.21,2.49,2.92-1.03,2.93-2.49,2.93-2.49-1.21-2.49-2.93Zm3.45,0c0-.86-.39-1.47-.95-1.47s-.95.61-.95,1.47.39,1.48.95,1.48.95-.62.95-1.48Z"/>
            <path class="cls-1" d="m182.18,45.39l-.88.58-.58-1.1,1.77-1.27h1.19v5.65h-1.49v-3.86Z"/>
            <path class="cls-1" d="m185.68,45.39l-.88.58-.58-1.1,1.77-1.27h1.19v5.65h-1.49v-3.86Z"/>
            <path class="cls-1" d="m187.94,46.42c0-1.71,1.03-2.92,2.49-2.92s2.49,1.21,2.49,2.92-1.03,2.93-2.49,2.93-2.49-1.21-2.49-2.93Zm3.45,0c0-.86-.39-1.47-.95-1.47s-.95.61-.95,1.47.39,1.48.95,1.48.95-.62.95-1.48Z"/>
            <path class="cls-1" d="m194.7,45.39l-.88.58-.58-1.1,1.77-1.27h1.19v5.65h-1.49v-3.86Z"/>
            <path class="cls-1" d="m196.96,46.42c0-1.71,1.03-2.92,2.49-2.92s2.49,1.21,2.49,2.92-1.03,2.93-2.49,2.93-2.49-1.21-2.49-2.93Zm3.45,0c0-.86-.39-1.47-.95-1.47s-.95.61-.95,1.47.39,1.48.95,1.48.95-.62.95-1.48Z"/>
            <path class="cls-1" d="m203.72,45.39l-.88.58-.58-1.1,1.77-1.27h1.19v5.65h-1.49v-3.86Z"/>
            <path class="cls-1" d="m205.98,46.42c0-1.71,1.03-2.92,2.49-2.92s2.49,1.21,2.49,2.92-1.03,2.93-2.49,2.93-2.49-1.21-2.49-2.93Zm3.45,0c0-.86-.39-1.47-.95-1.47s-.95.61-.95,1.47.39,1.48.95,1.48.95-.62.95-1.48Z"/>
            <path class="cls-1" d="m211.5,46.42c0-1.71,1.03-2.92,2.49-2.92s2.49,1.21,2.49,2.92-1.03,2.93-2.49,2.93-2.49-1.21-2.49-2.93Zm3.45,0c0-.86-.39-1.47-.95-1.47s-.95.61-.95,1.47.39,1.48.95,1.48.95-.62.95-1.48Z"/>
            <path class="cls-1" d="m218.26,45.39l-.88.58-.58-1.1,1.77-1.27h1.19v5.65h-1.49v-3.86Z"/>
            <path class="cls-1" d="m221.77,45.39l-.88.58-.58-1.1,1.77-1.27h1.19v5.65h-1.49v-3.86Z"/>
            <path class="cls-1" d="m224.02,46.42c0-1.71,1.03-2.92,2.49-2.92s2.49,1.21,2.49,2.92-1.03,2.93-2.49,2.93-2.49-1.21-2.49-2.93Zm3.45,0c0-.86-.39-1.47-.95-1.47s-.95.61-.95,1.47.39,1.48.95,1.48.95-.62.95-1.48Z"/>
            <path class="cls-1" d="m230.79,45.39l-.88.58-.58-1.1,1.77-1.27h1.19v5.65h-1.49v-3.86Z"/>
            <path class="cls-1" d="m233.04,46.42c0-1.71,1.03-2.92,2.49-2.92s2.49,1.21,2.49,2.92-1.03,2.93-2.49,2.93-2.49-1.21-2.49-2.93Zm3.45,0c0-.86-.39-1.47-.95-1.47s-.95.61-.95,1.47.39,1.48.95,1.48.95-.62.95-1.48Z"/>
            <path class="cls-1" d="m239.81,45.39l-.88.58-.58-1.1,1.77-1.27h1.19v5.65h-1.49v-3.86Z"/>
            <path class="cls-1" d="m242.07,46.42c0-1.71,1.03-2.92,2.49-2.92s2.49,1.21,2.49,2.92-1.03,2.93-2.49,2.93-2.49-1.21-2.49-2.93Zm3.45,0c0-.86-.39-1.47-.95-1.47s-.95.61-.95,1.47.39,1.48.95,1.48.95-.62.95-1.48Z"/>
            <path class="cls-1" d="m247.58,46.42c0-1.71,1.03-2.92,2.49-2.92s2.49,1.21,2.49,2.92-1.03,2.93-2.49,2.93-2.49-1.21-2.49-2.93Zm3.45,0c0-.86-.39-1.47-.95-1.47s-.95.61-.95,1.47.39,1.48.95,1.48.95-.62.95-1.48Z"/>
            <path class="cls-1" d="m254.34,45.39l-.88.58-.58-1.1,1.77-1.27h1.19v5.65h-1.49v-3.86Z"/>
            <path class="cls-1" d="m256.6,46.42c0-1.71,1.03-2.92,2.49-2.92s2.49,1.21,2.49,2.92-1.03,2.93-2.49,2.93-2.49-1.21-2.49-2.93Zm3.45,0c0-.86-.39-1.47-.95-1.47s-.95.61-.95,1.47.39,1.48.95,1.48.95-.62.95-1.48Z"/>
            <path class="cls-1" d="m263.36,45.39l-.88.58-.58-1.1,1.77-1.27h1.19v5.65h-1.49v-3.86Z"/>
            <path class="cls-1" d="m265.62,46.42c0-1.71,1.03-2.92,2.49-2.92s2.49,1.21,2.49,2.92-1.03,2.93-2.49,2.93-2.49-1.21-2.49-2.93Zm3.45,0c0-.86-.39-1.47-.95-1.47s-.95.61-.95,1.47.39,1.48.95,1.48.95-.62.95-1.48Z"/>
            <path class="cls-1" d="m162.19,55.26l-.88.58-.58-1.1,1.77-1.27h1.19v5.65h-1.49v-3.86Z"/>
            <path class="cls-1" d="m164.45,56.29c0-1.71,1.03-2.92,2.49-2.92s2.49,1.21,2.49,2.92-1.03,2.93-2.49,2.93-2.49-1.21-2.49-2.93Zm3.45,0c0-.86-.39-1.47-.95-1.47s-.95.61-.95,1.47.39,1.48.95,1.48.95-.62.95-1.48Z"/>
            <path class="cls-1" d="m169.97,56.29c0-1.71,1.03-2.92,2.49-2.92s2.49,1.21,2.49,2.92-1.03,2.93-2.49,2.93-2.49-1.21-2.49-2.93Zm3.45,0c0-.86-.39-1.47-.95-1.47s-.95.61-.95,1.47.39,1.48.95,1.48.95-.62.95-1.48Z"/>
            <path class="cls-1" d="m175.49,56.29c0-1.71,1.03-2.92,2.49-2.92s2.49,1.21,2.49,2.92-1.03,2.93-2.49,2.93-2.49-1.21-2.49-2.93Zm3.45,0c0-.86-.39-1.47-.95-1.47s-.95.61-.95,1.47.39,1.48.95,1.48.95-.62.95-1.48Z"/>
            <path class="cls-1" d="m182.25,55.26l-.88.58-.58-1.1,1.77-1.27h1.19v5.65h-1.49v-3.86Z"/>
            <path class="cls-1" d="m185.75,55.26l-.88.58-.58-1.1,1.77-1.27h1.19v5.65h-1.49v-3.86Z"/>
            <path class="cls-1" d="m188.01,56.29c0-1.71,1.03-2.92,2.49-2.92s2.49,1.21,2.49,2.92-1.03,2.93-2.49,2.93-2.49-1.21-2.49-2.93Zm3.45,0c0-.86-.39-1.47-.95-1.47s-.95.61-.95,1.47.39,1.48.95,1.48.95-.62.95-1.48Z"/>
            <path class="cls-1" d="m194.77,55.26l-.88.58-.58-1.1,1.77-1.27h1.19v5.65h-1.49v-3.86Z"/>
            <path class="cls-1" d="m197.03,56.29c0-1.71,1.03-2.92,2.49-2.92s2.49,1.21,2.49,2.92-1.03,2.93-2.49,2.93-2.49-1.21-2.49-2.93Zm3.45,0c0-.86-.39-1.47-.95-1.47s-.95.61-.95,1.47.39,1.48.95,1.48.95-.62.95-1.48Z"/>
            <path class="cls-1" d="m203.79,55.26l-.88.58-.58-1.1,1.77-1.27h1.19v5.65h-1.49v-3.86Z"/>
            <path class="cls-1" d="m206.05,56.29c0-1.71,1.03-2.92,2.49-2.92s2.49,1.21,2.49,2.92-1.03,2.93-2.49,2.93-2.49-1.21-2.49-2.93Zm3.45,0c0-.86-.39-1.47-.95-1.47s-.95.61-.95,1.47.39,1.48.95,1.48.95-.62.95-1.48Z"/>
            <path class="cls-1" d="m211.57,56.29c0-1.71,1.03-2.92,2.49-2.92s2.49,1.21,2.49,2.92-1.03,2.93-2.49,2.93-2.49-1.21-2.49-2.93Zm3.45,0c0-.86-.39-1.47-.95-1.47s-.95.61-.95,1.47.39,1.48.95,1.48.95-.62.95-1.48Z"/>
            <path class="cls-1" d="m218.33,55.26l-.88.58-.58-1.1,1.77-1.27h1.19v5.65h-1.49v-3.86Z"/>
            <path class="cls-1" d="m221.83,55.26l-.88.58-.58-1.1,1.77-1.27h1.19v5.65h-1.49v-3.86Z"/>
            <path class="cls-1" d="m224.09,56.29c0-1.71,1.03-2.92,2.49-2.92s2.49,1.21,2.49,2.92-1.03,2.93-2.49,2.93-2.49-1.21-2.49-2.93Zm3.45,0c0-.86-.39-1.47-.95-1.47s-.95.61-.95,1.47.39,1.48.95,1.48.95-.62.95-1.48Z"/>
            <path class="cls-1" d="m230.85,55.26l-.88.58-.58-1.1,1.77-1.27h1.19v5.65h-1.49v-3.86Z"/>
            <path class="cls-1" d="m233.11,56.29c0-1.71,1.03-2.92,2.49-2.92s2.49,1.21,2.49,2.92-1.03,2.93-2.49,2.93-2.49-1.21-2.49-2.93Zm3.45,0c0-.86-.39-1.47-.95-1.47s-.95.61-.95,1.47.39,1.48.95,1.48.95-.62.95-1.48Z"/>
            <path class="cls-1" d="m239.88,55.26l-.88.58-.58-1.1,1.77-1.27h1.19v5.65h-1.49v-3.86Z"/>
            <path class="cls-1" d="m242.13,56.29c0-1.71,1.03-2.92,2.49-2.92s2.49,1.21,2.49,2.92-1.03,2.93-2.49,2.93-2.49-1.21-2.49-2.93Zm3.45,0c0-.86-.39-1.47-.95-1.47s-.95.61-.95,1.47.39,1.48.95,1.48.95-.62.95-1.48Z"/>
            <path class="cls-1" d="m247.65,56.29c0-1.71,1.03-2.92,2.49-2.92s2.49,1.21,2.49,2.92-1.03,2.93-2.49,2.93-2.49-1.21-2.49-2.93Zm3.45,0c0-.86-.39-1.47-.95-1.47s-.95.61-.95,1.47.39,1.48.95,1.48.95-.62.95-1.48Z"/>
            <path class="cls-1" d="m254.41,55.26l-.88.58-.58-1.1,1.77-1.27h1.19v5.65h-1.49v-3.86Z"/>
            <path class="cls-1" d="m256.67,56.29c0-1.71,1.03-2.92,2.49-2.92s2.49,1.21,2.49,2.92-1.03,2.93-2.49,2.93-2.49-1.21-2.49-2.93Zm3.45,0c0-.86-.39-1.47-.95-1.47s-.95.61-.95,1.47.39,1.48.95,1.48.95-.62.95-1.48Z"/>
            <path class="cls-1" d="m263.43,55.26l-.88.58-.58-1.1,1.77-1.27h1.19v5.65h-1.49v-3.86Z"/>
            <path class="cls-1" d="m265.69,56.29c0-1.71,1.03-2.92,2.49-2.92s2.49,1.21,2.49,2.92-1.03,2.93-2.49,2.93-2.49-1.21-2.49-2.93Zm3.45,0c0-.86-.39-1.47-.95-1.47s-.95.61-.95,1.47.39,1.48.95,1.48.95-.62.95-1.48Z"/>
            <path class="cls-1" d="m272.45,55.26l-.88.58-.58-1.1,1.77-1.27h1.19v5.65h-1.49v-3.86Z"/>
            <path class="cls-1" d="m274.71,56.29c0-1.71,1.03-2.92,2.49-2.92s2.49,1.21,2.49,2.92-1.03,2.93-2.49,2.93-2.49-1.21-2.49-2.93Zm3.45,0c0-.86-.39-1.47-.95-1.47s-.95.61-.95,1.47.39,1.48.95,1.48.95-.62.95-1.48Z"/>
            <path class="cls-1" d="m161.02,66.16c0-1.71,1.03-2.92,2.49-2.92s2.49,1.21,2.49,2.92-1.03,2.93-2.49,2.93-2.49-1.21-2.49-2.93Zm3.45,0c0-.86-.39-1.47-.95-1.47s-.95.61-.95,1.47.39,1.48.95,1.48.95-.62.95-1.48Z"/>
            <path class="cls-1" d="m166.53,66.16c0-1.71,1.03-2.92,2.49-2.92s2.49,1.21,2.49,2.92-1.03,2.93-2.49,2.93-2.49-1.21-2.49-2.93Zm3.45,0c0-.86-.39-1.47-.95-1.47s-.95.61-.95,1.47.39,1.48.95,1.48.95-.62.95-1.48Z"/>
            <path class="cls-1" d="m173.29,65.13l-.88.58-.58-1.1,1.77-1.27h1.19v5.65h-1.49v-3.86Z"/>
            <path class="cls-1" d="m176.8,65.13l-.88.58-.58-1.1,1.77-1.27h1.19v5.65h-1.49v-3.86Z"/>
            <path class="cls-1" d="m179.06,66.16c0-1.71,1.03-2.92,2.49-2.92s2.49,1.21,2.49,2.92-1.03,2.93-2.49,2.93-2.49-1.21-2.49-2.93Zm3.45,0c0-.86-.39-1.47-.95-1.47s-.95.61-.95,1.47.39,1.48.95,1.48.95-.62.95-1.48Z"/>
            <path class="cls-1" d="m185.82,65.13l-.88.58-.58-1.1,1.77-1.27h1.19v5.65h-1.49v-3.86Z"/>
            <path class="cls-1" d="m188.08,66.16c0-1.71,1.03-2.92,2.49-2.92s2.49,1.21,2.49,2.92-1.03,2.93-2.49,2.93-2.49-1.21-2.49-2.93Zm3.45,0c0-.86-.39-1.47-.95-1.47s-.95.61-.95,1.47.39,1.48.95,1.48.95-.62.95-1.48Z"/>
            <path class="cls-1" d="m194.84,65.13l-.88.58-.58-1.1,1.77-1.27h1.19v5.65h-1.49v-3.86Z"/>
            <path class="cls-1" d="m197.1,66.16c0-1.71,1.03-2.92,2.49-2.92s2.49,1.21,2.49,2.92-1.03,2.93-2.49,2.93-2.49-1.21-2.49-2.93Zm3.45,0c0-.86-.39-1.47-.95-1.47s-.95.61-.95,1.47.39,1.48.95,1.48.95-.62.95-1.48Z"/>
            <path class="cls-1" d="m202.62,66.16c0-1.71,1.03-2.92,2.49-2.92s2.49,1.21,2.49,2.92-1.03,2.93-2.49,2.93-2.49-1.21-2.49-2.93Zm3.45,0c0-.86-.39-1.47-.95-1.47s-.95.61-.95,1.47.39,1.48.95,1.48.95-.62.95-1.48Z"/>
            <path class="cls-1" d="m209.38,65.13l-.88.58-.58-1.1,1.77-1.27h1.19v5.65h-1.49v-3.86Z"/>
            <path class="cls-1" d="m212.88,65.13l-.88.58-.58-1.1,1.77-1.27h1.19v5.65h-1.49v-3.86Z"/>
            <path class="cls-1" d="m215.14,66.16c0-1.71,1.03-2.92,2.49-2.92s2.49,1.21,2.49,2.92-1.03,2.93-2.49,2.93-2.49-1.21-2.49-2.93Zm3.45,0c0-.86-.39-1.47-.95-1.47s-.95.61-.95,1.47.39,1.48.95,1.48.95-.62.95-1.48Z"/>
            <path class="cls-1" d="m221.9,65.13l-.88.58-.58-1.1,1.77-1.27h1.19v5.65h-1.49v-3.86Z"/>
            <path class="cls-1" d="m224.16,66.16c0-1.71,1.03-2.92,2.49-2.92s2.49,1.21,2.49,2.92-1.03,2.93-2.49,2.93-2.49-1.21-2.49-2.93Zm3.45,0c0-.86-.39-1.47-.95-1.47s-.95.61-.95,1.47.39,1.48.95,1.48.95-.62.95-1.48Z"/>
            <path class="cls-1" d="m230.92,65.13l-.88.58-.58-1.1,1.77-1.27h1.19v5.65h-1.49v-3.86Z"/>
            <path class="cls-1" d="m233.18,66.16c0-1.71,1.03-2.92,2.49-2.92s2.49,1.21,2.49,2.92-1.03,2.93-2.49,2.93-2.49-1.21-2.49-2.93Zm3.45,0c0-.86-.39-1.47-.95-1.47s-.95.61-.95,1.47.39,1.48.95,1.48.95-.62.95-1.48Z"/>
            <path class="cls-1" d="m238.7,66.16c0-1.71,1.03-2.92,2.49-2.92s2.49,1.21,2.49,2.92-1.03,2.93-2.49,2.93-2.49-1.21-2.49-2.93Zm3.45,0c0-.86-.39-1.47-.95-1.47s-.95.61-.95,1.47.39,1.48.95,1.48.95-.62.95-1.48Z"/>
            <path class="cls-1" d="m245.46,65.13l-.88.58-.58-1.1,1.77-1.27h1.19v5.65h-1.49v-3.86Z"/>
            <path class="cls-1" d="m247.72,66.16c0-1.71,1.03-2.92,2.49-2.92s2.49,1.21,2.49,2.92-1.03,2.93-2.49,2.93-2.49-1.21-2.49-2.93Zm3.45,0c0-.86-.39-1.47-.95-1.47s-.95.61-.95,1.47.39,1.48.95,1.48.95-.62.95-1.48Z"/>
            <path class="cls-1" d="m254.48,65.13l-.88.58-.58-1.1,1.77-1.27h1.19v5.65h-1.49v-3.86Z"/>
            <path class="cls-1" d="m256.74,66.16c0-1.71,1.03-2.92,2.49-2.92s2.49,1.21,2.49,2.92-1.03,2.93-2.49,2.93-2.49-1.21-2.49-2.93Zm3.45,0c0-.86-.39-1.47-.95-1.47s-.95.61-.95,1.47.39,1.48.95,1.48.95-.62.95-1.48Z"/>
            <path class="cls-1" d="m263.5,65.13l-.88.58-.58-1.1,1.77-1.27h1.19v5.65h-1.49v-3.86Z"/>
            <path class="cls-1" d="m265.76,66.16c0-1.71,1.03-2.92,2.49-2.92s2.49,1.21,2.49,2.92-1.03,2.93-2.49,2.93-2.49-1.21-2.49-2.93Zm3.45,0c0-.86-.39-1.47-.95-1.47s-.95.61-.95,1.47.39,1.48.95,1.48.95-.62.95-1.48Z"/>
            <path class="cls-1" d="m271.28,66.16c0-1.71,1.03-2.92,2.49-2.92s2.49,1.21,2.49,2.92-1.03,2.93-2.49,2.93-2.49-1.21-2.49-2.93Zm3.45,0c0-.86-.39-1.47-.95-1.47s-.95.61-.95,1.47.39,1.48.95,1.48.95-.62.95-1.48Z"/>
            <path class="cls-1" d="m276.79,66.16c0-1.71,1.03-2.92,2.49-2.92s2.49,1.21,2.49,2.92-1.03,2.93-2.49,2.93-2.49-1.21-2.49-2.93Zm3.45,0c0-.86-.39-1.47-.95-1.47s-.95.61-.95,1.47.39,1.48.95,1.48.95-.62.95-1.48Z"/>
            <path class="cls-1" d="m283.55,65.13l-.88.58-.58-1.1,1.77-1.27h1.19v5.65h-1.49v-3.86Z"/>
            <path class="cls-1" d="m287.06,65.13l-.88.58-.58-1.1,1.77-1.27h1.19v5.65h-1.49v-3.86Z"/>
            <path class="cls-1" d="m289.32,66.16c0-1.71,1.03-2.92,2.49-2.92s2.49,1.21,2.49,2.92-1.03,2.93-2.49,2.93-2.49-1.21-2.49-2.93Zm3.45,0c0-.86-.39-1.47-.95-1.47s-.95.61-.95,1.47.39,1.48.95,1.48.95-.62.95-1.48Z"/>
            <path class="cls-1" d="m162.33,75l-.88.58-.58-1.1,1.77-1.27h1.19v5.65h-1.49v-3.86Z"/>
            <path class="cls-1" d="m164.59,76.03c0-1.71,1.03-2.92,2.49-2.92s2.49,1.21,2.49,2.92-1.03,2.93-2.49,2.93-2.49-1.21-2.49-2.93Zm3.45,0c0-.86-.39-1.47-.95-1.47s-.95.61-.95,1.47.39,1.48.95,1.48.95-.62.95-1.48Z"/>
            <path class="cls-1" d="m171.35,75l-.88.58-.58-1.1,1.77-1.27h1.19v5.65h-1.49v-3.86Z"/>
            <path class="cls-1" d="m173.61,76.03c0-1.71,1.03-2.92,2.49-2.92s2.49,1.21,2.49,2.92-1.03,2.93-2.49,2.93-2.49-1.21-2.49-2.93Zm3.45,0c0-.86-.39-1.47-.95-1.47s-.95.61-.95,1.47.39,1.48.95,1.48.95-.62.95-1.48Z"/>
            <path class="cls-1" d="m179.12,76.03c0-1.71,1.03-2.92,2.49-2.92s2.49,1.21,2.49,2.92-1.03,2.93-2.49,2.93-2.49-1.21-2.49-2.93Zm3.45,0c0-.86-.39-1.47-.95-1.47s-.95.61-.95,1.47.39,1.48.95,1.48.95-.62.95-1.48Z"/>
            <path class="cls-1" d="m185.89,75l-.88.58-.58-1.1,1.77-1.27h1.19v5.65h-1.49v-3.86Z"/>
            <path class="cls-1" d="m189.39,75l-.88.58-.58-1.1,1.77-1.27h1.19v5.65h-1.49v-3.86Z"/>
            <path class="cls-1" d="m191.65,76.03c0-1.71,1.03-2.92,2.49-2.92s2.49,1.21,2.49,2.92-1.03,2.93-2.49,2.93-2.49-1.21-2.49-2.93Zm3.45,0c0-.86-.39-1.47-.95-1.47s-.95.61-.95,1.47.39,1.48.95,1.48.95-.62.95-1.48Z"/>
            <path class="cls-1" d="m198.41,75l-.88.58-.58-1.1,1.77-1.27h1.19v5.65h-1.49v-3.86Z"/>
            <path class="cls-1" d="m200.67,76.03c0-1.71,1.03-2.92,2.49-2.92s2.49,1.21,2.49,2.92-1.03,2.93-2.49,2.93-2.49-1.21-2.49-2.93Zm3.45,0c0-.86-.39-1.47-.95-1.47s-.95.61-.95,1.47.39,1.48.95,1.48.95-.62.95-1.48Z"/>
            <path class="cls-1" d="m207.43,75l-.88.58-.58-1.1,1.77-1.27h1.19v5.65h-1.49v-3.86Z"/>
            <path class="cls-1" d="m209.69,76.03c0-1.71,1.03-2.92,2.49-2.92s2.49,1.21,2.49,2.92-1.03,2.93-2.49,2.93-2.49-1.21-2.49-2.93Zm3.45,0c0-.86-.39-1.47-.95-1.47s-.95.61-.95,1.47.39,1.48.95,1.48.95-.62.95-1.48Z"/>
            <path class="cls-1" d="m215.21,76.03c0-1.71,1.03-2.92,2.49-2.92s2.49,1.21,2.49,2.92-1.03,2.93-2.49,2.93-2.49-1.21-2.49-2.93Zm3.45,0c0-.86-.39-1.47-.95-1.47s-.95.61-.95,1.47.39,1.48.95,1.48.95-.62.95-1.48Z"/>
            <path class="cls-1" d="m221.97,75l-.88.58-.58-1.1,1.77-1.27h1.19v5.65h-1.49v-3.86Z"/>
            <path class="cls-1" d="m224.23,76.03c0-1.71,1.03-2.92,2.49-2.92s2.49,1.21,2.49,2.92-1.03,2.93-2.49,2.93-2.49-1.21-2.49-2.93Zm3.45,0c0-.86-.39-1.47-.95-1.47s-.95.61-.95,1.47.39,1.48.95,1.48.95-.62.95-1.48Z"/>
            <path class="cls-1" d="m230.99,75l-.88.58-.58-1.1,1.77-1.27h1.19v5.65h-1.49v-3.86Z"/>
            <path class="cls-1" d="m233.25,76.03c0-1.71,1.03-2.92,2.49-2.92s2.49,1.21,2.49,2.92-1.03,2.93-2.49,2.93-2.49-1.21-2.49-2.93Zm3.45,0c0-.86-.39-1.47-.95-1.47s-.95.61-.95,1.47.39,1.48.95,1.48.95-.62.95-1.48Z"/>
            <path class="cls-1" d="m240.01,75l-.88.58-.58-1.1,1.77-1.27h1.19v5.65h-1.49v-3.86Z"/>
            <path class="cls-1" d="m242.27,76.03c0-1.71,1.03-2.92,2.49-2.92s2.49,1.21,2.49,2.92-1.03,2.93-2.49,2.93-2.49-1.21-2.49-2.93Zm3.45,0c0-.86-.39-1.47-.95-1.47s-.95.61-.95,1.47.39,1.48.95,1.48.95-.62.95-1.48Z"/>
            <path class="cls-1" d="m247.79,76.03c0-1.71,1.03-2.92,2.49-2.92s2.49,1.21,2.49,2.92-1.03,2.93-2.49,2.93-2.49-1.21-2.49-2.93Zm3.45,0c0-.86-.39-1.47-.95-1.47s-.95.61-.95,1.47.39,1.48.95,1.48.95-.62.95-1.48Z"/>
            <path class="cls-1" d="m253.3,76.03c0-1.71,1.03-2.92,2.49-2.92s2.49,1.21,2.49,2.92-1.03,2.93-2.49,2.93-2.49-1.21-2.49-2.93Zm3.45,0c0-.86-.39-1.47-.95-1.47s-.95.61-.95,1.47.39,1.48.95,1.48.95-.62.95-1.48Z"/>
            <path class="cls-1" d="m260.06,75l-.88.58-.58-1.1,1.77-1.27h1.19v5.65h-1.49v-3.86Z"/>
            <path class="cls-1" d="m263.57,75l-.88.58-.58-1.1,1.77-1.27h1.19v5.65h-1.49v-3.86Z"/>
            <path class="cls-1" d="m265.83,76.03c0-1.71,1.03-2.92,2.49-2.92s2.49,1.21,2.49,2.92-1.03,2.93-2.49,2.93-2.49-1.21-2.49-2.93Zm3.45,0c0-.86-.39-1.47-.95-1.47s-.95.61-.95,1.47.39,1.48.95,1.48.95-.62.95-1.48Z"/>
            <path class="cls-1" d="m272.59,75l-.88.58-.58-1.1,1.77-1.27h1.19v5.65h-1.49v-3.86Z"/>
            <path class="cls-1" d="m274.85,76.03c0-1.71,1.03-2.92,2.49-2.92s2.49,1.21,2.49,2.92-1.03,2.93-2.49,2.93-2.49-1.21-2.49-2.93Zm3.45,0c0-.86-.39-1.47-.95-1.47s-.95.61-.95,1.47.39,1.48.95,1.48.95-.62.95-1.48Z"/>
            <path class="cls-1" d="m281.61,75l-.88.58-.58-1.1,1.77-1.27h1.19v5.65h-1.49v-3.86Z"/>
            <path class="cls-1" d="m283.87,76.03c0-1.71,1.03-2.92,2.49-2.92s2.49,1.21,2.49,2.92-1.03,2.93-2.49,2.93-2.49-1.21-2.49-2.93Zm3.45,0c0-.86-.39-1.47-.95-1.47s-.95.61-.95,1.47.39,1.48.95,1.48.95-.62.95-1.48Z"/>
            <path class="cls-1" d="m289.38,76.03c0-1.71,1.03-2.92,2.49-2.92s2.49,1.21,2.49,2.92-1.03,2.93-2.49,2.93-2.49-1.21-2.49-2.93Zm3.45,0c0-.86-.39-1.47-.95-1.47s-.95.61-.95,1.47.39,1.48.95,1.48.95-.62.95-1.48Z"/>
            <path class="cls-1" d="m296.15,75l-.88.58-.58-1.1,1.77-1.27h1.19v5.65h-1.49v-3.86Z"/>
            <path class="cls-1" d="m299.65,75l-.88.58-.58-1.1,1.77-1.27h1.19v5.65h-1.49v-3.86Z"/>
            <path class="cls-1" d="m161.15,85.9c0-1.71,1.03-2.92,2.49-2.92s2.49,1.21,2.49,2.92-1.03,2.93-2.49,2.93-2.49-1.21-2.49-2.93Zm3.45,0c0-.86-.39-1.47-.95-1.47s-.95.61-.95,1.47.39,1.48.95,1.48.95-.62.95-1.48Z"/>
            <path class="cls-1" d="m167.91,84.87l-.88.58-.58-1.1,1.77-1.27h1.19v5.65h-1.49v-3.86Z"/>
            <path class="cls-1" d="m170.17,85.9c0-1.71,1.03-2.92,2.49-2.92s2.49,1.21,2.49,2.92-1.03,2.93-2.49,2.93-2.49-1.21-2.49-2.93Zm3.45,0c0-.86-.39-1.47-.95-1.47s-.95.61-.95,1.47.39,1.48.95,1.48.95-.62.95-1.48Z"/>
            <path class="cls-1" d="m176.93,84.87l-.88.58-.58-1.1,1.77-1.27h1.19v5.65h-1.49v-3.86Z"/>
            <path class="cls-1" d="m179.19,85.9c0-1.71,1.03-2.92,2.49-2.92s2.49,1.21,2.49,2.92-1.03,2.93-2.49,2.93-2.49-1.21-2.49-2.93Zm3.45,0c0-.86-.39-1.47-.95-1.47s-.95.61-.95,1.47.39,1.48.95,1.48.95-.62.95-1.48Z"/>
            <path class="cls-1" d="m184.71,85.9c0-1.71,1.03-2.92,2.49-2.92s2.49,1.21,2.49,2.92-1.03,2.93-2.49,2.93-2.49-1.21-2.49-2.93Zm3.45,0c0-.86-.39-1.47-.95-1.47s-.95.61-.95,1.47.39,1.48.95,1.48.95-.62.95-1.48Z"/>
            <path class="cls-1" d="m191.47,84.87l-.88.58-.58-1.1,1.77-1.27h1.19v5.65h-1.49v-3.86Z"/>
            <path class="cls-1" d="m193.73,85.9c0-1.71,1.03-2.92,2.49-2.92s2.49,1.21,2.49,2.92-1.03,2.93-2.49,2.93-2.49-1.21-2.49-2.93Zm3.45,0c0-.86-.39-1.47-.95-1.47s-.95.61-.95,1.47.39,1.48.95,1.48.95-.62.95-1.48Z"/>
            <path class="cls-1" d="m200.49,84.87l-.88.58-.58-1.1,1.77-1.27h1.19v5.65h-1.49v-3.86Z"/>
            <path class="cls-1" d="m202.75,85.9c0-1.71,1.03-2.92,2.49-2.92s2.49,1.21,2.49,2.92-1.03,2.93-2.49,2.93-2.49-1.21-2.49-2.93Zm3.45,0c0-.86-.39-1.47-.95-1.47s-.95.61-.95,1.47.39,1.48.95,1.48.95-.62.95-1.48Z"/>
            <path class="cls-1" d="m209.51,84.87l-.88.58-.58-1.1,1.77-1.27h1.19v5.65h-1.49v-3.86Z"/>
            <path class="cls-1" d="m211.77,85.9c0-1.71,1.03-2.92,2.49-2.92s2.49,1.21,2.49,2.92-1.03,2.93-2.49,2.93-2.49-1.21-2.49-2.93Zm3.45,0c0-.86-.39-1.47-.95-1.47s-.95.61-.95,1.47.39,1.48.95,1.48.95-.62.95-1.48Z"/>
            <path class="cls-1" d="m217.29,85.9c0-1.71,1.03-2.92,2.49-2.92s2.49,1.21,2.49,2.92-1.03,2.93-2.49,2.93-2.49-1.21-2.49-2.93Zm3.45,0c0-.86-.39-1.47-.95-1.47s-.95.61-.95,1.47.39,1.48.95,1.48.95-.62.95-1.48Z"/>
            <path class="cls-1" d="m222.8,85.9c0-1.71,1.03-2.92,2.49-2.92s2.49,1.21,2.49,2.92-1.03,2.93-2.49,2.93-2.49-1.21-2.49-2.93Zm3.45,0c0-.86-.39-1.47-.95-1.47s-.95.61-.95,1.47.39,1.48.95,1.48.95-.62.95-1.48Z"/>
            <path class="cls-1" d="m229.57,84.87l-.88.58-.58-1.1,1.77-1.27h1.19v5.65h-1.49v-3.86Z"/>
            <path class="cls-1" d="m233.07,84.87l-.88.58-.58-1.1,1.77-1.27h1.19v5.65h-1.49v-3.86Z"/>
            <path class="cls-1" d="m235.33,85.9c0-1.71,1.03-2.92,2.49-2.92s2.49,1.21,2.49,2.92-1.03,2.93-2.49,2.93-2.49-1.21-2.49-2.93Zm3.45,0c0-.86-.39-1.47-.95-1.47s-.95.61-.95,1.47.39,1.48.95,1.48.95-.62.95-1.48Z"/>
            <path class="cls-1" d="m242.09,84.87l-.88.58-.58-1.1,1.77-1.27h1.19v5.65h-1.49v-3.86Z"/>
            <path class="cls-1" d="m244.35,85.9c0-1.71,1.03-2.92,2.49-2.92s2.49,1.21,2.49,2.92-1.03,2.93-2.49,2.93-2.49-1.21-2.49-2.93Zm3.45,0c0-.86-.39-1.47-.95-1.47s-.95.61-.95,1.47.39,1.48.95,1.48.95-.62.95-1.48Z"/>
            <path class="cls-1" d="m251.11,84.87l-.88.58-.58-1.1,1.77-1.27h1.19v5.65h-1.49v-3.86Z"/>
            <path class="cls-1" d="m253.37,85.9c0-1.71,1.03-2.92,2.49-2.92s2.49,1.21,2.49,2.92-1.03,2.93-2.49,2.93-2.49-1.21-2.49-2.93Zm3.45,0c0-.86-.39-1.47-.95-1.47s-.95.61-.95,1.47.39,1.48.95,1.48.95-.62.95-1.48Z"/>
            <path class="cls-1" d="m258.89,85.9c0-1.71,1.03-2.92,2.49-2.92s2.49,1.21,2.49,2.92-1.03,2.93-2.49,2.93-2.49-1.21-2.49-2.93Zm3.45,0c0-.86-.39-1.47-.95-1.47s-.95.61-.95,1.47.39,1.48.95,1.48.95-.62.95-1.48Z"/>
            <path class="cls-1" d="m265.65,84.87l-.88.58-.58-1.1,1.77-1.27h1.19v5.65h-1.49v-3.86Z"/>
            <path class="cls-1" d="m269.15,84.87l-.88.58-.58-1.1,1.77-1.27h1.19v5.65h-1.49v-3.86Z"/>
            <path class="cls-1" d="m271.41,85.9c0-1.71,1.03-2.92,2.49-2.92s2.49,1.21,2.49,2.92-1.03,2.93-2.49,2.93-2.49-1.21-2.49-2.93Zm3.45,0c0-.86-.39-1.47-.95-1.47s-.95.61-.95,1.47.39,1.48.95,1.48.95-.62.95-1.48Z"/>
            <path class="cls-1" d="m278.17,84.87l-.88.58-.58-1.1,1.77-1.27h1.19v5.65h-1.49v-3.86Z"/>
            <path class="cls-1" d="m280.43,85.9c0-1.71,1.03-2.92,2.49-2.92s2.49,1.21,2.49,2.92-1.03,2.93-2.49,2.93-2.49-1.21-2.49-2.93Zm3.45,0c0-.86-.39-1.47-.95-1.47s-.95.61-.95,1.47.39,1.48.95,1.48.95-.62.95-1.48Z"/>
            <path class="cls-1" d="m287.19,84.87l-.88.58-.58-1.1,1.77-1.27h1.19v5.65h-1.49v-3.86Z"/>
            <path class="cls-1" d="m289.45,85.9c0-1.71,1.03-2.92,2.49-2.92s2.49,1.21,2.49,2.92-1.03,2.93-2.49,2.93-2.49-1.21-2.49-2.93Zm3.45,0c0-.86-.39-1.47-.95-1.47s-.95.61-.95,1.47.39,1.48.95,1.48.95-.62.95-1.48Z"/>
            <path class="cls-1" d="m294.97,85.9c0-1.71,1.03-2.92,2.49-2.92s2.49,1.21,2.49,2.92-1.03,2.93-2.49,2.93-2.49-1.21-2.49-2.93Zm3.45,0c0-.86-.39-1.47-.95-1.47s-.95.61-.95,1.47.39,1.48.95,1.48.95-.62.95-1.48Z"/>
            <path class="cls-1" d="m301.73,84.87l-.88.58-.58-1.1,1.77-1.27h1.19v5.65h-1.49v-3.86Z"/>
            <path class="cls-1" d="m303.99,85.9c0-1.71,1.03-2.92,2.49-2.92s2.49,1.21,2.49,2.92-1.03,2.93-2.49,2.93-2.49-1.21-2.49-2.93Zm3.45,0c0-.86-.39-1.47-.95-1.47s-.95.61-.95,1.47.39,1.48.95,1.48.95-.62.95-1.48Z"/>
            <path class="cls-1" d="m310.75,84.87l-.88.58-.58-1.1,1.77-1.27h1.19v5.65h-1.49v-3.86Z"/>
            <path class="cls-1" d="m161.22,95.77c0-1.71,1.03-2.92,2.49-2.92s2.49,1.21,2.49,2.92-1.03,2.93-2.49,2.93-2.49-1.21-2.49-2.93Zm3.45,0c0-.86-.39-1.47-.95-1.47s-.95.61-.95,1.47.39,1.48.95,1.48.95-.62.95-1.48Z"/>
            <path class="cls-1" d="m167.98,94.74l-.88.58-.58-1.1,1.77-1.27h1.19v5.65h-1.49v-3.86Z"/>
            <path class="cls-1" d="m170.24,95.77c0-1.71,1.03-2.92,2.49-2.92s2.49,1.21,2.49,2.92-1.03,2.93-2.49,2.93-2.49-1.21-2.49-2.93Zm3.45,0c0-.86-.39-1.47-.95-1.47s-.95.61-.95,1.47.39,1.48.95,1.48.95-.62.95-1.48Z"/>
            <path class="cls-1" d="m175.76,95.77c0-1.71,1.03-2.92,2.49-2.92s2.49,1.21,2.49,2.92-1.03,2.93-2.49,2.93-2.49-1.21-2.49-2.93Zm3.45,0c0-.86-.39-1.47-.95-1.47s-.95.61-.95,1.47.39,1.48.95,1.48.95-.62.95-1.48Z"/>
            <path class="cls-1" d="m181.27,95.77c0-1.71,1.03-2.92,2.49-2.92s2.49,1.21,2.49,2.92-1.03,2.93-2.49,2.93-2.49-1.21-2.49-2.93Zm3.45,0c0-.86-.39-1.47-.95-1.47s-.95.61-.95,1.47.39,1.48.95,1.48.95-.62.95-1.48Z"/>
            <path class="cls-1" d="m188.03,94.74l-.88.58-.58-1.1,1.77-1.27h1.19v5.65h-1.49v-3.86Z"/>
            <path class="cls-1" d="m191.54,94.74l-.88.58-.58-1.1,1.77-1.27h1.19v5.65h-1.49v-3.86Z"/>
            <path class="cls-1" d="m193.8,95.77c0-1.71,1.03-2.92,2.49-2.92s2.49,1.21,2.49,2.92-1.03,2.93-2.49,2.93-2.49-1.21-2.49-2.93Zm3.45,0c0-.86-.39-1.47-.95-1.47s-.95.61-.95,1.47.39,1.48.95,1.48.95-.62.95-1.48Z"/>
            <path class="cls-1" d="m200.56,94.74l-.88.58-.58-1.1,1.77-1.27h1.19v5.65h-1.49v-3.86Z"/>
            <path class="cls-1" d="m202.82,95.77c0-1.71,1.03-2.92,2.49-2.92s2.49,1.21,2.49,2.92-1.03,2.93-2.49,2.93-2.49-1.21-2.49-2.93Zm3.45,0c0-.86-.39-1.47-.95-1.47s-.95.61-.95,1.47.39,1.48.95,1.48.95-.62.95-1.48Z"/>
            <path class="cls-1" d="m209.58,94.74l-.88.58-.58-1.1,1.77-1.27h1.19v5.65h-1.49v-3.86Z"/>
            <path class="cls-1" d="m211.84,95.77c0-1.71,1.03-2.92,2.49-2.92s2.49,1.21,2.49,2.92-1.03,2.93-2.49,2.93-2.49-1.21-2.49-2.93Zm3.45,0c0-.86-.39-1.47-.95-1.47s-.95.61-.95,1.47.39,1.48.95,1.48.95-.62.95-1.48Z"/>
            <path class="cls-1" d="m217.35,95.77c0-1.71,1.03-2.92,2.49-2.92s2.49,1.21,2.49,2.92-1.03,2.93-2.49,2.93-2.49-1.21-2.49-2.93Zm3.45,0c0-.86-.39-1.47-.95-1.47s-.95.61-.95,1.47.39,1.48.95,1.48.95-.62.95-1.48Z"/>
            <path class="cls-1" d="m224.12,94.74l-.88.58-.58-1.1,1.77-1.27h1.19v5.65h-1.49v-3.86Z"/>
            <path class="cls-1" d="m227.62,94.74l-.88.58-.58-1.1,1.77-1.27h1.19v5.65h-1.49v-3.86Z"/>
            <path class="cls-1" d="m229.88,95.77c0-1.71,1.03-2.92,2.49-2.92s2.49,1.21,2.49,2.92-1.03,2.93-2.49,2.93-2.49-1.21-2.49-2.93Zm3.45,0c0-.86-.39-1.47-.95-1.47s-.95.61-.95,1.47.39,1.48.95,1.48.95-.62.95-1.48Z"/>
            <path class="cls-1" d="m236.64,94.74l-.88.58-.58-1.1,1.77-1.27h1.19v5.65h-1.49v-3.86Z"/>
            <path class="cls-1" d="m238.9,95.77c0-1.71,1.03-2.92,2.49-2.92s2.49,1.21,2.49,2.92-1.03,2.93-2.49,2.93-2.49-1.21-2.49-2.93Zm3.45,0c0-.86-.39-1.47-.95-1.47s-.95.61-.95,1.47.39,1.48.95,1.48.95-.62.95-1.48Z"/>
            <path class="cls-1" d="m245.66,94.74l-.88.58-.58-1.1,1.77-1.27h1.19v5.65h-1.49v-3.86Z"/>
            <path class="cls-1" d="m247.92,95.77c0-1.71,1.03-2.92,2.49-2.92s2.49,1.21,2.49,2.92-1.03,2.93-2.49,2.93-2.49-1.21-2.49-2.93Zm3.45,0c0-.86-.39-1.47-.95-1.47s-.95.61-.95,1.47.39,1.48.95,1.48.95-.62.95-1.48Z"/>
            <path class="cls-1" d="m253.44,95.77c0-1.71,1.03-2.92,2.49-2.92s2.49,1.21,2.49,2.92-1.03,2.93-2.49,2.93-2.49-1.21-2.49-2.93Zm3.45,0c0-.86-.39-1.47-.95-1.47s-.95.61-.95,1.47.39,1.48.95,1.48.95-.62.95-1.48Z"/>
            <path class="cls-1" d="m260.2,94.74l-.88.58-.58-1.1,1.77-1.27h1.19v5.65h-1.49v-3.86Z"/>
            <path class="cls-1" d="m262.46,95.77c0-1.71,1.03-2.92,2.49-2.92s2.49,1.21,2.49,2.92-1.03,2.93-2.49,2.93-2.49-1.21-2.49-2.93Zm3.45,0c0-.86-.39-1.47-.95-1.47s-.95.61-.95,1.47.39,1.48.95,1.48.95-.62.95-1.48Z"/>
            <path class="cls-1" d="m269.22,94.74l-.88.58-.58-1.1,1.77-1.27h1.19v5.65h-1.49v-3.86Z"/>
            <path class="cls-1" d="m271.48,95.77c0-1.71,1.03-2.92,2.49-2.92s2.49,1.21,2.49,2.92-1.03,2.93-2.49,2.93-2.49-1.21-2.49-2.93Zm3.45,0c0-.86-.39-1.47-.95-1.47s-.95.61-.95,1.47.39,1.48.95,1.48.95-.62.95-1.48Z"/>
            <path class="cls-1" d="m278.24,94.74l-.88.58-.58-1.1,1.77-1.27h1.19v5.65h-1.49v-3.86Z"/>
            <path class="cls-1" d="m280.5,95.77c0-1.71,1.03-2.92,2.49-2.92s2.49,1.21,2.49,2.92-1.03,2.93-2.49,2.93-2.49-1.21-2.49-2.93Zm3.45,0c0-.86-.39-1.47-.95-1.47s-.95.61-.95,1.47.39,1.48.95,1.48.95-.62.95-1.48Z"/>
            <path class="cls-1" d="m286.01,95.77c0-1.71,1.03-2.92,2.49-2.92s2.49,1.21,2.49,2.92-1.03,2.93-2.49,2.93-2.49-1.21-2.49-2.93Zm3.45,0c0-.86-.39-1.47-.95-1.47s-.95.61-.95,1.47.39,1.48.95,1.48.95-.62.95-1.48Z"/>
            <path class="cls-1" d="m291.53,95.77c0-1.71,1.03-2.92,2.49-2.92s2.49,1.21,2.49,2.92-1.03,2.93-2.49,2.93-2.49-1.21-2.49-2.93Zm3.45,0c0-.86-.39-1.47-.95-1.47s-.95.61-.95,1.47.39,1.48.95,1.48.95-.62.95-1.48Z"/>
            <path class="cls-1" d="m298.29,94.74l-.88.58-.58-1.1,1.77-1.27h1.19v5.65h-1.49v-3.86Z"/>
            <path class="cls-1" d="m301.8,94.74l-.88.58-.58-1.1,1.77-1.27h1.19v5.65h-1.49v-3.86Z"/>
            <path class="cls-1" d="m161.29,105.64c0-1.71,1.03-2.92,2.49-2.92s2.49,1.21,2.49,2.92-1.03,2.93-2.49,2.93-2.49-1.21-2.49-2.93Zm3.45,0c0-.86-.39-1.47-.95-1.47s-.95.61-.95,1.47.39,1.48.95,1.48.95-.62.95-1.48Z"/>
            <path class="cls-1" d="m168.05,104.61l-.88.58-.58-1.1,1.77-1.27h1.19v5.65h-1.49v-3.86Z"/>
            <path class="cls-1" d="m170.31,105.64c0-1.71,1.03-2.92,2.49-2.92s2.49,1.21,2.49,2.92-1.03,2.93-2.49,2.93-2.49-1.21-2.49-2.93Zm3.45,0c0-.86-.39-1.47-.95-1.47s-.95.61-.95,1.47.39,1.48.95,1.48.95-.62.95-1.48Z"/>
            <path class="cls-1" d="m177.07,104.61l-.88.58-.58-1.1,1.77-1.27h1.19v5.65h-1.49v-3.86Z"/>
            <path class="cls-1" d="m179.33,105.64c0-1.71,1.03-2.92,2.49-2.92s2.49,1.21,2.49,2.92-1.03,2.93-2.49,2.93-2.49-1.21-2.49-2.93Zm3.45,0c0-.86-.39-1.47-.95-1.47s-.95.61-.95,1.47.39,1.48.95,1.48.95-.62.95-1.48Z"/>
            <path class="cls-1" d="m184.84,105.64c0-1.71,1.03-2.92,2.49-2.92s2.49,1.21,2.49,2.92-1.03,2.93-2.49,2.93-2.49-1.21-2.49-2.93Zm3.45,0c0-.86-.39-1.47-.95-1.47s-.95.61-.95,1.47.39,1.48.95,1.48.95-.62.95-1.48Z"/>
            <path class="cls-1" d="m191.61,104.61l-.88.58-.58-1.1,1.77-1.27h1.19v5.65h-1.49v-3.86Z"/>
            <path class="cls-1" d="m195.11,104.61l-.88.58-.58-1.1,1.77-1.27h1.19v5.65h-1.49v-3.86Z"/>
            <path class="cls-1" d="m197.37,105.64c0-1.71,1.03-2.92,2.49-2.92s2.49,1.21,2.49,2.92-1.03,2.93-2.49,2.93-2.49-1.21-2.49-2.93Zm3.45,0c0-.86-.39-1.47-.95-1.47s-.95.61-.95,1.47.39,1.48.95,1.48.95-.62.95-1.48Z"/>
            <path class="cls-1" d="m204.13,104.61l-.88.58-.58-1.1,1.77-1.27h1.19v5.65h-1.49v-3.86Z"/>
            <path class="cls-1" d="m206.39,105.64c0-1.71,1.03-2.92,2.49-2.92s2.49,1.21,2.49,2.92-1.03,2.93-2.49,2.93-2.49-1.21-2.49-2.93Zm3.45,0c0-.86-.39-1.47-.95-1.47s-.95.61-.95,1.47.39,1.48.95,1.48.95-.62.95-1.48Z"/>
            <path class="cls-1" d="m213.15,104.61l-.88.58-.58-1.1,1.77-1.27h1.19v5.65h-1.49v-3.86Z"/>
            <path class="cls-1" d="m215.41,105.64c0-1.71,1.03-2.92,2.49-2.92s2.49,1.21,2.49,2.92-1.03,2.93-2.49,2.93-2.49-1.21-2.49-2.93Zm3.45,0c0-.86-.39-1.47-.95-1.47s-.95.61-.95,1.47.39,1.48.95,1.48.95-.62.95-1.48Z"/>
            <path class="cls-1" d="m220.93,105.64c0-1.71,1.03-2.92,2.49-2.92s2.49,1.21,2.49,2.92-1.03,2.93-2.49,2.93-2.49-1.21-2.49-2.93Zm3.45,0c0-.86-.39-1.47-.95-1.47s-.95.61-.95,1.47.39,1.48.95,1.48.95-.62.95-1.48Z"/>
            <path class="cls-1" d="m227.69,104.61l-.88.58-.58-1.1,1.77-1.27h1.19v5.65h-1.49v-3.86Z"/>
            <path class="cls-1" d="m229.95,105.64c0-1.71,1.03-2.92,2.49-2.92s2.49,1.21,2.49,2.92-1.03,2.93-2.49,2.93-2.49-1.21-2.49-2.93Zm3.45,0c0-.86-.39-1.47-.95-1.47s-.95.61-.95,1.47.39,1.48.95,1.48.95-.62.95-1.48Z"/>
            <path class="cls-1" d="m236.71,104.61l-.88.58-.58-1.1,1.77-1.27h1.19v5.65h-1.49v-3.86Z"/>
            <path class="cls-1" d="m238.97,105.64c0-1.71,1.03-2.92,2.49-2.92s2.49,1.21,2.49,2.92-1.03,2.93-2.49,2.93-2.49-1.21-2.49-2.93Zm3.45,0c0-.86-.39-1.47-.95-1.47s-.95.61-.95,1.47.39,1.48.95,1.48.95-.62.95-1.48Z"/>
            <path class="cls-1" d="m245.73,104.61l-.88.58-.58-1.1,1.77-1.27h1.19v5.65h-1.49v-3.86Z"/>
            <path class="cls-1" d="m247.99,105.64c0-1.71,1.03-2.92,2.49-2.92s2.49,1.21,2.49,2.92-1.03,2.93-2.49,2.93-2.49-1.21-2.49-2.93Zm3.45,0c0-.86-.39-1.47-.95-1.47s-.95.61-.95,1.47.39,1.48.95,1.48.95-.62.95-1.48Z"/>
            <path class="cls-1" d="m253.5,105.64c0-1.71,1.03-2.92,2.49-2.92s2.49,1.21,2.49,2.92-1.03,2.93-2.49,2.93-2.49-1.21-2.49-2.93Zm3.45,0c0-.86-.39-1.47-.95-1.47s-.95.61-.95,1.47.39,1.48.95,1.48.95-.62.95-1.48Z"/>
            <path class="cls-1" d="m259.02,105.64c0-1.71,1.03-2.92,2.49-2.92s2.49,1.21,2.49,2.92-1.03,2.93-2.49,2.93-2.49-1.21-2.49-2.93Zm3.45,0c0-.86-.39-1.47-.95-1.47s-.95.61-.95,1.47.39,1.48.95,1.48.95-.62.95-1.48Z"/>
            <path class="cls-1" d="m265.78,104.61l-.88.58-.58-1.1,1.77-1.27h1.19v5.65h-1.49v-3.86Z"/>
            <path class="cls-1" d="m269.29,104.61l-.88.58-.58-1.1,1.77-1.27h1.19v5.65h-1.49v-3.86Z"/>
            <path class="cls-1" d="m271.54,105.64c0-1.71,1.03-2.92,2.49-2.92s2.49,1.21,2.49,2.92-1.03,2.93-2.49,2.93-2.49-1.21-2.49-2.93Zm3.45,0c0-.86-.39-1.47-.95-1.47s-.95.61-.95,1.47.39,1.48.95,1.48.95-.62.95-1.48Z"/>
            <path class="cls-1" d="m278.31,104.61l-.88.58-.58-1.1,1.77-1.27h1.19v5.65h-1.49v-3.86Z"/>
            <path class="cls-1" d="m280.57,105.64c0-1.71,1.03-2.92,2.49-2.92s2.49,1.21,2.49,2.92-1.03,2.93-2.49,2.93-2.49-1.21-2.49-2.93Zm3.45,0c0-.86-.39-1.47-.95-1.47s-.95.61-.95,1.47.39,1.48.95,1.48.95-.62.95-1.48Z"/>
            <path class="cls-1" d="m287.33,104.61l-.88.58-.58-1.1,1.77-1.27h1.19v5.65h-1.49v-3.86Z"/>
            <path class="cls-1" d="m289.59,105.64c0-1.71,1.03-2.92,2.49-2.92s2.49,1.21,2.49,2.92-1.03,2.93-2.49,2.93-2.49-1.21-2.49-2.93Zm3.45,0c0-.86-.39-1.47-.95-1.47s-.95.61-.95,1.47.39,1.48.95,1.48.95-.62.95-1.48Z"/>
            <path class="cls-1" d="m161.35,115.51c0-1.71,1.03-2.92,2.49-2.92s2.49,1.21,2.49,2.92-1.03,2.93-2.49,2.93-2.49-1.21-2.49-2.93Zm3.45,0c0-.86-.39-1.47-.95-1.47s-.95.61-.95,1.47.39,1.48.95,1.48.95-.62.95-1.48Z"/>
            <path class="cls-1" d="m168.12,114.48l-.88.58-.58-1.1,1.77-1.27h1.19v5.65h-1.49v-3.86Z"/>
            <path class="cls-1" d="m171.62,114.48l-.88.58-.58-1.1,1.77-1.27h1.19v5.65h-1.49v-3.86Z"/>
            <path class="cls-1" d="m173.88,115.51c0-1.71,1.03-2.92,2.49-2.92s2.49,1.21,2.49,2.92-1.03,2.93-2.49,2.93-2.49-1.21-2.49-2.93Zm3.45,0c0-.86-.39-1.47-.95-1.47s-.95.61-.95,1.47.39,1.48.95,1.48.95-.62.95-1.48Z"/>
            <path class="cls-1" d="m180.64,114.48l-.88.58-.58-1.1,1.77-1.27h1.19v5.65h-1.49v-3.86Z"/>
            <path class="cls-1" d="m182.9,115.51c0-1.71,1.03-2.92,2.49-2.92s2.49,1.21,2.49,2.92-1.03,2.93-2.49,2.93-2.49-1.21-2.49-2.93Zm3.45,0c0-.86-.39-1.47-.95-1.47s-.95.61-.95,1.47.39,1.48.95,1.48.95-.62.95-1.48Z"/>
            <path class="cls-1" d="m189.66,114.48l-.88.58-.58-1.1,1.77-1.27h1.19v5.65h-1.49v-3.86Z"/>
            <path class="cls-1" d="m191.92,115.51c0-1.71,1.03-2.92,2.49-2.92s2.49,1.21,2.49,2.92-1.03,2.93-2.49,2.93-2.49-1.21-2.49-2.93Zm3.45,0c0-.86-.39-1.47-.95-1.47s-.95.61-.95,1.47.39,1.48.95,1.48.95-.62.95-1.48Z"/>
            <path class="cls-1" d="m197.44,115.51c0-1.71,1.03-2.92,2.49-2.92s2.49,1.21,2.49,2.92-1.03,2.93-2.49,2.93-2.49-1.21-2.49-2.93Zm3.45,0c0-.86-.39-1.47-.95-1.47s-.95.61-.95,1.47.39,1.48.95,1.48.95-.62.95-1.48Z"/>
            <path class="cls-1" d="m204.2,114.48l-.88.58-.58-1.1,1.77-1.27h1.19v5.65h-1.49v-3.86Z"/>
            <path class="cls-1" d="m206.46,115.51c0-1.71,1.03-2.92,2.49-2.92s2.49,1.21,2.49,2.92-1.03,2.93-2.49,2.93-2.49-1.21-2.49-2.93Zm3.45,0c0-.86-.39-1.47-.95-1.47s-.95.61-.95,1.47.39,1.48.95,1.48.95-.62.95-1.48Z"/>
            <path class="cls-1" d="m213.22,114.48l-.88.58-.58-1.1,1.77-1.27h1.19v5.65h-1.49v-3.86Z"/>
            <path class="cls-1" d="m215.48,115.51c0-1.71,1.03-2.92,2.49-2.92s2.49,1.21,2.49,2.92-1.03,2.93-2.49,2.93-2.49-1.21-2.49-2.93Zm3.45,0c0-.86-.39-1.47-.95-1.47s-.95.61-.95,1.47.39,1.48.95,1.48.95-.62.95-1.48Z"/>
            <path class="cls-1" d="m222.24,114.48l-.88.58-.58-1.1,1.77-1.27h1.19v5.65h-1.49v-3.86Z"/>
            <path class="cls-1" d="m224.5,115.51c0-1.71,1.03-2.92,2.49-2.92s2.49,1.21,2.49,2.92-1.03,2.93-2.49,2.93-2.49-1.21-2.49-2.93Zm3.45,0c0-.86-.39-1.47-.95-1.47s-.95.61-.95,1.47.39,1.48.95,1.48.95-.62.95-1.48Z"/>
            <path class="cls-1" d="m230.01,115.51c0-1.71,1.03-2.92,2.49-2.92s2.49,1.21,2.49,2.92-1.03,2.93-2.49,2.93-2.49-1.21-2.49-2.93Zm3.45,0c0-.86-.39-1.47-.95-1.47s-.95.61-.95,1.47.39,1.48.95,1.48.95-.62.95-1.48Z"/>
            <path class="cls-1" d="m235.53,115.51c0-1.71,1.03-2.92,2.49-2.92s2.49,1.21,2.49,2.92-1.03,2.93-2.49,2.93-2.49-1.21-2.49-2.93Zm3.45,0c0-.86-.39-1.47-.95-1.47s-.95.61-.95,1.47.39,1.48.95,1.48.95-.62.95-1.48Z"/>
            <path class="cls-1" d="m242.29,114.48l-.88.58-.58-1.1,1.77-1.27h1.19v5.65h-1.49v-3.86Z"/>
            <path class="cls-1" d="m245.8,114.48l-.88.58-.58-1.1,1.77-1.27h1.19v5.65h-1.49v-3.86Z"/>
            <path class="cls-1" d="m248.05,115.51c0-1.71,1.03-2.92,2.49-2.92s2.49,1.21,2.49,2.92-1.03,2.93-2.49,2.93-2.49-1.21-2.49-2.93Zm3.45,0c0-.86-.39-1.47-.95-1.47s-.95.61-.95,1.47.39,1.48.95,1.48.95-.62.95-1.48Z"/>
            <path class="cls-1" d="m254.82,114.48l-.88.58-.58-1.1,1.77-1.27h1.19v5.65h-1.49v-3.86Z"/>
            <path class="cls-1" d="m257.08,115.51c0-1.71,1.03-2.92,2.49-2.92s2.49,1.21,2.49,2.92-1.03,2.93-2.49,2.93-2.49-1.21-2.49-2.93Zm3.45,0c0-.86-.39-1.47-.95-1.47s-.95.61-.95,1.47.39,1.48.95,1.48.95-.62.95-1.48Z"/>
            <path class="cls-1" d="m263.84,114.48l-.88.58-.58-1.1,1.77-1.27h1.19v5.65h-1.49v-3.86Z"/>
            <path class="cls-1" d="m266.1,115.51c0-1.71,1.03-2.92,2.49-2.92s2.49,1.21,2.49,2.92-1.03,2.93-2.49,2.93-2.49-1.21-2.49-2.93Zm3.45,0c0-.86-.39-1.47-.95-1.47s-.95.61-.95,1.47.39,1.48.95,1.48.95-.62.95-1.48Z"/>
            <path class="cls-1" d="m271.61,115.51c0-1.71,1.03-2.92,2.49-2.92s2.49,1.21,2.49,2.92-1.03,2.93-2.49,2.93-2.49-1.21-2.49-2.93Zm3.45,0c0-.86-.39-1.47-.95-1.47s-.95.61-.95,1.47.39,1.48.95,1.48.95-.62.95-1.48Z"/>
            <path class="cls-1" d="m278.37,114.48l-.88.58-.58-1.1,1.77-1.27h1.19v5.65h-1.49v-3.86Z"/>
            <path class="cls-1" d="m281.88,114.48l-.88.58-.58-1.1,1.77-1.27h1.19v5.65h-1.49v-3.86Z"/>
            <path class="cls-1" d="m161.42,125.38c0-1.71,1.03-2.92,2.49-2.92s2.49,1.21,2.49,2.92-1.03,2.93-2.49,2.93-2.49-1.21-2.49-2.93Zm3.45,0c0-.86-.39-1.47-.95-1.47s-.95.61-.95,1.47.39,1.48.95,1.48.95-.62.95-1.48Z"/>
            <path class="cls-1" d="m168.18,124.35l-.88.58-.58-1.1,1.77-1.27h1.19v5.65h-1.49v-3.86Z"/>
            <path class="cls-1" d="m170.44,125.38c0-1.71,1.03-2.92,2.49-2.92s2.49,1.21,2.49,2.92-1.03,2.93-2.49,2.93-2.49-1.21-2.49-2.93Zm3.45,0c0-.86-.39-1.47-.95-1.47s-.95.61-.95,1.47.39,1.48.95,1.48.95-.62.95-1.48Z"/>
            <path class="cls-1" d="m177.2,124.35l-.88.58-.58-1.1,1.77-1.27h1.19v5.65h-1.49v-3.86Z"/>
            <path class="cls-1" d="m179.46,125.38c0-1.71,1.03-2.92,2.49-2.92s2.49,1.21,2.49,2.92-1.03,2.93-2.49,2.93-2.49-1.21-2.49-2.93Zm3.45,0c0-.86-.39-1.47-.95-1.47s-.95.61-.95,1.47.39,1.48.95,1.48.95-.62.95-1.48Z"/>
            <path class="cls-1" d="m184.98,125.38c0-1.71,1.03-2.92,2.49-2.92s2.49,1.21,2.49,2.92-1.03,2.93-2.49,2.93-2.49-1.21-2.49-2.93Zm3.45,0c0-.86-.39-1.47-.95-1.47s-.95.61-.95,1.47.39,1.48.95,1.48.95-.62.95-1.48Z"/>
            <path class="cls-1" d="m191.74,124.35l-.88.58-.58-1.1,1.77-1.27h1.19v5.65h-1.49v-3.86Z"/>
            <path class="cls-1" d="m194,125.38c0-1.71,1.03-2.92,2.49-2.92s2.49,1.21,2.49,2.92-1.03,2.93-2.49,2.93-2.49-1.21-2.49-2.93Zm3.45,0c0-.86-.39-1.47-.95-1.47s-.95.61-.95,1.47.39,1.48.95,1.48.95-.62.95-1.48Z"/>
            <path class="cls-1" d="m200.76,124.35l-.88.58-.58-1.1,1.77-1.27h1.19v5.65h-1.49v-3.86Z"/>
            <path class="cls-1" d="m203.02,125.38c0-1.71,1.03-2.92,2.49-2.92s2.49,1.21,2.49,2.92-1.03,2.93-2.49,2.93-2.49-1.21-2.49-2.93Zm3.45,0c0-.86-.39-1.47-.95-1.47s-.95.61-.95,1.47.39,1.48.95,1.48.95-.62.95-1.48Z"/>
            <path class="cls-1" d="m209.78,124.35l-.88.58-.58-1.1,1.77-1.27h1.19v5.65h-1.49v-3.86Z"/>
            <path class="cls-1" d="m212.04,125.38c0-1.71,1.03-2.92,2.49-2.92s2.49,1.21,2.49,2.92-1.03,2.93-2.49,2.93-2.49-1.21-2.49-2.93Zm3.45,0c0-.86-.39-1.47-.95-1.47s-.95.61-.95,1.47.39,1.48.95,1.48.95-.62.95-1.48Z"/>
            <path class="cls-1" d="m217.56,125.38c0-1.71,1.03-2.92,2.49-2.92s2.49,1.21,2.49,2.92-1.03,2.93-2.49,2.93-2.49-1.21-2.49-2.93Zm3.45,0c0-.86-.39-1.47-.95-1.47s-.95.61-.95,1.47.39,1.48.95,1.48.95-.62.95-1.48Z"/>
            <path class="cls-1" d="m223.07,125.38c0-1.71,1.03-2.92,2.49-2.92s2.49,1.21,2.49,2.92-1.03,2.93-2.49,2.93-2.49-1.21-2.49-2.93Zm3.45,0c0-.86-.39-1.47-.95-1.47s-.95.61-.95,1.47.39,1.48.95,1.48.95-.62.95-1.48Z"/>
            <path class="cls-1" d="m229.83,124.35l-.88.58-.58-1.1,1.77-1.27h1.19v5.65h-1.49v-3.86Z"/>
            <path class="cls-1" d="m233.34,124.35l-.88.58-.58-1.1,1.77-1.27h1.19v5.65h-1.49v-3.86Z"/>
            <path class="cls-1" d="m235.6,125.38c0-1.71,1.03-2.92,2.49-2.92s2.49,1.21,2.49,2.92-1.03,2.93-2.49,2.93-2.49-1.21-2.49-2.93Zm3.45,0c0-.86-.39-1.47-.95-1.47s-.95.61-.95,1.47.39,1.48.95,1.48.95-.62.95-1.48Z"/>
            <path class="cls-1" d="m242.36,124.35l-.88.58-.58-1.1,1.77-1.27h1.19v5.65h-1.49v-3.86Z"/>
            <path class="cls-1" d="m244.62,125.38c0-1.71,1.03-2.92,2.49-2.92s2.49,1.21,2.49,2.92-1.03,2.93-2.49,2.93-2.49-1.21-2.49-2.93Zm3.45,0c0-.86-.39-1.47-.95-1.47s-.95.61-.95,1.47.39,1.48.95,1.48.95-.62.95-1.48Z"/>
            <path class="cls-1" d="m251.38,124.35l-.88.58-.58-1.1,1.77-1.27h1.19v5.65h-1.49v-3.86Z"/>
            <path class="cls-1" d="m253.64,125.38c0-1.71,1.03-2.92,2.49-2.92s2.49,1.21,2.49,2.92-1.03,2.93-2.49,2.93-2.49-1.21-2.49-2.93Zm3.45,0c0-.86-.39-1.47-.95-1.47s-.95.61-.95,1.47.39,1.48.95,1.48.95-.62.95-1.48Z"/>
            <path class="cls-1" d="m259.16,125.38c0-1.71,1.03-2.92,2.49-2.92s2.49,1.21,2.49,2.92-1.03,2.93-2.49,2.93-2.49-1.21-2.49-2.93Zm3.45,0c0-.86-.39-1.47-.95-1.47s-.95.61-.95,1.47.39,1.48.95,1.48.95-.62.95-1.48Z"/>
            <path class="cls-1" d="m265.92,124.35l-.88.58-.58-1.1,1.77-1.27h1.19v5.65h-1.49v-3.86Z"/>
            <path class="cls-1" d="m269.42,124.35l-.88.58-.58-1.1,1.77-1.27h1.19v5.65h-1.49v-3.86Z"/>
            <path class="cls-1" d="m271.68,125.38c0-1.71,1.03-2.92,2.49-2.92s2.49,1.21,2.49,2.92-1.03,2.93-2.49,2.93-2.49-1.21-2.49-2.93Zm3.45,0c0-.86-.39-1.47-.95-1.47s-.95.61-.95,1.47.39,1.48.95,1.48.95-.62.95-1.48Z"/>
            <path class="cls-1" d="m162.73,134.22l-.88.58-.58-1.1,1.77-1.27h1.19v5.65h-1.49v-3.86Z"/>
            <path class="cls-1" d="m164.99,135.25c0-1.71,1.03-2.92,2.49-2.92s2.49,1.21,2.49,2.92-1.03,2.93-2.49,2.93-2.49-1.21-2.49-2.93Zm3.45,0c0-.86-.39-1.47-.95-1.47s-.95.61-.95,1.47.39,1.48.95,1.48.95-.62.95-1.48Z"/>
            <path class="cls-1" d="m171.75,134.22l-.88.58-.58-1.1,1.77-1.27h1.19v5.65h-1.49v-3.86Z"/>
            <path class="cls-1" d="m174.01,135.25c0-1.71,1.03-2.92,2.49-2.92s2.49,1.21,2.49,2.92-1.03,2.93-2.49,2.93-2.49-1.21-2.49-2.93Zm3.45,0c0-.86-.39-1.47-.95-1.47s-.95.61-.95,1.47.39,1.48.95,1.48.95-.62.95-1.48Z"/>
            <path class="cls-1" d="m179.53,135.25c0-1.71,1.03-2.92,2.49-2.92s2.49,1.21,2.49,2.92-1.03,2.93-2.49,2.93-2.49-1.21-2.49-2.93Zm3.45,0c0-.86-.39-1.47-.95-1.47s-.95.61-.95,1.47.39,1.48.95,1.48.95-.62.95-1.48Z"/>
            <path class="cls-1" d="m186.29,134.22l-.88.58-.58-1.1,1.77-1.27h1.19v5.65h-1.49v-3.86Z"/>
            <path class="cls-1" d="m188.55,135.25c0-1.71,1.03-2.92,2.49-2.92s2.49,1.21,2.49,2.92-1.03,2.93-2.49,2.93-2.49-1.21-2.49-2.93Zm3.45,0c0-.86-.39-1.47-.95-1.47s-.95.61-.95,1.47.39,1.48.95,1.48.95-.62.95-1.48Z"/>
            <path class="cls-1" d="m195.31,134.22l-.88.58-.58-1.1,1.77-1.27h1.19v5.65h-1.49v-3.86Z"/>
            <path class="cls-1" d="m197.57,135.25c0-1.71,1.03-2.92,2.49-2.92s2.49,1.21,2.49,2.92-1.03,2.93-2.49,2.93-2.49-1.21-2.49-2.93Zm3.45,0c0-.86-.39-1.47-.95-1.47s-.95.61-.95,1.47.39,1.48.95,1.48.95-.62.95-1.48Z"/>
            <path class="cls-1" d="m204.33,134.22l-.88.58-.58-1.1,1.77-1.27h1.19v5.65h-1.49v-3.86Z"/>
            <path class="cls-1" d="m206.59,135.25c0-1.71,1.03-2.92,2.49-2.92s2.49,1.21,2.49,2.92-1.03,2.93-2.49,2.93-2.49-1.21-2.49-2.93Zm3.45,0c0-.86-.39-1.47-.95-1.47s-.95.61-.95,1.47.39,1.48.95,1.48.95-.62.95-1.48Z"/>
            <path class="cls-1" d="m212.11,135.25c0-1.71,1.03-2.92,2.49-2.92s2.49,1.21,2.49,2.92-1.03,2.93-2.49,2.93-2.49-1.21-2.49-2.93Zm3.45,0c0-.86-.39-1.47-.95-1.47s-.95.61-.95,1.47.39,1.48.95,1.48.95-.62.95-1.48Z"/>
            <path class="cls-1" d="m217.62,135.25c0-1.71,1.03-2.92,2.49-2.92s2.49,1.21,2.49,2.92-1.03,2.93-2.49,2.93-2.49-1.21-2.49-2.93Zm3.45,0c0-.86-.39-1.47-.95-1.47s-.95.61-.95,1.47.39,1.48.95,1.48.95-.62.95-1.48Z"/>
            <path class="cls-1" d="m224.39,134.22l-.88.58-.58-1.1,1.77-1.27h1.19v5.65h-1.49v-3.86Z"/>
            <path class="cls-1" d="m227.89,134.22l-.88.58-.58-1.1,1.77-1.27h1.19v5.65h-1.49v-3.86Z"/>
            <path class="cls-1" d="m230.15,135.25c0-1.71,1.03-2.92,2.49-2.92s2.49,1.21,2.49,2.92-1.03,2.93-2.49,2.93-2.49-1.21-2.49-2.93Zm3.45,0c0-.86-.39-1.47-.95-1.47s-.95.61-.95,1.47.39,1.48.95,1.48.95-.62.95-1.48Z"/>
            <path class="cls-1" d="m236.91,134.22l-.88.58-.58-1.1,1.77-1.27h1.19v5.65h-1.49v-3.86Z"/>
            <path class="cls-1" d="m239.17,135.25c0-1.71,1.03-2.92,2.49-2.92s2.49,1.21,2.49,2.92-1.03,2.93-2.49,2.93-2.49-1.21-2.49-2.93Zm3.45,0c0-.86-.39-1.47-.95-1.47s-.95.61-.95,1.47.39,1.48.95,1.48.95-.62.95-1.48Z"/>
            <path class="cls-1" d="m245.93,134.22l-.88.58-.58-1.1,1.77-1.27h1.19v5.65h-1.49v-3.86Z"/>
            <path class="cls-1" d="m248.19,135.25c0-1.71,1.03-2.92,2.49-2.92s2.49,1.21,2.49,2.92-1.03,2.93-2.49,2.93-2.49-1.21-2.49-2.93Zm3.45,0c0-.86-.39-1.47-.95-1.47s-.95.61-.95,1.47.39,1.48.95,1.48.95-.62.95-1.48Z"/>
            <path class="cls-1" d="m253.71,135.25c0-1.71,1.03-2.92,2.49-2.92s2.49,1.21,2.49,2.92-1.03,2.93-2.49,2.93-2.49-1.21-2.49-2.93Zm3.45,0c0-.86-.39-1.47-.95-1.47s-.95.61-.95,1.47.39,1.48.95,1.48.95-.62.95-1.48Z"/>
            <path class="cls-1" d="m260.47,134.22l-.88.58-.58-1.1,1.77-1.27h1.19v5.65h-1.49v-3.86Z"/>
            <path class="cls-1" d="m263.97,134.22l-.88.58-.58-1.1,1.77-1.27h1.19v5.65h-1.49v-3.86Z"/>
            <path class="cls-1" d="m161.56,145.12c0-1.71,1.03-2.92,2.49-2.92s2.49,1.21,2.49,2.92-1.03,2.93-2.49,2.93-2.49-1.21-2.49-2.93Zm3.45,0c0-.86-.39-1.47-.95-1.47s-.95.61-.95,1.47.39,1.48.95,1.48.95-.62.95-1.48Z"/>
            <path class="cls-1" d="m168.32,144.1l-.88.58-.58-1.1,1.77-1.27h1.19v5.65h-1.49v-3.86Z"/>
            <path class="cls-1" d="m170.58,145.12c0-1.71,1.03-2.92,2.49-2.92s2.49,1.21,2.49,2.92-1.03,2.93-2.49,2.93-2.49-1.21-2.49-2.93Zm3.45,0c0-.86-.39-1.47-.95-1.47s-.95.61-.95,1.47.39,1.48.95,1.48.95-.62.95-1.48Z"/>
            <path class="cls-1" d="m177.34,144.1l-.88.58-.58-1.1,1.77-1.27h1.19v5.65h-1.49v-3.86Z"/>
            <path class="cls-1" d="m179.6,145.12c0-1.71,1.03-2.92,2.49-2.92s2.49,1.21,2.49,2.92-1.03,2.93-2.49,2.93-2.49-1.21-2.49-2.93Zm3.45,0c0-.86-.39-1.47-.95-1.47s-.95.61-.95,1.47.39,1.48.95,1.48.95-.62.95-1.48Z"/>
            <path class="cls-1" d="m185.11,145.12c0-1.71,1.03-2.92,2.49-2.92s2.49,1.21,2.49,2.92-1.03,2.93-2.49,2.93-2.49-1.21-2.49-2.93Zm3.45,0c0-.86-.39-1.47-.95-1.47s-.95.61-.95,1.47.39,1.48.95,1.48.95-.62.95-1.48Z"/>
            <path class="cls-1" d="m191.88,144.1l-.88.58-.58-1.1,1.77-1.27h1.19v5.65h-1.49v-3.86Z"/>
            <path class="cls-1" d="m194.13,145.12c0-1.71,1.03-2.92,2.49-2.92s2.49,1.21,2.49,2.92-1.03,2.93-2.49,2.93-2.49-1.21-2.49-2.93Zm3.45,0c0-.86-.39-1.47-.95-1.47s-.95.61-.95,1.47.39,1.48.95,1.48.95-.62.95-1.48Z"/>
            <path class="cls-1" d="m200.9,144.1l-.88.58-.58-1.1,1.77-1.27h1.19v5.65h-1.49v-3.86Z"/>
            <path class="cls-1" d="m203.15,145.12c0-1.71,1.03-2.92,2.49-2.92s2.49,1.21,2.49,2.92-1.03,2.93-2.49,2.93-2.49-1.21-2.49-2.93Zm3.45,0c0-.86-.39-1.47-.95-1.47s-.95.61-.95,1.47.39,1.48.95,1.48.95-.62.95-1.48Z"/>
            <path class="cls-1" d="m209.92,144.1l-.88.58-.58-1.1,1.77-1.27h1.19v5.65h-1.49v-3.86Z"/>
            <path class="cls-1" d="m212.17,145.12c0-1.71,1.03-2.92,2.49-2.92s2.49,1.21,2.49,2.92-1.03,2.93-2.49,2.93-2.49-1.21-2.49-2.93Zm3.45,0c0-.86-.39-1.47-.95-1.47s-.95.61-.95,1.47.39,1.48.95,1.48.95-.62.95-1.48Z"/>
            <path class="cls-1" d="m217.69,145.12c0-1.71,1.03-2.92,2.49-2.92s2.49,1.21,2.49,2.92-1.03,2.93-2.49,2.93-2.49-1.21-2.49-2.93Zm3.45,0c0-.86-.39-1.47-.95-1.47s-.95.61-.95,1.47.39,1.48.95,1.48.95-.62.95-1.48Z"/>
            <path class="cls-1" d="m223.21,145.12c0-1.71,1.03-2.92,2.49-2.92s2.49,1.21,2.49,2.92-1.03,2.93-2.49,2.93-2.49-1.21-2.49-2.93Zm3.45,0c0-.86-.39-1.47-.95-1.47s-.95.61-.95,1.47.39,1.48.95,1.48.95-.62.95-1.48Z"/>
            <path class="cls-1" d="m229.97,144.1l-.88.58-.58-1.1,1.77-1.27h1.19v5.65h-1.49v-3.86Z"/>
            <path class="cls-1" d="m233.47,144.1l-.88.58-.58-1.1,1.77-1.27h1.19v5.65h-1.49v-3.86Z"/>
            <path class="cls-1" d="m235.73,145.12c0-1.71,1.03-2.92,2.49-2.92s2.49,1.21,2.49,2.92-1.03,2.93-2.49,2.93-2.49-1.21-2.49-2.93Zm3.45,0c0-.86-.39-1.47-.95-1.47s-.95.61-.95,1.47.39,1.48.95,1.48.95-.62.95-1.48Z"/>
            <path class="cls-1" d="m242.49,144.1l-.88.58-.58-1.1,1.77-1.27h1.19v5.65h-1.49v-3.86Z"/>
            <path class="cls-1" d="m244.75,145.12c0-1.71,1.03-2.92,2.49-2.92s2.49,1.21,2.49,2.92-1.03,2.93-2.49,2.93-2.49-1.21-2.49-2.93Zm3.45,0c0-.86-.39-1.47-.95-1.47s-.95.61-.95,1.47.39,1.48.95,1.48.95-.62.95-1.48Z"/>
            <path class="cls-1" d="m251.51,144.1l-.88.58-.58-1.1,1.77-1.27h1.19v5.65h-1.49v-3.86Z"/>
            <path class="cls-1" d="m253.77,145.12c0-1.71,1.03-2.92,2.49-2.92s2.49,1.21,2.49,2.92-1.03,2.93-2.49,2.93-2.49-1.21-2.49-2.93Zm3.45,0c0-.86-.39-1.47-.95-1.47s-.95.61-.95,1.47.39,1.48.95,1.48.95-.62.95-1.48Z"/>
            <path class="cls-1" d="m161.62,154.99c0-1.71,1.03-2.92,2.49-2.92s2.49,1.21,2.49,2.92-1.03,2.93-2.49,2.93-2.49-1.21-2.49-2.93Zm3.45,0c0-.86-.39-1.47-.95-1.47s-.95.61-.95,1.47.39,1.48.95,1.48.95-.62.95-1.48Z"/>
            <path class="cls-1" d="m168.38,153.97l-.88.58-.58-1.1,1.77-1.27h1.19v5.65h-1.49v-3.86Z"/>
            <path class="cls-1" d="m171.89,153.97l-.88.58-.58-1.1,1.77-1.27h1.19v5.65h-1.49v-3.86Z"/>
            <path class="cls-1" d="m174.15,154.99c0-1.71,1.03-2.92,2.49-2.92s2.49,1.21,2.49,2.92-1.03,2.93-2.49,2.93-2.49-1.21-2.49-2.93Zm3.45,0c0-.86-.39-1.47-.95-1.47s-.95.61-.95,1.47.39,1.48.95,1.48.95-.62.95-1.48Z"/>
            <path class="cls-1" d="m180.91,153.97l-.88.58-.58-1.1,1.77-1.27h1.19v5.65h-1.49v-3.86Z"/>
            <path class="cls-1" d="m183.17,154.99c0-1.71,1.03-2.92,2.49-2.92s2.49,1.21,2.49,2.92-1.03,2.93-2.49,2.93-2.49-1.21-2.49-2.93Zm3.45,0c0-.86-.39-1.47-.95-1.47s-.95.61-.95,1.47.39,1.48.95,1.48.95-.62.95-1.48Z"/>
            <path class="cls-1" d="m189.93,153.97l-.88.58-.58-1.1,1.77-1.27h1.19v5.65h-1.49v-3.86Z"/>
            <path class="cls-1" d="m192.19,154.99c0-1.71,1.03-2.92,2.49-2.92s2.49,1.21,2.49,2.92-1.03,2.93-2.49,2.93-2.49-1.21-2.49-2.93Zm3.45,0c0-.86-.39-1.47-.95-1.47s-.95.61-.95,1.47.39,1.48.95,1.48.95-.62.95-1.48Z"/>
            <path class="cls-1" d="m197.71,154.99c0-1.71,1.03-2.92,2.49-2.92s2.49,1.21,2.49,2.92-1.03,2.93-2.49,2.93-2.49-1.21-2.49-2.93Zm3.45,0c0-.86-.39-1.47-.95-1.47s-.95.61-.95,1.47.39,1.48.95,1.48.95-.62.95-1.48Z"/>
            <path class="cls-1" d="m204.47,153.97l-.88.58-.58-1.1,1.77-1.27h1.19v5.65h-1.49v-3.86Z"/>
            <path class="cls-1" d="m206.73,154.99c0-1.71,1.03-2.92,2.49-2.92s2.49,1.21,2.49,2.92-1.03,2.93-2.49,2.93-2.49-1.21-2.49-2.93Zm3.45,0c0-.86-.39-1.47-.95-1.47s-.95.61-.95,1.47.39,1.48.95,1.48.95-.62.95-1.48Z"/>
            <path class="cls-1" d="m213.49,153.97l-.88.58-.58-1.1,1.77-1.27h1.19v5.65h-1.49v-3.86Z"/>
            <path class="cls-1" d="m215.75,154.99c0-1.71,1.03-2.92,2.49-2.92s2.49,1.21,2.49,2.92-1.03,2.93-2.49,2.93-2.49-1.21-2.49-2.93Zm3.45,0c0-.86-.39-1.47-.95-1.47s-.95.61-.95,1.47.39,1.48.95,1.48.95-.62.95-1.48Z"/>
            <path class="cls-1" d="m222.51,153.97l-.88.58-.58-1.1,1.77-1.27h1.19v5.65h-1.49v-3.86Z"/>
            <path class="cls-1" d="m224.77,154.99c0-1.71,1.03-2.92,2.49-2.92s2.49,1.21,2.49,2.92-1.03,2.93-2.49,2.93-2.49-1.21-2.49-2.93Zm3.45,0c0-.86-.39-1.47-.95-1.47s-.95.61-.95,1.47.39,1.48.95,1.48.95-.62.95-1.48Z"/>
            <path class="cls-1" d="m230.28,154.99c0-1.71,1.03-2.92,2.49-2.92s2.49,1.21,2.49,2.92-1.03,2.93-2.49,2.93-2.49-1.21-2.49-2.93Zm3.45,0c0-.86-.39-1.47-.95-1.47s-.95.61-.95,1.47.39,1.48.95,1.48.95-.62.95-1.48Z"/>
            <path class="cls-1" d="m235.8,154.99c0-1.71,1.03-2.92,2.49-2.92s2.49,1.21,2.49,2.92-1.03,2.93-2.49,2.93-2.49-1.21-2.49-2.93Zm3.45,0c0-.86-.39-1.47-.95-1.47s-.95.61-.95,1.47.39,1.48.95,1.48.95-.62.95-1.48Z"/>
            <path class="cls-1" d="m242.56,153.97l-.88.58-.58-1.1,1.77-1.27h1.19v5.65h-1.49v-3.86Z"/>
            <path class="cls-1" d="m246.07,153.97l-.88.58-.58-1.1,1.77-1.27h1.19v5.65h-1.49v-3.86Z"/>
            <path class="cls-1" d="m161.69,164.86c0-1.71,1.03-2.92,2.49-2.92s2.49,1.21,2.49,2.92-1.03,2.93-2.49,2.93-2.49-1.21-2.49-2.93Zm3.45,0c0-.86-.39-1.47-.95-1.47s-.95.61-.95,1.47.39,1.48.95,1.48.95-.62.95-1.48Z"/>
            <path class="cls-1" d="m168.45,163.84l-.88.58-.58-1.1,1.77-1.27h1.19v5.65h-1.49v-3.86Z"/>
            <path class="cls-1" d="m170.71,164.86c0-1.71,1.03-2.92,2.49-2.92s2.49,1.21,2.49,2.92-1.03,2.93-2.49,2.93-2.49-1.21-2.49-2.93Zm3.45,0c0-.86-.39-1.47-.95-1.47s-.95.61-.95,1.47.39,1.48.95,1.48.95-.62.95-1.48Z"/>
            <path class="cls-1" d="m177.47,163.84l-.88.58-.58-1.1,1.77-1.27h1.19v5.65h-1.49v-3.86Z"/>
            <path class="cls-1" d="m179.73,164.86c0-1.71,1.03-2.92,2.49-2.92s2.49,1.21,2.49,2.92-1.03,2.93-2.49,2.93-2.49-1.21-2.49-2.93Zm3.45,0c0-.86-.39-1.47-.95-1.47s-.95.61-.95,1.47.39,1.48.95,1.48.95-.62.95-1.48Z"/>
            <path class="cls-1" d="m185.25,164.86c0-1.71,1.03-2.92,2.49-2.92s2.49,1.21,2.49,2.92-1.03,2.93-2.49,2.93-2.49-1.21-2.49-2.93Zm3.45,0c0-.86-.39-1.47-.95-1.47s-.95.61-.95,1.47.39,1.48.95,1.48.95-.62.95-1.48Z"/>
            <path class="cls-1" d="m192.01,163.84l-.88.58-.58-1.1,1.77-1.27h1.19v5.65h-1.49v-3.86Z"/>
            <path class="cls-1" d="m195.51,163.84l-.88.58-.58-1.1,1.77-1.27h1.19v5.65h-1.49v-3.86Z"/>
            <path class="cls-1" d="m197.77,164.86c0-1.71,1.03-2.92,2.49-2.92s2.49,1.21,2.49,2.92-1.03,2.93-2.49,2.93-2.49-1.21-2.49-2.93Zm3.45,0c0-.86-.39-1.47-.95-1.47s-.95.61-.95,1.47.39,1.48.95,1.48.95-.62.95-1.48Z"/>
            <path class="cls-1" d="m204.54,163.84l-.88.58-.58-1.1,1.77-1.27h1.19v5.65h-1.49v-3.86Z"/>
            <path class="cls-1" d="m206.79,164.86c0-1.71,1.03-2.92,2.49-2.92s2.49,1.21,2.49,2.92-1.03,2.93-2.49,2.93-2.49-1.21-2.49-2.93Zm3.45,0c0-.86-.39-1.47-.95-1.47s-.95.61-.95,1.47.39,1.48.95,1.48.95-.62.95-1.48Z"/>
            <path class="cls-1" d="m213.56,163.84l-.88.58-.58-1.1,1.77-1.27h1.19v5.65h-1.49v-3.86Z"/>
            <path class="cls-1" d="m215.81,164.86c0-1.71,1.03-2.92,2.49-2.92s2.49,1.21,2.49,2.92-1.03,2.93-2.49,2.93-2.49-1.21-2.49-2.93Zm3.45,0c0-.86-.39-1.47-.95-1.47s-.95.61-.95,1.47.39,1.48.95,1.48.95-.62.95-1.48Z"/>
            <path class="cls-1" d="m221.33,164.86c0-1.71,1.03-2.92,2.49-2.92s2.49,1.21,2.49,2.92-1.03,2.93-2.49,2.93-2.49-1.21-2.49-2.93Zm3.45,0c0-.86-.39-1.47-.95-1.47s-.95.61-.95,1.47.39,1.48.95,1.48.95-.62.95-1.48Z"/>
            <path class="cls-1" d="m228.09,163.84l-.88.58-.58-1.1,1.77-1.27h1.19v5.65h-1.49v-3.86Z"/>
            <path class="cls-1" d="m230.35,164.86c0-1.71,1.03-2.92,2.49-2.92s2.49,1.21,2.49,2.92-1.03,2.93-2.49,2.93-2.49-1.21-2.49-2.93Zm3.45,0c0-.86-.39-1.47-.95-1.47s-.95.61-.95,1.47.39,1.48.95,1.48.95-.62.95-1.48Z"/>
            <path class="cls-1" d="m237.11,163.84l-.88.58-.58-1.1,1.77-1.27h1.19v5.65h-1.49v-3.86Z"/>
            <path class="cls-1" d="m161.76,174.73c0-1.71,1.03-2.92,2.49-2.92s2.49,1.21,2.49,2.92-1.03,2.93-2.49,2.93-2.49-1.21-2.49-2.93Zm3.45,0c0-.86-.39-1.47-.95-1.47s-.95.61-.95,1.47.39,1.48.95,1.48.95-.62.95-1.48Z"/>
            <path class="cls-1" d="m168.52,173.71l-.88.58-.58-1.1,1.77-1.27h1.19v5.65h-1.49v-3.86Z"/>
            <path class="cls-1" d="m170.78,174.73c0-1.71,1.03-2.92,2.49-2.92s2.49,1.21,2.49,2.92-1.03,2.93-2.49,2.93-2.49-1.21-2.49-2.93Zm3.45,0c0-.86-.39-1.47-.95-1.47s-.95.61-.95,1.47.39,1.48.95,1.48.95-.62.95-1.48Z"/>
            <path class="cls-1" d="m176.29,174.73c0-1.71,1.03-2.92,2.49-2.92s2.49,1.21,2.49,2.92-1.03,2.93-2.49,2.93-2.49-1.21-2.49-2.93Zm3.45,0c0-.86-.39-1.47-.95-1.47s-.95.61-.95,1.47.39,1.48.95,1.48.95-.62.95-1.48Z"/>
            <path class="cls-1" d="m181.81,174.73c0-1.71,1.03-2.92,2.49-2.92s2.49,1.21,2.49,2.92-1.03,2.93-2.49,2.93-2.49-1.21-2.49-2.93Zm3.45,0c0-.86-.39-1.47-.95-1.47s-.95.61-.95,1.47.39,1.48.95,1.48.95-.62.95-1.48Z"/>
            <path class="cls-1" d="m188.57,173.71l-.88.58-.58-1.1,1.77-1.27h1.19v5.65h-1.49v-3.86Z"/>
            <path class="cls-1" d="m192.08,173.71l-.88.58-.58-1.1,1.77-1.27h1.19v5.65h-1.49v-3.86Z"/>
            <path class="cls-1" d="m194.34,174.73c0-1.71,1.03-2.92,2.49-2.92s2.49,1.21,2.49,2.92-1.03,2.93-2.49,2.93-2.49-1.21-2.49-2.93Zm3.45,0c0-.86-.39-1.47-.95-1.47s-.95.61-.95,1.47.39,1.48.95,1.48.95-.62.95-1.48Z"/>
            <path class="cls-1" d="m201.1,173.71l-.88.58-.58-1.1,1.77-1.27h1.19v5.65h-1.49v-3.86Z"/>
            <path class="cls-1" d="m203.36,174.73c0-1.71,1.03-2.92,2.49-2.92s2.49,1.21,2.49,2.92-1.03,2.93-2.49,2.93-2.49-1.21-2.49-2.93Zm3.45,0c0-.86-.39-1.47-.95-1.47s-.95.61-.95,1.47.39,1.48.95,1.48.95-.62.95-1.48Z"/>
            <path class="cls-1" d="m210.12,173.71l-.88.58-.58-1.1,1.77-1.27h1.19v5.65h-1.49v-3.86Z"/>
            <path class="cls-1" d="m212.38,174.73c0-1.71,1.03-2.92,2.49-2.92s2.49,1.21,2.49,2.92-1.03,2.93-2.49,2.93-2.49-1.21-2.49-2.93Zm3.45,0c0-.86-.39-1.47-.95-1.47s-.95.61-.95,1.47.39,1.48.95,1.48.95-.62.95-1.48Z"/>
            <path class="cls-1" d="m217.89,174.73c0-1.71,1.03-2.92,2.49-2.92s2.49,1.21,2.49,2.92-1.03,2.93-2.49,2.93-2.49-1.21-2.49-2.93Zm3.45,0c0-.86-.39-1.47-.95-1.47s-.95.61-.95,1.47.39,1.48.95,1.48.95-.62.95-1.48Z"/>
            <path class="cls-1" d="m224.66,173.71l-.88.58-.58-1.1,1.77-1.27h1.19v5.65h-1.49v-3.86Z"/>
            <path class="cls-1" d="m228.16,173.71l-.88.58-.58-1.1,1.77-1.27h1.19v5.65h-1.49v-3.86Z"/>
            <path class="cls-1" d="m161.83,184.6c0-1.71,1.03-2.92,2.49-2.92s2.49,1.21,2.49,2.92-1.03,2.93-2.49,2.93-2.49-1.21-2.49-2.93Zm3.45,0c0-.86-.39-1.47-.95-1.47s-.95.61-.95,1.47.39,1.48.95,1.48.95-.62.95-1.48Z"/>
            <path class="cls-1" d="m168.59,183.58l-.88.58-.58-1.1,1.77-1.27h1.19v5.65h-1.49v-3.86Z"/>
            <path class="cls-1" d="m170.85,184.6c0-1.71,1.03-2.92,2.49-2.92s2.49,1.21,2.49,2.92-1.03,2.93-2.49,2.93-2.49-1.21-2.49-2.93Zm3.45,0c0-.86-.39-1.47-.95-1.47s-.95.61-.95,1.47.39,1.48.95,1.48.95-.62.95-1.48Z"/>
            <path class="cls-1" d="m177.61,183.58l-.88.58-.58-1.1,1.77-1.27h1.19v5.65h-1.49v-3.86Z"/>
            <path class="cls-1" d="m179.87,184.6c0-1.71,1.03-2.92,2.49-2.92s2.49,1.21,2.49,2.92-1.03,2.93-2.49,2.93-2.49-1.21-2.49-2.93Zm3.45,0c0-.86-.39-1.47-.95-1.47s-.95.61-.95,1.47.39,1.48.95,1.48.95-.62.95-1.48Z"/>
            <path class="cls-1" d="m185.38,184.6c0-1.71,1.03-2.92,2.49-2.92s2.49,1.21,2.49,2.92-1.03,2.93-2.49,2.93-2.49-1.21-2.49-2.93Zm3.45,0c0-.86-.39-1.47-.95-1.47s-.95.61-.95,1.47.39,1.48.95,1.48.95-.62.95-1.48Z"/>
            <path class="cls-1" d="m192.15,183.58l-.88.58-.58-1.1,1.77-1.27h1.19v5.65h-1.49v-3.86Z"/>
            <path class="cls-1" d="m194.4,184.6c0-1.71,1.03-2.92,2.49-2.92s2.49,1.21,2.49,2.92-1.03,2.93-2.49,2.93-2.49-1.21-2.49-2.93Zm3.45,0c0-.86-.39-1.47-.95-1.47s-.95.61-.95,1.47.39,1.48.95,1.48.95-.62.95-1.48Z"/>
            <path class="cls-1" d="m201.17,183.58l-.88.58-.58-1.1,1.77-1.27h1.19v5.65h-1.49v-3.86Z"/>
            <path class="cls-1" d="m203.42,184.6c0-1.71,1.03-2.92,2.49-2.92s2.49,1.21,2.49,2.92-1.03,2.93-2.49,2.93-2.49-1.21-2.49-2.93Zm3.45,0c0-.86-.39-1.47-.95-1.47s-.95.61-.95,1.47.39,1.48.95,1.48.95-.62.95-1.48Z"/>
            <path class="cls-1" d="m210.19,183.58l-.88.58-.58-1.1,1.77-1.27h1.19v5.65h-1.49v-3.86Z"/>
            <path class="cls-1" d="m212.45,184.6c0-1.71,1.03-2.92,2.49-2.92s2.49,1.21,2.49,2.92-1.03,2.93-2.49,2.93-2.49-1.21-2.49-2.93Zm3.45,0c0-.86-.39-1.47-.95-1.47s-.95.61-.95,1.47.39,1.48.95,1.48.95-.62.95-1.48Z"/>
            <path class="cls-1" d="m161.89,194.47c0-1.71,1.03-2.92,2.49-2.92s2.49,1.21,2.49,2.92-1.03,2.93-2.49,2.93-2.49-1.21-2.49-2.93Zm3.45,0c0-.86-.39-1.47-.95-1.47s-.95.61-.95,1.47.39,1.48.95,1.48.95-.62.95-1.48Z"/>
            <path class="cls-1" d="m167.41,194.47c0-1.71,1.03-2.92,2.49-2.92s2.49,1.21,2.49,2.92-1.03,2.93-2.49,2.93-2.49-1.21-2.49-2.93Zm3.45,0c0-.86-.39-1.47-.95-1.47s-.95.61-.95,1.47.39,1.48.95,1.48.95-.62.95-1.48Z"/>
            <path class="cls-1" d="m174.17,193.45l-.88.58-.58-1.1,1.77-1.27h1.19v5.65h-1.49v-3.86Z"/>
            <path class="cls-1" d="m177.67,193.45l-.88.58-.58-1.1,1.77-1.27h1.19v5.65h-1.49v-3.86Z"/>
            <path class="cls-1" d="m179.93,194.47c0-1.71,1.03-2.92,2.49-2.92s2.49,1.21,2.49,2.92-1.03,2.93-2.49,2.93-2.49-1.21-2.49-2.93Zm3.45,0c0-.86-.39-1.47-.95-1.47s-.95.61-.95,1.47.39,1.48.95,1.48.95-.62.95-1.48Z"/>
            <path class="cls-1" d="m186.7,193.45l-.88.58-.58-1.1,1.77-1.27h1.19v5.65h-1.49v-3.86Z"/>
            <path class="cls-1" d="m188.95,194.47c0-1.71,1.03-2.92,2.49-2.92s2.49,1.21,2.49,2.92-1.03,2.93-2.49,2.93-2.49-1.21-2.49-2.93Zm3.45,0c0-.86-.39-1.47-.95-1.47s-.95.61-.95,1.47.39,1.48.95,1.48.95-.62.95-1.48Z"/>
            <path class="cls-1" d="m195.72,193.45l-.88.58-.58-1.1,1.77-1.27h1.19v5.65h-1.49v-3.86Z"/>
            <path class="cls-1" d="m197.97,194.47c0-1.71,1.03-2.92,2.49-2.92s2.49,1.21,2.49,2.92-1.03,2.93-2.49,2.93-2.49-1.21-2.49-2.93Zm3.45,0c0-.86-.39-1.47-.95-1.47s-.95.61-.95,1.47.39,1.48.95,1.48.95-.62.95-1.48Z"/>
            <path class="cls-1" d="m203.49,194.47c0-1.71,1.03-2.92,2.49-2.92s2.49,1.21,2.49,2.92-1.03,2.93-2.49,2.93-2.49-1.21-2.49-2.93Zm3.45,0c0-.86-.39-1.47-.95-1.47s-.95.61-.95,1.47.39,1.48.95,1.48.95-.62.95-1.48Z"/>
            <path class="cls-1" d="m163.21,203.32l-.88.58-.58-1.1,1.77-1.27h1.19v5.65h-1.49v-3.86Z"/>
            <path class="cls-1" d="m166.71,203.32l-.88.58-.58-1.1,1.77-1.27h1.19v5.65h-1.49v-3.86Z"/>
            <path class="cls-1" d="m168.97,204.35c0-1.71,1.03-2.92,2.49-2.92s2.49,1.21,2.49,2.92-1.03,2.93-2.49,2.93-2.49-1.21-2.49-2.93Zm3.45,0c0-.86-.39-1.47-.95-1.47s-.95.61-.95,1.47.39,1.48.95,1.48.95-.62.95-1.48Z"/>
            <path class="cls-1" d="m175.73,203.32l-.88.58-.58-1.1,1.77-1.27h1.19v5.65h-1.49v-3.86Z"/>
            <path class="cls-1" d="m177.99,204.35c0-1.71,1.03-2.92,2.49-2.92s2.49,1.21,2.49,2.92-1.03,2.93-2.49,2.93-2.49-1.21-2.49-2.93Zm3.45,0c0-.86-.39-1.47-.95-1.47s-.95.61-.95,1.47.39,1.48.95,1.48.95-.62.95-1.48Z"/>
            <path class="cls-1" d="m184.75,203.32l-.88.58-.58-1.1,1.77-1.27h1.19v5.65h-1.49v-3.86Z"/>
            <path class="cls-1" d="m187.01,204.35c0-1.71,1.03-2.92,2.49-2.92s2.49,1.21,2.49,2.92-1.03,2.93-2.49,2.93-2.49-1.21-2.49-2.93Zm3.45,0c0-.86-.39-1.47-.95-1.47s-.95.61-.95,1.47.39,1.48.95,1.48.95-.62.95-1.48Z"/>
            <path class="cls-1" d="m192.53,204.35c0-1.71,1.03-2.92,2.49-2.92s2.49,1.21,2.49,2.92-1.03,2.93-2.49,2.93-2.49-1.21-2.49-2.93Zm3.45,0c0-.86-.39-1.47-.95-1.47s-.95.61-.95,1.47.39,1.48.95,1.48.95-.62.95-1.48Z"/>
            <path class="cls-1" d="m199.29,203.32l-.88.58-.58-1.1,1.77-1.27h1.19v5.65h-1.49v-3.86Z"/>
            <path class="cls-1" d="m162.03,214.22c0-1.71,1.03-2.92,2.49-2.92s2.49,1.21,2.49,2.92-1.03,2.93-2.49,2.93-2.49-1.21-2.49-2.93Zm3.45,0c0-.86-.39-1.47-.95-1.47s-.95.61-.95,1.47.39,1.48.95,1.48.95-.62.95-1.48Z"/>
            <path class="cls-1" d="m168.79,213.19l-.88.58-.58-1.1,1.77-1.27h1.19v5.65h-1.49v-3.86Z"/>
            <path class="cls-1" d="m171.05,214.22c0-1.71,1.03-2.92,2.49-2.92s2.49,1.21,2.49,2.92-1.03,2.93-2.49,2.93-2.49-1.21-2.49-2.93Zm3.45,0c0-.86-.39-1.47-.95-1.47s-.95.61-.95,1.47.39,1.48.95,1.48.95-.62.95-1.48Z"/>
            <path class="cls-1" d="m177.81,213.19l-.88.58-.58-1.1,1.77-1.27h1.19v5.65h-1.49v-3.86Z"/>
            <path class="cls-1" d="m180.07,214.22c0-1.71,1.03-2.92,2.49-2.92s2.49,1.21,2.49,2.92-1.03,2.93-2.49,2.93-2.49-1.21-2.49-2.93Zm3.45,0c0-.86-.39-1.47-.95-1.47s-.95.61-.95,1.47.39,1.48.95,1.48.95-.62.95-1.48Z"/>
            <path class="cls-1" d="m185.59,214.22c0-1.71,1.03-2.92,2.49-2.92s2.49,1.21,2.49,2.92-1.03,2.93-2.49,2.93-2.49-1.21-2.49-2.93Zm3.45,0c0-.86-.39-1.47-.95-1.47s-.95.61-.95,1.47.39,1.48.95,1.48.95-.62.95-1.48Z"/>
            <path class="cls-1" d="m162.1,224.09c0-1.71,1.03-2.92,2.49-2.92s2.49,1.21,2.49,2.92-1.03,2.93-2.49,2.93-2.49-1.21-2.49-2.93Zm3.45,0c0-.86-.39-1.47-.95-1.47s-.95.61-.95,1.47.39,1.48.95,1.48.95-.62.95-1.48Z"/>
            <path class="cls-1" d="m168.86,223.06l-.88.58-.58-1.1,1.77-1.27h1.19v5.65h-1.49v-3.86Z"/>
            <path class="cls-1" d="m172.36,223.06l-.88.58-.58-1.1,1.77-1.27h1.19v5.65h-1.49v-3.86Z"/>
            <path class="cls-1" d="m174.62,224.09c0-1.71,1.03-2.92,2.49-2.92s2.49,1.21,2.49,2.92-1.03,2.93-2.49,2.93-2.49-1.21-2.49-2.93Zm3.45,0c0-.86-.39-1.47-.95-1.47s-.95.61-.95,1.47.39,1.48.95,1.48.95-.62.95-1.48Z"/>
            <path class="cls-1" d="m181.38,223.06l-.88.58-.58-1.1,1.77-1.27h1.19v5.65h-1.49v-3.86Z"/>
            <path class="cls-1" d="m162.16,233.96c0-1.71,1.03-2.92,2.49-2.92s2.49,1.21,2.49,2.92-1.03,2.93-2.49,2.93-2.49-1.21-2.49-2.93Zm3.45,0c0-.86-.39-1.47-.95-1.47s-.95.61-.95,1.47.39,1.48.95,1.48.95-.62.95-1.48Z"/>
            <path class="cls-1" d="m168.92,232.93l-.88.58-.58-1.1,1.77-1.27h1.19v5.65h-1.49v-3.86Z"/>
          </g>
          <g>
            <path class="cls-1" d="m162.15,243.19c0-1.71,1.03-2.92,2.49-2.92s2.49,1.21,2.49,2.92-1.03,2.93-2.49,2.93-2.49-1.21-2.49-2.93Zm3.45,0c0-.86-.39-1.47-.95-1.47s-.95.61-.95,1.47.39,1.48.95,1.48.95-.62.95-1.48Z"/>
            <path class="cls-1" d="m168.92,242.16l-.88.58-.58-1.1,1.77-1.27h1.19v5.65h-1.49v-3.86Z"/>
            <path class="cls-1" d="m163.4,250.38l-.88.58-.58-1.1,1.77-1.27h1.19v5.65h-1.49v-3.86Z"/>
          </g>
          <path class="cls-1" d="m171.54,234.19c0-1.71,1.03-2.92,2.49-2.92s2.49,1.21,2.49,2.92-1.03,2.93-2.49,2.93-2.49-1.21-2.49-2.93Zm3.45,0c0-.86-.39-1.47-.95-1.47s-.95.61-.95,1.47.39,1.48.95,1.48.95-.62.95-1.48Z"/>
          <g>
            <path class="cls-1" d="m156,89.95h-.03l-97.39-1.48c-.08,0-.17,0-.25-.02l-42.68-6.11c-1.09-.16-1.85-1.17-1.7-2.26.16-1.09,1.18-1.85,2.26-1.7l42.56,6.09,97.26,1.48c1.1.02,1.99.93,1.97,2.03-.02,1.09-.91,1.97-2,1.97Z"/>
            <path class="cls-1" d="m155.38,254.85c-.68,0-1.35-.35-1.72-.98l-33.51-56.81,20.28,37.39c.48.89.22,2-.61,2.59-.83.59-1.96.46-2.64-.3L.51,84.1c-.33-.37-.51-.84-.51-1.33v-6.85c0-.61.28-1.19.76-1.57L78.51,12.84c.71-.56,1.71-.58,2.43-.04.73.54,1,1.5.67,2.34l-7.95,20.26,13.74-27.03c.29-.57.84-.97,1.48-1.07.64-.1,1.28.12,1.73.58l30.97,31.62L94.67,6.21c-.49-.6-.58-1.42-.25-2.12.33-.7,1.03-1.14,1.8-1.14h59.78c1.1,0,2,.9,2,2s-.9,2-2,2h-55.59l50.7,62.69.66.67c.75.77.76,1.99.03,2.77s-1.95.85-2.76.15l-.41-.36c-.09-.08-.17-.17-.25-.26l-.25-.31L89.71,12.67l-30.54,60.1c-.36.7-1.1,1.11-1.88,1.09h-.16c-.64-.04-1.23-.38-1.58-.92s-.42-1.22-.18-1.82l19.83-50.55L4,76.88v5.12l124.77,139.35L63.52,101.05c-.52-.96-.18-2.16.77-2.69.95-.54,2.15-.21,2.71.72l90.1,152.75c.56.95.25,2.18-.71,2.74-.32.19-.67.28-1.01.28Z"/>
          </g>
        </g>
        <g>
          <g>
            <path class="cls-2" d="m386.64,5.8h50.03c17.66,0,30.13,10.69,30.13,25.53,0,10.39-5.34,17.67-14.4,22.56,11.73,5.64,18.7,14.99,18.7,26.13,0,16.33-13.51,27.76-32.51,27.76h-51.96V5.8Zm45.57,41.71c9.05,0,15.59-5.34,15.59-12.77s-6.53-12.91-15.59-12.91h-27.17v25.68h27.17Zm2.67,44.24c10.09,0,17.22-6.09,17.22-14.55s-7.13-14.55-17.22-14.55h-29.84v29.1h29.84Z"/>
            <path class="cls-2" d="m558.24,90.86v16.92h-70.81V5.8h18.41v85.06h52.4Z"/>
            <path class="cls-2" d="m573.53,5.8h18.41v101.98h-18.41V5.8Z"/>
            <path class="cls-2" d="m614.65,5.8h18.56l53.89,71.7V5.8h18.41v101.98h-18.41l-53.89-71.7v71.7h-18.56V5.8Z"/>
            <path class="cls-2" d="m771.97,51.67h43.49v41.27c-9.8,10.24-25.68,16.63-40.53,16.63-29.24,0-53.89-24.2-53.89-52.85s24.64-52.7,53.89-52.7c14.84,0,30.73,6.23,40.53,16.48l-13.21,12.32c-6.38-7.42-17.37-11.88-27.31-11.88-19,0-35.03,16.33-35.03,35.78s16.03,35.92,35.03,35.92c7.72,0,16.03-2.67,22.42-7.27v-18.56h-25.38v-15.14Z"/>
          </g>
          <path class="cls-1" d="m383.06,241.45l4.24-5.34c8.35,8.35,20.11,13.68,33.11,13.68,15.19,0,25.04-8.21,25.04-19.02s-8.35-15.87-27.36-20.39c-21.07-4.79-30.78-11.22-30.78-24.49,0-15.46,12.72-26.82,30.51-26.82,12.31,0,23.67,5.06,32.56,13.41l-4.1,5.34c-8.07-7.66-18.2-12.18-28.87-12.18-13.54,0-23.26,8.48-23.26,19.7,0,9.3,8.48,14.09,27.36,18.61,20.66,4.92,30.78,11.9,30.78,26.27s-12.45,26.13-32.15,26.13c-14.37,0-27.5-5.47-37.08-14.91Z"/>
          <path class="cls-1" d="m497.35,167.57h-33.52v-6.7h73.88v6.7h-33.52v87.29h-6.84v-87.29Z"/>
          <path class="cls-1" d="m545.1,207.8c0-26.41,22.03-48.57,48.16-48.57s48.02,22.16,48.02,48.57-21.89,48.71-48.02,48.71-48.16-22.3-48.16-48.71Zm89.34,0c0-22.71-18.88-42-41.18-42s-41.32,19.29-41.32,42,18.88,42.14,41.32,42.14,41.18-19.29,41.18-42.14Z"/>
          <path class="cls-1" d="m703.81,218.88l25.17,35.98h-8.07l-24.9-35.57h-29.96v35.57h-6.84v-93.99h39.13c19.15,0,33.25,12.04,33.25,29.14,0,15.46-11.49,26.82-27.77,28.87Zm-37.76-6.29h30.92c16.28,0,27.64-9.03,27.64-22.58s-11.36-22.44-27.64-22.44h-30.92v45.01Z"/>
          <path class="cls-1" d="m757.02,167.57v36.12h52.13v6.57h-52.13v37.9h56.78v6.7h-63.62v-93.99h63.62v6.7h-56.78Z"/>
        </g>
      </g>
      <text class="cls-3" transform="translate(848.08 15.3)"><tspan x="0" y="0">TM</tspan></text>
    </g>
  </g>
</svg>