<?xml version="1.0" encoding="UTF-8"?>
<svg id="Layer_2" data-name="Layer 2" xmlns="http://www.w3.org/2000/svg" xmlns:xlink="http://www.w3.org/1999/xlink" viewBox="0 0 464 439.78">
  <defs>
    <style>
      .cls-1 {
        fill-rule: evenodd;
      }

      .cls-1, .cls-2, .cls-3 {
        stroke-width: 0px;
      }

      .cls-1, .cls-3 {
        fill: #12284c;
      }

      .cls-2 {
        fill: none;
      }

      .cls-4 {
        clip-path: url(#clippath);
      }
    </style>
    <clipPath id="clippath">
      <rect class="cls-2" x="0" width="464" height="439.78"/>
    </clipPath>
  </defs>
  <g id="Layer_1-2" data-name="Layer 1">
    <g class="cls-4">
      <g>
        <path class="cls-3" d="m272.75,247.08c1.24-1.63,2.36-3.34,3.36-5.11.71-1.26.19-2.83-1.09-3.51-1.34-.7-2.99-.15-3.74,1.16-.84,1.46-1.77,2.87-2.79,4.22-5.4,7.12-13.06,12.18-21.73,14.35-7.79,1.96-15.98,1.47-23.46-1.35-1.38-.52-2.97.06-3.59,1.4-.62,1.35-.03,2.94,1.35,3.48,8.59,3.33,18.02,3.92,27,1.67,9.84-2.47,18.55-8.23,24.69-16.31Z"/>
        <path class="cls-3" d="m198.62,227.64c-1.54-7.84-.65-16,2.58-23.35,3.59-8.18,9.86-14.89,17.78-19.03,1.66-.87,3.38-1.62,5.14-2.24,1.43-.5,2.26-2.02,1.81-3.47-.43-1.38-1.88-2.18-3.25-1.71-2.12.73-4.18,1.61-6.18,2.66-9,4.7-16.12,12.33-20.2,21.62-3.72,8.47-4.71,17.87-2.86,26.9.3,1.45,1.77,2.3,3.2,1.91,1.43-.38,2.27-1.85,1.98-3.3Z"/>
        <path class="cls-3" d="m280.78,205.51c-1.72-5.34-4.42-10.31-7.99-14.66-3.57-4.35-7.92-7.98-12.82-10.7-1.62-.9-3.61-.15-4.39,1.52-.78,1.68-.03,3.66,1.57,4.58,3.99,2.29,7.53,5.28,10.46,8.85,2.93,3.57,5.17,7.63,6.64,11.98.59,1.75,2.38,2.87,4.18,2.43,1.8-.43,2.92-2.25,2.35-4.01Z"/>
        <path class="cls-3" d="m228.09,180.05c.39,1.5,1.92,2.39,3.45,2.11,6.07-1.1,12.33-.69,18.2,1.19,1.48.47,3.11-.21,3.7-1.65.58-1.44-.11-3.09-1.58-3.57-7.01-2.32-14.49-2.81-21.74-1.42-1.52.29-2.42,1.84-2.03,3.34Z"/>
        <path class="cls-3" d="m275.56,214.3c.8,6.12.08,12.35-2.1,18.12-.55,1.45.05,3.12,1.46,3.77,1.41.65,3.09.05,3.65-1.4,2.67-6.88,3.53-14.33,2.5-21.64-.22-1.54-1.71-2.51-3.23-2.2-1.52.31-2.49,1.8-2.28,3.34Z"/>
      </g>
      <g>
        <path class="cls-3" d="m239.93,59.82c-.68-.83-2.01-.82-2.83-.02-.74.73-.8,1.83-.18,2.58,2.62,3.17,4.6,6.85,5.8,10.81,1.37,4.5,1.69,9.25.95,13.84-.75,4.59-2.54,8.91-5.24,12.61-1.23,1.68-2.64,3.21-4.19,4.56l4.08,1.78c1.2-1.19,2.31-2.46,3.31-3.84,3.07-4.19,5.11-9.1,5.96-14.33.85-5.22.48-10.61-1.07-15.73-1.36-4.49-3.61-8.66-6.57-12.26Z"/>
        <path class="cls-3" d="m223.57,99.78l-8.13,22.33,22.34,8.14,8.13-22.34-22.34-8.13Zm-3.7,20.27l5.77-15.84,15.84,5.76-5.76,15.84-15.84-5.77Z"/>
        <path class="cls-3" d="m182.53,86.59c-.2-1.06.66-2.06,1.8-2.18,1.03-.1,1.92.56,2.09,1.52.74,4.05,2.29,7.92,4.55,11.39,2.57,3.94,6,7.24,10,9.62,4,2.38,8.46,3.78,13.03,4.09,2.08.14,4.16.03,6.19-.28l-1.26,4.27c-1.68.15-3.37.19-5.07.07-5.19-.34-10.26-1.93-14.8-4.64-4.54-2.7-8.44-6.45-11.36-10.93-2.56-3.93-4.32-8.33-5.16-12.91Z"/>
      </g>
      <g>
        <path class="cls-3" d="m243.22,309.17c4.76,2.1,8.69,5.32,11.38,9.35.8,1.2,2.34,1.75,3.66,1.15,1.42-.65,2.02-2.36,1.16-3.66-3.38-5.11-8.45-9.14-14.62-11.61-1.14-.46-2.42.08-2.97,1.18-.68,1.35,0,2.98,1.38,3.59Z"/>
        <path class="cls-3" d="m215.77,310.61c4.11-1.9,8.57-3.02,13.08-3.27,1.23-.06,2.27-.99,2.38-2.22.13-1.39-.96-2.6-2.35-2.52-5.29.3-10.54,1.61-15.36,3.85-1.26.58-1.65,2.14-.9,3.3.67,1.05,2.03,1.38,3.15.86Z"/>
        <path class="cls-3" d="m242.5,357.23c-4.01,2.06-8.42,3.37-12.93,3.8-1.23.13-2.23,1.1-2.28,2.34-.06,1.38,1.08,2.52,2.45,2.39,5.29-.52,10.48-2.04,15.19-4.46,1.24-.64,1.57-2.24.75-3.37-.72-1-2.09-1.27-3.18-.7Z"/>
        <path class="cls-3" d="m195.43,336.49c1.43-.14,2.5-1.37,2.6-2.81.34-4.83,2.16-9.59,5.26-13.78.9-1.21.68-2.96-.58-3.79-1.02-.68-2.4-.51-3.16.45-4.13,5.21-6.54,11.23-6.94,17.34-.1,1.56,1.27,2.75,2.83,2.6Z"/>
        <path class="cls-3" d="m214.46,359.11c-4.94-1.88-9.11-4.94-12.05-8.85-.85-1.13-2.39-1.59-3.66-.95-1.4.71-1.92,2.47-.97,3.73,3.69,4.92,9.02,8.7,15.35,10.87,1.16.4,2.4-.2,2.89-1.32.6-1.37-.15-2.95-1.55-3.48Z"/>
        <path class="cls-3" d="m261.74,332.26c-1.42.08-2.52,1.25-2.68,2.68-.56,4.85-2.61,9.6-5.91,13.7-.94,1.17-.79,2.91.42,3.79.99.72,2.37.6,3.16-.32,4.36-5.06,7.05-11.01,7.74-17.12.18-1.56-1.15-2.82-2.72-2.72Z"/>
        <circle class="cls-3" cx="249.76" cy="355.66" r="2.58"/>
        <circle class="cls-3" cx="221.56" cy="363.21" r="2.58"/>
        <path class="cls-3" d="m234.44,303.13c-1.01,1.01-1.01,2.64,0,3.64,1.01,1.01,2.64,1.01,3.64,0,1.01-1.01,1.01-2.64,0-3.64-1.01-1.01-2.64-1.01-3.64,0Z"/>
        <path class="cls-3" d="m206.24,310.69c-1.01,1.01-1.01,2.64,0,3.64,1.01,1.01,2.64,1.01,3.64,0s1.01-2.64,0-3.64c-1.01-1.01-2.64-1.01-3.64,0Z"/>
        <path class="cls-3" d="m198.36,344c.37-1.37-.45-2.79-1.82-3.16s-2.79.45-3.16,1.82.45,2.79,1.82,3.16,2.79-.45,3.16-1.82Z"/>
        <path class="cls-3" d="m264.15,314.81l-6.99,12.1,12.11,6.98,6.99-12.1-12.11-6.98Zm3.54,13.22l-4.67-2.69,2.7-4.67,4.67,2.69-2.7,4.67Z"/>
      </g>
      <g>
        <path class="cls-3" d="m148.47,339.94l-13.03,3.49c-.98.26-1.56,1.27-1.3,2.25.26.98,1.27,1.56,2.25,1.3l13.03-3.49c.98-.26,1.56-1.27,1.3-2.25s-1.27-1.56-2.25-1.3Z"/>
        <path class="cls-3" d="m130.35,343.5c.98-.26,1.56-1.27,1.3-2.25l-3.49-13.03c-.26-.98-1.27-1.56-2.25-1.3s-1.56,1.27-1.3,2.25l3.49,13.03c.26.98,1.27,1.56,2.25,1.3Z"/>
        <path class="cls-3" d="m146.87,323.64l3.49,13.03c.26.98,1.27,1.56,2.25,1.3s1.56-1.27,1.3-2.25l-3.49-13.03c-.26-.98-1.27-1.56-2.25-1.3-.98.26-1.56,1.27-1.3,2.25Z"/>
        <path class="cls-3" d="m130.05,324.94l13.03-3.49c.98-.26,1.56-1.27,1.3-2.25s-1.27-1.56-2.25-1.3l-13.03,3.49c-.98.26-1.56,1.27-1.3,2.25s1.27,1.56,2.25,1.3Z"/>
        <path class="cls-3" d="m151.52,339.51c-.49.86-.2,1.95.65,2.44.99.57,2.3.09,2.63-1.1.17-.6-.01-1.27-.46-1.71-.88-.86-2.25-.63-2.83.36Z"/>
        <path class="cls-3" d="m124.76,326.13c.99.57,2.3.09,2.63-1.1.17-.6-.01-1.27-.46-1.71-.88-.86-2.25-.63-2.83.36-.49.86-.2,1.95.65,2.44Z"/>
        <path class="cls-3" d="m146.83,320.28c.6.17,1.27-.01,1.71-.46.86-.88.63-2.25-.36-2.83-.86-.49-1.95-.2-2.44.65-.57.99-.09,2.3,1.1,2.63Z"/>
        <path class="cls-3" d="m131.85,347.71c.32-.07.63-.23.86-.47.86-.88.63-2.25-.36-2.83-.86-.49-1.95-.2-2.44.65-.31.54-.3,1.16-.05,1.68l-1.47,2.55-.1-.06-10.09,6.93,11.04,6.38.94-11.94,1.67-2.89Z"/>
        <path class="cls-3" d="m113.55,319.77l-13.03,3.49c-.98.26-1.56,1.27-1.3,2.25s1.27,1.56,2.25,1.3l13.03-3.49c.98-.26,1.56-1.27,1.3-2.25-.26-.98-1.27-1.56-2.25-1.3Z"/>
        <path class="cls-3" d="m95.43,323.33c.98-.26,1.56-1.27,1.3-2.25l-3.49-13.03c-.26-.98-1.27-1.56-2.25-1.3s-1.56,1.27-1.3,2.25l3.49,13.03c.26.98,1.27,1.56,2.25,1.3Z"/>
        <path class="cls-3" d="m111.95,303.47l3.49,13.03c.26.98,1.27,1.56,2.25,1.3.98-.26,1.56-1.27,1.3-2.25l-3.49-13.03c-.26-.98-1.27-1.56-2.25-1.3s-1.56,1.27-1.3,2.25Z"/>
        <path class="cls-3" d="m95.13,304.78l13.03-3.49c.98-.26,1.56-1.27,1.3-2.25s-1.27-1.56-2.25-1.3l-13.03,3.49c-.98.26-1.56,1.27-1.3,2.25s1.27,1.56,2.25,1.3Z"/>
        <path class="cls-3" d="m116.45,319.27c-.49.86-.2,1.95.65,2.44.99.57,2.3.09,2.63-1.1.17-.6-.01-1.27-.46-1.71-.88-.86-2.25-.63-2.83.36Z"/>
        <path class="cls-3" d="m89.69,305.89c.99.57,2.3.09,2.63-1.1.17-.6-.01-1.27-.46-1.71-.88-.86-2.25-.63-2.83.36-.49.86-.2,1.95.65,2.44Z"/>
        <path class="cls-3" d="m111.91,300.12c.6.17,1.27-.01,1.71-.46.86-.88.63-2.25-.36-2.83-.86-.49-1.95-.2-2.44.65-.57.99-.09,2.3,1.1,2.63Z"/>
        <path class="cls-3" d="m95.23,330.15l1.49-2.58c.4-.04.78-.21,1.06-.49.86-.88.63-2.25-.36-2.83-.86-.49-1.95-.2-2.44.65-.27.47-.3,1.02-.13,1.49l-1.58,2.74-9.99,6.86,11.04,6.38.96-12.2-.04-.03Z"/>
      </g>
      <g>
        <path class="cls-3" d="m151.88,231.21c.9,1.1,2.54,1.22,3.48.16,3.68-4.16,6.03-9.56,6.74-15.54.13-1.11-.64-2.1-1.73-2.33-1.34-.28-2.61.7-2.82,2.06-.72,4.67-2.63,8.88-5.52,12.18-.86.99-.98,2.46-.15,3.47Z"/>
        <path class="cls-3" d="m158.84,203.3c1.25-.21,2.06-1.45,1.66-2.66-1.51-4.57-3.89-8.86-6.98-12.57-.81-.96-2.27-.94-3.11-.01-.75.83-.73,2.1-.01,2.97,2.63,3.15,4.66,6.81,5.94,10.7.35,1.06,1.4,1.75,2.51,1.57Z"/>
        <path class="cls-3" d="m106.82,213.52c-1.22.28-1.96,1.54-1.52,2.71,1.7,4.52,4.25,8.71,7.48,12.28.85.94,2.33.85,3.13-.14.7-.87.62-2.13-.13-2.95-2.75-3.03-4.93-6.6-6.38-10.44-.4-1.05-1.49-1.7-2.59-1.45Z"/>
        <path class="cls-3" d="m141.62,180.86c.35-1.06-.12-2.22-1.14-2.66-5.53-2.4-11.38-3.1-16.83-2.02-1.39.28-2.12,1.76-1.62,3.09.46,1.23,1.79,1.87,3.08,1.62,4.32-.83,8.92-.36,13.32,1.37,1.28.5,2.76-.1,3.2-1.4Z"/>
        <path class="cls-3" d="m112.45,185.2c-.95-1.06-2.62-1.1-3.5.02-3.45,4.39-5.51,9.95-5.93,16.01-.08,1.11.74,2.06,1.84,2.23,1.34.21,2.55-.83,2.68-2.18.49-4.77,2.19-9.14,4.93-12.65.8-1.02.84-2.47-.03-3.44Z"/>
        <path class="cls-3" d="m122.6,233.99c-.4,1.04.03,2.22,1.03,2.7,5.46,2.64,11.31,3.59,16.83,2.76,1.41-.21,2.2-1.67,1.75-3.03-.41-1.23-1.7-1.91-2.98-1.72-4.39.65-9.03-.03-13.41-1.96-1.24-.55-2.74-.01-3.22,1.26Z"/>
        <path class="cls-3" d="m120.9,230.25c.65,1.12.26,2.55-.86,3.19s-2.55.26-3.19-.86-.26-2.55.86-3.19,2.55-.26,3.19.86Z"/>
        <path class="cls-3" d="m107.65,207.29c.65,1.12.26,2.55-.86,3.19s-2.55.26-3.19-.86-.26-2.55.86-3.19,2.55-.26,3.19.86Z"/>
        <path class="cls-3" d="m162.19,208.84c-.65,1.12-2.08,1.5-3.19.86-1.12-.65-1.5-2.08-.86-3.19.65-1.12,2.08-1.5,3.19-.86,1.12.65,1.5,2.08.86,3.19Z"/>
        <path class="cls-3" d="m148.93,185.88c-.65,1.12-2.08,1.5-3.19.86-1.12-.65-1.5-2.08-.86-3.19.65-1.12,2.08-1.5,3.19-.86,1.12.65,1.5,2.08.86,3.19Z"/>
        <path class="cls-3" d="m148.2,237.62c-1.29,0-2.34-1.05-2.34-2.34,0-1.29,1.05-2.34,2.34-2.34,1.29,0,2.34,1.05,2.34,2.34,0,1.29-1.05,2.34-2.34,2.34Z"/>
        <path class="cls-3" d="m117.01,183.61c-1.29,0-2.34-1.05-2.34-2.34,0-1.29,1.05-2.34,2.34-2.34,1.29,0,2.34,1.05,2.34,2.34,0,1.29-1.05,2.34-2.34,2.34Z"/>
        <path class="cls-3" d="m126.3,228.26c1.33.1,2.46-.99,2.29-2.32-.61-4.78-2.2-9.51-4.66-13.83-2.89-5.07-6.88-9.41-11.57-12.55-4.69-3.15-9.91-5-15.13-5.37-5.22-.37-10.26.75-14.61,3.26-4.34,2.51-7.84,6.3-10.13,11.01-2.29,4.71-3.3,10.15-2.92,15.79.38,5.64,2.13,11.26,5.08,16.3,2.51,4.29,5.81,8.03,9.64,10.95,1.06.81,2.57.39,3.15-.82.48-1,.14-2.19-.75-2.86-3.33-2.5-6.2-5.73-8.37-9.44-2.5-4.29-3.99-9.07-4.31-13.86-.32-4.79.54-9.42,2.49-13.42,1.95-4,4.92-7.23,8.61-9.36,3.69-2.13,7.98-3.09,12.42-2.77,4.44.32,8.88,1.89,12.86,4.57,3.99,2.68,7.38,6.36,9.84,10.67,2.13,3.73,3.49,7.83,3.98,11.97.13,1.1.99,1.99,2.1,2.08Z"/>
        <path class="cls-3" d="m97.44,255.55c-.07,1.16.72,2.2,1.87,2.36,2.58.35,5.15.34,7.65-.03,1.41-.21,2.2-1.67,1.75-3.03-.41-1.23-1.7-1.92-2.97-1.73-1.78.26-3.61.3-5.46.13-1.42-.13-2.75.87-2.83,2.3Z"/>
        <path class="cls-3" d="m119.14,248.9c.94,1.07,2.6,1.13,3.5.02,1.58-1.96,2.89-4.16,3.9-6.57.45-1.07-.05-2.28-1.09-2.81-1.27-.65-2.81-.01-3.42,1.28-.78,1.67-1.75,3.22-2.87,4.63-.81,1.01-.87,2.47-.02,3.45Z"/>
        <path class="cls-3" d="m93.92,252.12c.65,1.12.26,2.55-.86,3.19s-2.55.26-3.19-.86-.26-2.55.86-3.19,2.55-.26,3.19.86Z"/>
        <path class="cls-3" d="m128.46,234.61c-.65,1.12-2.08,1.5-3.19.86-1.12-.65-1.5-2.08-.86-3.19.65-1.12,2.08-1.5,3.19-.86,1.12.65,1.5,2.08.86,3.19Z"/>
        <path class="cls-3" d="m114.73,256.04c-1.29,0-2.34-1.05-2.34-2.34,0-1.29,1.05-2.34,2.34-2.34,1.29,0,2.34,1.05,2.34,2.34,0,1.29-1.05,2.34-2.34,2.34Z"/>
      </g>
      <g>
        <path class="cls-1" d="m63.22,89.07c-1.04.99-.94,2.65.17,3.56,1,.82,2.47.73,3.41-.17,4-3.8,8.71-6.86,13.84-8.98,5.85-2.42,12.08-3.57,18.19-3.34,6.11.23,11.93,1.82,16.99,4.65,2.81,1.57,5.34,3.5,7.54,5.73l1.6-5.96c-1.86-1.57-3.89-2.97-6.06-4.19-5.75-3.21-12.36-5.02-19.31-5.28-6.95-.26-14.03,1.04-20.67,3.8-5.82,2.41-11.16,5.88-15.7,10.18Z"/>
        <circle class="cls-3" cx="98.97" cy="132.25" r="2.58"/>
        <circle class="cls-3" cx="82.66" cy="103.99" r="2.58"/>
        <path class="cls-3" d="m104.17,129.25l13.5,3.62,3.61-13.5-13.5-3.62-3.61,13.5Zm11.86-6.84l-1.39,5.21-5.21-1.4,1.39-5.21,5.2,1.4Z"/>
        <path class="cls-3" d="m87.86,100.99l13.5,3.62,3.61-13.5-13.5-3.62-3.61,13.5Zm11.86-6.84l-1.39,5.21-5.21-1.4,1.39-5.21,5.2,1.4Z"/>
        <path class="cls-1" d="m119.25,148.75c5.71-4.38,10.37-9.86,13.62-16,3.25-6.14,4.99-12.78,5.08-19.36.03-2.49-.17-4.95-.6-7.34l-5.96-1.6c.83,3.02,1.24,6.17,1.19,9.39-.08,5.8-1.61,11.63-4.47,17.04-2.86,5.41-6.97,10.23-11.99,14.08-4.41,3.38-9.41,5.93-14.7,7.49-1.24.37-2.06,1.59-1.85,2.87.24,1.42,1.62,2.34,3,1.93,5.99-1.78,11.67-4.67,16.67-8.51Z"/>
        <path class="cls-3" d="m120.42,101.53l24.03,6.44,6.45-24.04-24.04-6.44-6.44,24.04Zm21,1.18l-15.74-4.22,4.22-15.74,15.75,4.22-4.22,15.75Z"/>
      </g>
      <g>
        <path class="cls-3" d="m387.47,339.94l-13.03,3.49c-.98.26-1.56,1.27-1.3,2.25.26.98,1.27,1.56,2.25,1.3l13.03-3.49c.98-.26,1.56-1.27,1.3-2.25s-1.27-1.56-2.25-1.3Z"/>
        <path class="cls-3" d="m369.35,343.5c.98-.26,1.56-1.27,1.3-2.25l-3.49-13.03c-.26-.98-1.27-1.56-2.25-1.3s-1.56,1.27-1.3,2.25l3.49,13.03c.26.98,1.27,1.56,2.25,1.3Z"/>
        <path class="cls-3" d="m385.87,323.64l3.49,13.03c.26.98,1.27,1.56,2.25,1.3s1.56-1.27,1.3-2.25l-3.49-13.03c-.26-.98-1.27-1.56-2.25-1.3-.98.26-1.56,1.27-1.3,2.25Z"/>
        <path class="cls-3" d="m369.05,324.94l13.03-3.49c.98-.26,1.56-1.27,1.3-2.25s-1.27-1.56-2.25-1.3l-13.03,3.49c-.98.26-1.56,1.27-1.3,2.25s1.27,1.56,2.25,1.3Z"/>
        <path class="cls-3" d="m390.52,339.51c-.49.86-.2,1.95.65,2.44.99.57,2.3.09,2.63-1.1.17-.6-.01-1.27-.46-1.71-.88-.86-2.25-.63-2.83.36Z"/>
        <path class="cls-3" d="m363.76,326.13c.99.57,2.3.09,2.63-1.1.17-.6-.01-1.27-.46-1.71-.88-.86-2.25-.63-2.83.36-.49.86-.2,1.95.65,2.44Z"/>
        <path class="cls-3" d="m385.83,320.28c.6.17,1.27-.01,1.71-.46.86-.88.63-2.25-.36-2.83-.86-.49-1.95-.2-2.44.65-.57.99-.09,2.3,1.1,2.63Z"/>
        <path class="cls-3" d="m370.85,347.71c.32-.07.63-.23.86-.47.86-.88.63-2.25-.36-2.83-.86-.49-1.95-.2-2.44.65-.31.54-.3,1.16-.05,1.68l-1.47,2.55-.1-.06-10.09,6.93,11.04,6.38.94-11.94,1.67-2.89Z"/>
        <path class="cls-3" d="m352.55,319.77l-13.03,3.49c-.98.26-1.56,1.27-1.3,2.25s1.27,1.56,2.25,1.3l13.03-3.49c.98-.26,1.56-1.27,1.3-2.25-.26-.98-1.27-1.56-2.25-1.3Z"/>
        <path class="cls-3" d="m334.43,323.33c.98-.26,1.56-1.27,1.3-2.25l-3.49-13.03c-.26-.98-1.27-1.56-2.25-1.3s-1.56,1.27-1.3,2.25l3.49,13.03c.26.98,1.27,1.56,2.25,1.3Z"/>
        <path class="cls-3" d="m350.95,303.47l3.49,13.03c.26.98,1.27,1.56,2.25,1.3.98-.26,1.56-1.27,1.3-2.25l-3.49-13.03c-.26-.98-1.27-1.56-2.25-1.3s-1.56,1.27-1.3,2.25Z"/>
        <path class="cls-3" d="m334.13,304.78l13.03-3.49c.98-.26,1.56-1.27,1.3-2.25s-1.27-1.56-2.25-1.3l-13.03,3.49c-.98.26-1.56,1.27-1.3,2.25s1.27,1.56,2.25,1.3Z"/>
        <path class="cls-3" d="m355.45,319.27c-.49.86-.2,1.95.65,2.44.99.57,2.3.09,2.63-1.1.17-.6-.01-1.27-.46-1.71-.88-.86-2.25-.63-2.83.36Z"/>
        <path class="cls-3" d="m328.69,305.89c.99.57,2.3.09,2.63-1.1.17-.6-.01-1.27-.46-1.71-.88-.86-2.25-.63-2.83.36-.49.86-.2,1.95.65,2.44Z"/>
        <path class="cls-3" d="m350.91,300.12c.6.17,1.27-.01,1.71-.46.86-.88.63-2.25-.36-2.83-.86-.49-1.95-.2-2.44.65-.57.99-.09,2.3,1.1,2.63Z"/>
        <path class="cls-3" d="m334.23,330.15l1.49-2.58c.4-.04.78-.21,1.06-.49.86-.88.63-2.25-.36-2.83-.86-.49-1.95-.2-2.44.65-.27.47-.3,1.02-.13,1.49l-1.58,2.74-9.99,6.86,11.04,6.38.96-12.2-.04-.03Z"/>
      </g>
      <g>
        <path class="cls-3" d="m390.88,231.21c.9,1.1,2.54,1.22,3.48.16,3.68-4.16,6.03-9.56,6.74-15.54.13-1.11-.64-2.1-1.73-2.33-1.34-.28-2.61.7-2.82,2.06-.72,4.67-2.63,8.88-5.52,12.18-.86.99-.98,2.46-.15,3.47Z"/>
        <path class="cls-3" d="m397.84,203.3c1.25-.21,2.06-1.45,1.66-2.66-1.51-4.57-3.89-8.86-6.98-12.57-.81-.96-2.27-.94-3.11-.01-.75.83-.73,2.1-.01,2.97,2.63,3.15,4.66,6.81,5.94,10.7.35,1.06,1.4,1.75,2.51,1.57Z"/>
        <path class="cls-3" d="m345.82,213.52c-1.22.28-1.96,1.54-1.52,2.71,1.7,4.52,4.25,8.71,7.48,12.28.85.94,2.33.85,3.13-.14.7-.87.62-2.13-.13-2.95-2.75-3.03-4.93-6.6-6.38-10.44-.4-1.05-1.49-1.7-2.59-1.45Z"/>
        <path class="cls-3" d="m380.62,180.86c.35-1.06-.12-2.22-1.14-2.66-5.53-2.4-11.38-3.1-16.83-2.02-1.39.28-2.12,1.76-1.62,3.09.46,1.23,1.79,1.87,3.08,1.62,4.32-.83,8.92-.36,13.32,1.37,1.28.5,2.76-.1,3.2-1.4Z"/>
        <path class="cls-3" d="m351.45,185.2c-.95-1.06-2.62-1.1-3.5.02-3.45,4.39-5.51,9.95-5.93,16.01-.08,1.11.74,2.06,1.84,2.23,1.34.21,2.55-.83,2.68-2.18.49-4.77,2.19-9.14,4.93-12.65.8-1.02.84-2.47-.03-3.44Z"/>
        <path class="cls-3" d="m361.6,233.99c-.4,1.04.03,2.22,1.03,2.7,5.46,2.64,11.31,3.59,16.83,2.76,1.41-.21,2.2-1.67,1.75-3.03-.41-1.23-1.7-1.91-2.98-1.72-4.39.65-9.03-.03-13.41-1.96-1.24-.55-2.74-.01-3.22,1.26Z"/>
        <path class="cls-3" d="m359.9,230.25c.65,1.12.26,2.55-.86,3.19s-2.55.26-3.19-.86-.26-2.55.86-3.19,2.55-.26,3.19.86Z"/>
        <path class="cls-3" d="m346.65,207.29c.65,1.12.26,2.55-.86,3.19s-2.55.26-3.19-.86-.26-2.55.86-3.19,2.55-.26,3.19.86Z"/>
        <path class="cls-3" d="m401.19,208.84c-.65,1.12-2.08,1.5-3.19.86-1.12-.65-1.5-2.08-.86-3.19.65-1.12,2.08-1.5,3.19-.86,1.12.65,1.5,2.08.86,3.19Z"/>
        <path class="cls-3" d="m387.93,185.88c-.65,1.12-2.08,1.5-3.19.86-1.12-.65-1.5-2.08-.86-3.19.65-1.12,2.08-1.5,3.19-.86,1.12.65,1.5,2.08.86,3.19Z"/>
        <path class="cls-3" d="m387.2,237.62c-1.29,0-2.34-1.05-2.34-2.34,0-1.29,1.05-2.34,2.34-2.34,1.29,0,2.34,1.05,2.34,2.34,0,1.29-1.05,2.34-2.34,2.34Z"/>
        <path class="cls-3" d="m356.01,183.61c-1.29,0-2.34-1.05-2.34-2.34,0-1.29,1.05-2.34,2.34-2.34,1.29,0,2.34,1.05,2.34,2.34,0,1.29-1.05,2.34-2.34,2.34Z"/>
        <path class="cls-3" d="m365.3,228.26c1.33.1,2.46-.99,2.29-2.32-.61-4.78-2.2-9.51-4.66-13.83-2.89-5.07-6.88-9.41-11.57-12.55-4.69-3.15-9.91-5-15.13-5.37-5.22-.37-10.26.75-14.61,3.26-4.34,2.51-7.84,6.3-10.13,11.01-2.29,4.71-3.3,10.15-2.92,15.79.38,5.64,2.13,11.26,5.08,16.3,2.51,4.29,5.81,8.03,9.64,10.95,1.06.81,2.57.39,3.15-.82.48-1,.14-2.19-.75-2.86-3.33-2.5-6.2-5.73-8.37-9.44-2.5-4.29-3.99-9.07-4.31-13.86-.32-4.79.54-9.42,2.49-13.42,1.95-4,4.92-7.23,8.61-9.36,3.69-2.13,7.98-3.09,12.42-2.77,4.44.32,8.88,1.89,12.86,4.57,3.99,2.68,7.38,6.36,9.84,10.67,2.13,3.73,3.49,7.83,3.98,11.97.13,1.1.99,1.99,2.1,2.08Z"/>
        <path class="cls-3" d="m336.44,255.55c-.07,1.16.72,2.2,1.87,2.36,2.58.35,5.15.34,7.65-.03,1.41-.21,2.2-1.67,1.75-3.03-.41-1.23-1.7-1.92-2.97-1.73-1.78.26-3.61.3-5.46.13-1.42-.13-2.75.87-2.83,2.3Z"/>
        <path class="cls-3" d="m358.14,248.9c.94,1.07,2.6,1.13,3.5.02,1.58-1.96,2.89-4.16,3.9-6.57.45-1.07-.05-2.28-1.09-2.81-1.27-.65-2.81-.01-3.42,1.28-.78,1.67-1.75,3.22-2.87,4.63-.81,1.01-.87,2.47-.02,3.45Z"/>
        <path class="cls-3" d="m332.92,252.12c.65,1.12.26,2.55-.86,3.19s-2.55.26-3.19-.86-.26-2.55.86-3.19,2.55-.26,3.19.86Z"/>
        <path class="cls-3" d="m367.46,234.61c-.65,1.12-2.08,1.5-3.19.86-1.12-.65-1.5-2.08-.86-3.19.65-1.12,2.08-1.5,3.19-.86,1.12.65,1.5,2.08.86,3.19Z"/>
        <path class="cls-3" d="m353.73,256.04c-1.29,0-2.34-1.05-2.34-2.34,0-1.29,1.05-2.34,2.34-2.34,1.29,0,2.34,1.05,2.34,2.34,0,1.29-1.05,2.34-2.34,2.34Z"/>
      </g>
      <g>
        <path class="cls-1" d="m302.22,89.07c-1.04.99-.94,2.65.17,3.56,1,.82,2.47.73,3.41-.17,4-3.8,8.71-6.86,13.84-8.98,5.85-2.42,12.08-3.57,18.19-3.34,6.11.23,11.93,1.82,16.99,4.65,2.81,1.57,5.34,3.5,7.54,5.73l1.6-5.96c-1.86-1.57-3.89-2.97-6.06-4.19-5.75-3.21-12.36-5.02-19.31-5.28-6.95-.26-14.03,1.04-20.67,3.8-5.82,2.41-11.16,5.88-15.7,10.18Z"/>
        <circle class="cls-3" cx="337.97" cy="132.25" r="2.58"/>
        <circle class="cls-3" cx="321.66" cy="103.99" r="2.58"/>
        <path class="cls-3" d="m343.17,129.25l13.5,3.62,3.61-13.5-13.5-3.62-3.61,13.5Zm11.86-6.84l-1.39,5.21-5.21-1.4,1.39-5.21,5.2,1.4Z"/>
        <path class="cls-3" d="m326.86,100.99l13.5,3.62,3.61-13.5-13.5-3.62-3.61,13.5Zm11.86-6.84l-1.39,5.21-5.21-1.4,1.39-5.21,5.2,1.4Z"/>
        <path class="cls-1" d="m358.25,148.75c5.71-4.38,10.37-9.86,13.62-16,3.25-6.14,4.99-12.78,5.08-19.36.03-2.49-.17-4.95-.6-7.34l-5.96-1.6c.83,3.02,1.24,6.17,1.19,9.39-.08,5.8-1.61,11.63-4.47,17.04-2.86,5.41-6.97,10.23-11.99,14.08-4.41,3.38-9.41,5.93-14.7,7.49-1.24.37-2.06,1.59-1.85,2.87.24,1.42,1.62,2.34,3,1.93,5.99-1.78,11.67-4.67,16.67-8.51Z"/>
        <path class="cls-3" d="m359.42,101.53l24.03,6.44,6.45-24.04-24.04-6.44-6.44,24.04Zm21,1.18l-15.74-4.22,4.22-15.74,15.75,4.22-4.22,15.75Z"/>
      </g>
      <g>
        <path class="cls-3" d="m24.17,91.18c1.24-.59,1.68-2.15.85-3.25-3.01-3.96-6.86-7.36-11.28-9.94-5.2-3.04-10.99-4.85-16.8-5.24-5.81-.39-11.42.64-16.28,3-4.85,2.36-8.77,5.96-11.36,10.44s-3.75,9.67-3.37,15.05,2.29,10.76,5.53,15.6c3.24,4.84,7.7,8.95,12.93,11.93,4.45,2.54,9.32,4.18,14.25,4.81,1.37.17,2.5-.98,2.39-2.36h0c-.09-1.14-1.01-2.03-2.14-2.16-4.26-.51-8.48-1.92-12.33-4.11-4.44-2.53-8.24-6.03-10.99-10.14-2.76-4.11-4.38-8.68-4.7-13.26-.32-4.58.67-8.99,2.87-12.79s5.53-6.86,9.65-8.87c4.13-2.01,8.9-2.89,13.84-2.55,4.94.33,9.86,1.87,14.28,4.46,3.82,2.24,7.15,5.19,9.72,8.63.68.91,1.91,1.27,2.94.77h0Z"/>
        <path class="cls-3" d="m12.48,130.41c.53,1.07,1.78,1.59,2.88,1.14,2.49-1.02,4.78-2.35,6.81-3.97,1.15-.91,1.1-2.63,0-3.6h0c-1-.89-2.5-.84-3.55,0-1.46,1.15-3.07,2.13-4.81,2.93-1.34.61-2,2.2-1.34,3.51h0Z"/>
        <path class="cls-3" d="m28.42,113.29c1.39.47,2.9-.33,3.13-1.78.4-2.56.44-5.21.1-7.87-.15-1.19-1.22-2.01-2.42-1.95h0c-1.47.08-2.52,1.44-2.39,2.91.16,1.9.1,3.78-.18,5.61-.2,1.32.5,2.66,1.76,3.08h0Z"/>
        <circle class="cls-3" cx="6.37" cy="131.25" r="2.41"/>
        <circle class="cls-3" cx="26.96" cy="95.74" r="2.41"/>
        <circle class="cls-3" cx="26.95" cy="119.86" r="2.41"/>
      </g>
      <path class="cls-1" d="m-20.85,241.67c11.9,5.57,27.72,2.95,39.51-7.66,15.05-13.55,17.82-35.02,6.18-47.95-11.64-12.93-33.28-12.42-48.33,1.13-11.79,10.61-16.04,26.07-11.75,38.49l5.99.31c-5.27-10.92-1.93-25.52,8.92-35.3,12.8-11.52,31.19-11.95,41.08-.96s7.54,29.24-5.25,40.76c-10.85,9.77-25.73,11.57-36.03,5.18l-.31,5.99Z"/>
      <g>
        <path class="cls-3" d="m39.68,317.41c-1.33-.23-2.59.66-2.97,1.96-.99,3.38-2.76,6.48-5.18,9.04-.93.98-1.06,2.52-.19,3.55.88,1.03,2.43,1.16,3.38.2,3.26-3.32,5.61-7.43,6.83-11.93.35-1.3-.55-2.58-1.88-2.81Z"/>
        <path class="cls-3" d="m20.6,334.77c-3.42.83-6.99.85-10.42.04-1.32-.31-2.71.34-3.17,1.61-.45,1.27.21,2.68,1.52,3.02,4.51,1.16,9.24,1.14,13.74-.05,1.31-.35,1.96-1.76,1.5-3.03-.46-1.27-1.86-1.91-3.18-1.59Z"/>
        <path class="cls-3" d="m10.03,291.46c3.42-.83,6.99-.85,10.42-.04,1.32.31,2.71-.34,3.17-1.61.45-1.27-.21-2.68-1.52-3.02-4.51-1.16-9.24-1.15-13.74.05-1.31.35-1.96,1.76-1.5,3.03.46,1.27,1.86,1.91,3.18,1.59Z"/>
        <path class="cls-3" d="m36.67,306.71c.39,1.29,1.65,2.18,2.98,1.94,1.33-.24,2.22-1.52,1.86-2.82-1.25-4.49-3.63-8.58-6.91-11.88-.95-.96-2.51-.82-3.37.22-.87,1.04-.72,2.57.21,3.55,2.43,2.54,4.23,5.63,5.24,9Z"/>
        <circle class="cls-3" cx="39.91" cy="312.68" r="2.59"/>
        <path class="cls-3" d="m26.32,331.74c-1.24.71-1.66,2.3-.95,3.54.71,1.24,2.3,1.66,3.54.95s1.66-2.3.95-3.54c-.71-1.24-2.3-1.66-3.54-.95Z"/>
        <path class="cls-3" d="m1.72,289.14c-1.24.71-1.66,2.3-.95,3.54s2.3,1.66,3.54.95,1.66-2.3.95-3.54-2.3-1.66-3.54-.95Z"/>
        <path class="cls-3" d="m4.31,331.74c-1.24-.71-2.82-.29-3.54.95s-.29,2.82.95,3.54,2.82.29,3.54-.95.29-2.82-.95-3.54Z"/>
        <path class="cls-3" d="m28.91,289.14c-1.24-.71-2.82-.29-3.54.95-.71,1.24-.29,2.82.95,3.54s2.82.29,3.54-.95c.71-1.24.29-2.82-.95-3.54Z"/>
      </g>
      <path class="cls-3" d="m488.14,91.18c1.24-.59,1.68-2.15.85-3.25-3.01-3.96-6.86-7.36-11.28-9.94-5.2-3.04-10.99-4.85-16.8-5.24-5.81-.39-11.42.64-16.28,3-4.85,2.36-8.77,5.96-11.36,10.44s-3.75,9.67-3.37,15.05,2.29,10.76,5.53,15.6c3.24,4.84,7.7,8.95,12.93,11.93,4.45,2.54,9.32,4.18,14.25,4.81,1.37.17,2.5-.98,2.39-2.36h0c-.09-1.14-1.01-2.03-2.14-2.16-4.26-.51-8.48-1.92-12.33-4.11-4.44-2.53-8.24-6.03-10.99-10.14-2.76-4.11-4.38-8.68-4.7-13.26-.32-4.58.67-8.99,2.87-12.79s5.53-6.86,9.65-8.87c4.13-2.01,8.9-2.89,13.84-2.55,4.94.33,9.86,1.87,14.28,4.46,3.82,2.24,7.15,5.19,9.72,8.63.68.91,1.91,1.27,2.94.77h0Z"/>
      <g>
        <path class="cls-1" d="m443.15,241.67c11.9,5.57,27.72,2.95,39.51-7.66,15.05-13.55,17.82-35.02,6.18-47.95-11.64-12.93-33.28-12.42-48.33,1.13-11.79,10.61-16.04,26.07-11.75,38.49l5.99.31c-5.27-10.92-1.93-25.52,8.92-35.3,12.8-11.52,31.19-11.95,41.08-.96s7.54,29.24-5.25,40.76c-10.85,9.77-25.73,11.57-36.03,5.18l-.31,5.99Z"/>
        <path class="cls-3" d="m443.94,226.49l-21.32-1.12-1.12,21.32,21.32,1.12,1.12-21.32Zm-17.9,16.12l.67-12.7,12.7.67-.67,12.7-12.7-.67Z"/>
      </g>
      <g>
        <path class="cls-3" d="m457.96,319.52c-.39-1.29-1.65-2.18-2.98-1.94-1.33.24-2.22,1.52-1.86,2.82,1.25,4.49,3.63,8.58,6.91,11.88.95.96,2.51.82,3.37-.22.87-1.04.72-2.57-.21-3.55-2.43-2.54-4.23-5.63-5.24-9Z"/>
        <path class="cls-3" d="m454.95,308.82c1.33.23,2.59-.66,2.97-1.96.99-3.38,2.76-6.48,5.18-9.04.93-.98,1.06-2.52.19-3.55-.88-1.03-2.43-1.16-3.38-.2-3.26,3.32-5.61,7.43-6.83,11.93-.35,1.3.55,2.58,1.88,2.81Z"/>
        <circle class="cls-3" cx="454.72" cy="312.68" r="2.59"/>
      </g>
      <g>
        <g>
          <path class="cls-3" d="m242.22,20.58c.45,1.02,1.6,1.56,2.64,1.17,3.8-1.44,7.11-3.73,9.67-6.73,2.97-3.48,4.84-7.79,5.44-12.51.6-4.73-.1-9.71-2.03-14.46-1.93-4.76-5.02-9.13-8.99-12.68-3.96-3.56-8.65-6.2-13.63-7.65-4.98-1.44-10.06-1.66-14.76-.63-4.71,1.04-8.87,3.29-12.1,6.54-2.76,2.78-4.76,6.23-5.85,10.08-.31,1.1.35,2.21,1.44,2.56h0c1.28.42,2.63-.38,3.05-1.67.96-2.95,2.57-5.59,4.73-7.77,2.74-2.76,6.29-4.68,10.29-5.56,4-.88,8.32-.69,12.55.54,4.23,1.23,8.22,3.47,11.59,6.5,3.37,3.03,6,6.74,7.64,10.78,1.64,4.04,2.24,8.27,1.73,12.29-.5,4.01-2.1,7.68-4.63,10.63-1.99,2.33-4.52,4.17-7.4,5.39-1.24.53-1.91,1.95-1.37,3.18h0Z"/>
          <path class="cls-3" d="m204.67-3.95c-1.31.06-2.26,1.26-1.9,2.52,1.12,3.98,3.07,7.8,5.72,11.23.65.84,1.86.96,2.7.31h0c.91-.7,1.04-2.02.36-2.95-2.15-2.88-3.73-6.09-4.63-9.41-.28-1.01-1.19-1.75-2.25-1.7h0Z"/>
          <path class="cls-3" d="m218.5,16.42c-.53.92-.25,2.11.68,2.64,3.76,2.14,7.84,3.53,11.95,4.1,1.29.18,2.35-.93,2.22-2.22h0c-.1-1.04-.94-1.85-1.99-1.98-3.44-.44-6.85-1.56-10.02-3.29-1-.55-2.28-.24-2.85.75h0Z"/>
          <circle class="cls-3" cx="215.04" cy="13.41" r="2.19"/>
          <circle class="cls-3" cx="237.99" cy="21.34" r="2.19"/>
          <path class="cls-3" d="m211.76,17.32l-11.82,1.03,1.04,11.82,11.82-1.03-1.04-11.82Zm-7.47,8.91l-.4-4.56,4.56-.4.4,4.56-4.56.4Z"/>
        </g>
        <g>
          <path class="cls-1" d="m94.73-25.38c-2.72,15.41,7.57,30.11,22.99,32.83S147.83-.13,150.54-15.54s-7.57-30.11-22.99-32.83-30.11,7.57-32.83,22.99Zm51.58,9.1c-2.3,13.06-14.8,21.81-27.85,19.5s-21.81-14.8-19.5-27.85,14.8-21.81,27.85-19.5c13.06,2.3,21.81,14.8,19.5,27.85Z"/>
          <g>
            <path class="cls-1" d="m91.44,6.65l3.36,2.82c4.7-9.12,14.94-14.56,25.56-12.68,13.06,2.3,21.81,14.8,19.5,27.85-2.3,13.06-14.8,21.81-27.85,19.5-10.62-1.87-18.39-10.49-19.68-20.66l-4.12,1.5c1.87,11.58,10.85,21.24,23.05,23.39,15.41,2.72,30.11-7.57,32.83-22.99s-7.57-30.11-22.99-32.83c-12.2-2.15-23.95,3.85-29.66,14.09Z"/>
            <path class="cls-1" d="m76.16,29.37l29.54-10.75L81.61-1.59l-5.46,30.96Zm21.08-12.24l-15.56,5.66,2.88-16.31,12.69,10.65Z"/>
          </g>
        </g>
        <g>
          <path class="cls-1" d="m333.73-25.38c-2.72,15.41,7.57,30.11,22.99,32.83s30.11-7.57,32.83-22.99-7.57-30.11-22.99-32.83-30.11,7.57-32.83,22.99Zm51.58,9.1c-2.3,13.06-14.8,21.81-27.85,19.5-13.06-2.3-21.81-14.8-19.5-27.85s14.8-21.81,27.85-19.5,21.81,14.8,19.5,27.85Z"/>
          <g>
            <path class="cls-1" d="m330.44,6.65l3.36,2.82c4.7-9.12,14.94-14.56,25.56-12.68,13.06,2.3,21.81,14.8,19.5,27.85s-14.8,21.81-27.85,19.5c-10.62-1.87-18.39-10.49-19.68-20.66l-4.12,1.5c1.87,11.58,10.85,21.24,23.05,23.39,15.41,2.72,30.11-7.57,32.83-22.99s-7.57-30.11-22.99-32.83c-12.2-2.15-23.95,3.85-29.66,14.09Z"/>
            <path class="cls-1" d="m315.16,29.37l29.54-10.75-24.08-20.21-5.46,30.96Zm21.08-12.24l-15.56,5.66,2.88-16.31,12.69,10.65Z"/>
          </g>
        </g>
        <g>
          <path class="cls-1" d="m16.75-1.03l-3.42-2.77C8.77,5.44-1.44,11.08-12.14,9.39c-13.16-2.08-22.17-14.49-20.09-27.65s14.49-22.17,27.65-20.09c10.7,1.7,18.66,10.21,20.14,20.42l4.11-1.58c-2.08-11.6-11.28-21.15-23.58-23.1-15.53-2.46-30.12,8.14-32.58,23.67C-38.95-3.4-28.35,11.19-12.81,13.65-.51,15.6,11.18,9.36,16.75-1.03Z"/>
          <path class="cls-1" d="m31.7-24.13L2.21-12.81,26.76,7.07l4.94-31.2ZM10.73-11.46l15.54-5.96L23.67-.98l-12.93-10.47Z"/>
        </g>
        <path class="cls-1" d="m480.75-1.03l-3.42-2.77c-4.56,9.25-14.76,14.89-25.46,13.19-13.16-2.08-22.17-14.49-20.09-27.65,2.08-13.16,14.49-22.17,27.65-20.09,10.7,1.7,18.66,10.21,20.14,20.42l4.11-1.58c-2.08-11.6-11.28-21.15-23.58-23.1-15.53-2.46-30.12,8.14-32.58,23.67-2.46,15.53,8.14,30.12,23.67,32.58,12.3,1.95,24-4.29,29.56-14.68Z"/>
      </g>
      <g>
        <g>
          <path class="cls-3" d="m242.22,460.35c.45,1.02,1.6,1.56,2.64,1.17,3.8-1.44,7.11-3.73,9.67-6.73,2.97-3.48,4.84-7.79,5.44-12.51.6-4.73-.1-9.71-2.03-14.46-1.93-4.76-5.02-9.13-8.99-12.68-3.96-3.56-8.65-6.2-13.63-7.65-4.98-1.44-10.06-1.66-14.76-.63-4.71,1.04-8.87,3.29-12.1,6.54-2.76,2.78-4.76,6.23-5.85,10.08-.31,1.1.35,2.21,1.44,2.56h0c1.28.42,2.63-.38,3.05-1.67.96-2.95,2.57-5.59,4.73-7.77,2.74-2.76,6.29-4.68,10.29-5.56,4-.88,8.32-.69,12.55.54,4.23,1.23,8.22,3.47,11.59,6.5,3.37,3.03,6,6.74,7.64,10.78,1.64,4.04,2.24,8.27,1.73,12.29-.5,4.01-2.1,7.68-4.63,10.63-1.99,2.33-4.52,4.17-7.4,5.39-1.24.53-1.91,1.95-1.37,3.18h0Z"/>
          <path class="cls-3" d="m204.67,435.83c-1.31.06-2.26,1.26-1.9,2.52,1.12,3.98,3.07,7.8,5.72,11.23.65.84,1.86.96,2.7.31h0c.91-.7,1.04-2.02.36-2.95-2.15-2.88-3.73-6.09-4.63-9.41-.28-1.01-1.19-1.75-2.25-1.7h0Z"/>
          <circle class="cls-3" cx="203.27" cy="431.03" r="2.19"/>
        </g>
        <g>
          <path class="cls-1" d="m94.73,414.39c-2.72,15.41,7.57,30.11,22.99,32.83s30.11-7.57,32.83-22.99-7.57-30.11-22.99-32.83-30.11,7.57-32.83,22.99Zm51.58,9.1c-2.3,13.06-14.8,21.81-27.85,19.5s-21.81-14.8-19.5-27.85,14.8-21.81,27.85-19.5c13.06,2.3,21.81,14.8,19.5,27.85Z"/>
          <g>
            <path class="cls-1" d="m91.44,446.43l3.36,2.82c4.7-9.12,14.94-14.56,25.56-12.68,13.06,2.3,21.81,14.8,19.5,27.85-2.3,13.06-14.8,21.81-27.85,19.5-10.62-1.87-18.39-10.49-19.68-20.66l-4.12,1.5c1.87,11.58,10.85,21.24,23.05,23.39,15.41,2.72,30.11-7.57,32.83-22.99s-7.57-30.11-22.99-32.83c-12.2-2.15-23.95,3.85-29.66,14.09Z"/>
            <path class="cls-1" d="m76.16,469.14l29.54-10.75-24.08-20.21-5.46,30.96Zm21.08-12.24l-15.56,5.66,2.88-16.31,12.69,10.65Z"/>
          </g>
        </g>
        <g>
          <path class="cls-1" d="m333.73,414.39c-2.72,15.41,7.57,30.11,22.99,32.83s30.11-7.57,32.83-22.99-7.57-30.11-22.99-32.83-30.11,7.57-32.83,22.99Zm51.58,9.1c-2.3,13.06-14.8,21.81-27.85,19.5-13.06-2.3-21.81-14.8-19.5-27.85s14.8-21.81,27.85-19.5,21.81,14.8,19.5,27.85Z"/>
          <g>
            <path class="cls-1" d="m330.44,446.43l3.36,2.82c4.7-9.12,14.94-14.56,25.56-12.68,13.06,2.3,21.81,14.8,19.5,27.85s-14.8,21.81-27.85,19.5c-10.62-1.87-18.39-10.49-19.68-20.66l-4.12,1.5c1.87,11.58,10.85,21.24,23.05,23.39,15.41,2.72,30.11-7.57,32.83-22.99s-7.57-30.11-22.99-32.83c-12.2-2.15-23.95,3.85-29.66,14.09Z"/>
            <path class="cls-1" d="m315.16,469.14l29.54-10.75-24.08-20.21-5.46,30.96Zm21.08-12.24l-15.56,5.66,2.88-16.31,12.69,10.65Z"/>
          </g>
        </g>
        <g>
          <path class="cls-1" d="m16.75,438.74l-3.42-2.77c-4.56,9.25-14.76,14.89-25.46,13.19-13.16-2.08-22.17-14.49-20.09-27.65s14.49-22.17,27.65-20.09c10.7,1.7,18.66,10.21,20.14,20.42l4.11-1.58c-2.08-11.6-11.28-21.15-23.58-23.1-15.53-2.46-30.12,8.14-32.58,23.67-2.46,15.53,8.14,30.12,23.67,32.58,12.3,1.95,24-4.29,29.56-14.68Z"/>
          <path class="cls-1" d="m31.7,415.65l-29.49,11.32,24.55,19.88,4.94-31.2Zm-20.97,12.67l15.54-5.96-2.6,16.44-12.93-10.47Z"/>
        </g>
        <path class="cls-1" d="m480.75,438.74l-3.42-2.77c-4.56,9.25-14.76,14.89-25.46,13.19-13.16-2.08-22.17-14.49-20.09-27.65,2.08-13.16,14.49-22.17,27.65-20.09,10.7,1.7,18.66,10.21,20.14,20.42l4.11-1.58c-2.08-11.6-11.28-21.15-23.58-23.1-15.53-2.46-30.12,8.14-32.58,23.67-2.46,15.53,8.14,30.12,23.67,32.58,12.3,1.95,24-4.29,29.56-14.68Z"/>
      </g>
    </g>
  </g>
</svg>