<?xml version="1.0" encoding="UTF-8"?>
<svg id="Layer_1" data-name="Layer 1" xmlns="http://www.w3.org/2000/svg" viewBox="0 0 24 24">
  <defs>
    <style>
      .cls-1 {
        fill: #12284c;
        stroke-width: 0px;
      }
    </style>
  </defs>
  <path class="cls-1" d="m11.9,6.12c4.25,0,7.71,2.64,7.71,5.88s-3.46,5.88-7.71,5.88-7.71-2.64-7.71-5.88,3.46-5.88,7.71-5.88m0-1c-4.81,0-8.71,3.08-8.71,6.88s3.9,6.88,8.71,6.88,8.71-3.08,8.71-6.88-3.9-6.88-8.71-6.88h0Z"/>
  <g>
    <path class="cls-1" d="m20.61,11.57c.24,0,.44.19.44.43s-.2.43-.44.43-.44-.19-.44-.43.2-.43.44-.43m0-.86c-.72,0-1.31.58-1.31,1.29s.58,1.29,1.31,1.29,1.31-.58,1.31-1.29-.58-1.29-1.31-1.29h0Z"/>
    <path class="cls-1" d="m19.68,8.56c.24,0,.44.19.44.43s-.2.43-.44.43-.44-.19-.44-.43.2-.43.44-.43m0-.86c-.72,0-1.31.58-1.31,1.29s.58,1.29,1.31,1.29,1.31-.58,1.31-1.29-.58-1.29-1.31-1.29h0Z"/>
    <path class="cls-1" d="m17.28,6.2c.24,0,.44.19.44.43s-.2.43-.44.43-.44-.19-.44-.43.2-.43.44-.43m0-.86c-.72,0-1.31.58-1.31,1.29s.58,1.29,1.31,1.29,1.31-.58,1.31-1.29-.58-1.29-1.31-1.29h0Z"/>
    <path class="cls-1" d="m13.85,4.86c.24,0,.44.19.44.43s-.2.43-.44.43-.44-.19-.44-.43.2-.43.44-.43m0-.86c-.72,0-1.31.58-1.31,1.29s.58,1.29,1.31,1.29,1.31-.58,1.31-1.29-.58-1.29-1.31-1.29h0Z"/>
    <path class="cls-1" d="m9.87,4.87c.24,0,.44.19.44.43s-.2.43-.44.43-.44-.19-.44-.43.2-.43.44-.43m0-.86c-.72,0-1.31.58-1.31,1.29s.58,1.29,1.31,1.29,1.31-.58,1.31-1.29-.58-1.29-1.31-1.29h0Z"/>
    <path class="cls-1" d="m6.43,6.21c.24,0,.44.19.44.43s-.2.43-.44.43-.44-.19-.44-.43.2-.43.44-.43m0-.86c-.72,0-1.31.58-1.31,1.29s.58,1.29,1.31,1.29,1.31-.58,1.31-1.29-.58-1.29-1.31-1.29h0Z"/>
    <path class="cls-1" d="m4.07,8.56c.24,0,.44.19.44.43s-.2.43-.44.43-.44-.19-.44-.43.2-.43.44-.43m0-.86c-.72,0-1.31.58-1.31,1.29s.58,1.29,1.31,1.29,1.31-.58,1.31-1.29-.58-1.29-1.31-1.29h0Z"/>
    <path class="cls-1" d="m3.2,11.59c.24,0,.44.19.44.43s-.2.43-.44.43-.44-.19-.44-.43.2-.43.44-.43m0-.86c-.72,0-1.31.58-1.31,1.29s.58,1.29,1.31,1.29,1.31-.58,1.31-1.29-.58-1.29-1.31-1.29h0Z"/>
    <path class="cls-1" d="m4.09,14.61c.24,0,.44.19.44.43s-.2.43-.44.43-.44-.19-.44-.43.2-.43.44-.43m0-.86c-.72,0-1.31.58-1.31,1.29s.58,1.29,1.31,1.29,1.31-.58,1.31-1.29-.58-1.29-1.31-1.29h0Z"/>
    <path class="cls-1" d="m6.47,16.95c.24,0,.44.19.44.43s-.2.43-.44.43-.44-.19-.44-.43.2-.43.44-.43m0-.86c-.72,0-1.31.58-1.31,1.29s.58,1.29,1.31,1.29,1.31-.58,1.31-1.29-.58-1.29-1.31-1.29h0Z"/>
    <path class="cls-1" d="m9.92,18.27c.24,0,.44.19.44.43s-.2.43-.44.43-.44-.19-.44-.43.2-.43.44-.43m0-.86c-.72,0-1.31.58-1.31,1.29s.58,1.29,1.31,1.29,1.31-.58,1.31-1.29-.58-1.29-1.31-1.29h0Z"/>
    <path class="cls-1" d="m13.91,18.27c.24,0,.44.19.44.43s-.2.43-.44.43-.44-.19-.44-.43.2-.43.44-.43m0-.86c-.72,0-1.31.58-1.31,1.29s.58,1.29,1.31,1.29,1.31-.58,1.31-1.29-.58-1.29-1.31-1.29h0Z"/>
    <path class="cls-1" d="m17.36,16.94c.24,0,.44.19.44.43s-.2.43-.44.43-.44-.19-.44-.43.2-.43.44-.43m0-.86c-.72,0-1.31.58-1.31,1.29s.58,1.29,1.31,1.29,1.31-.58,1.31-1.29-.58-1.29-1.31-1.29h0Z"/>
    <path class="cls-1" d="m19.73,14.59c.24,0,.44.19.44.43s-.2.43-.44.43-.44-.19-.44-.43.2-.43.44-.43m0-.86c-.72,0-1.31.58-1.31,1.29s.58,1.29,1.31,1.29,1.31-.58,1.31-1.29-.58-1.29-1.31-1.29h0Z"/>
    <path class="cls-1" d="m20.61,11.57c.24,0,.44.19.44.43s-.2.43-.44.43-.44-.19-.44-.43.2-.43.44-.43m0-.86c-.72,0-1.31.58-1.31,1.29s.58,1.29,1.31,1.29,1.31-.58,1.31-1.29-.58-1.29-1.31-1.29h0Z"/>
  </g>
</svg>
