<svg width="114" height="114" viewBox="0 0 114 114" fill="none" xmlns="http://www.w3.org/2000/svg">
<path d="M73.2617 33.6868C77.9693 37.4668 81.4015 42.2556 83.2103 47.5778C83.7437 49.1663 85.309 50.2331 86.9555 49.9664C88.7412 49.6649 89.9239 47.9257 89.3557 46.2096C87.1063 39.4728 82.6306 33.4317 76.4735 28.8285C75.3372 27.9704 73.7487 28.1907 72.7979 29.2575C71.6268 30.5561 71.9051 32.5969 73.2733 33.6868H73.2617Z" fill="#12284C"/>
<path d="M42.0922 27.0666C47.2636 26.1738 52.5974 26.2549 57.7224 27.3217C59.1254 27.6232 60.5632 26.8927 61.0618 25.5476C61.63 24.0287 60.772 22.3474 59.1834 22.0227C53.1655 20.7704 46.8926 20.6661 40.8283 21.7212C39.2514 21.9879 38.3354 23.6228 38.8224 25.1418C39.263 26.5216 40.6776 27.2985 42.0922 27.055V27.0666Z" fill="#12284C"/>
<path d="M58.0367 87.2915C52.9232 88.393 47.5895 88.5322 42.4064 87.6742C40.9918 87.4422 39.5772 88.2423 39.1482 89.6105C38.6728 91.1411 39.6004 92.7528 41.1773 93.0311C47.2648 94.0399 53.5262 93.8891 59.5324 92.5905C61.121 92.2426 61.9674 90.5497 61.3877 89.0308C60.8775 87.6973 59.4281 86.9784 58.0367 87.2915Z" fill="#12284C"/>
<path d="M11.5401 49.9436C13.1866 50.2218 14.7519 49.1551 15.2969 47.5781C17.1289 42.2676 20.5959 37.4788 25.3151 33.722C26.6833 32.632 26.9616 30.6029 25.8021 29.3042C24.8629 28.2375 23.2744 28.0056 22.1265 28.852C15.9462 33.4321 11.4357 39.45 9.15149 46.1751C8.57174 47.8912 9.74285 49.6421 11.5401 49.9436Z" fill="#12284C"/>
<path d="M26.0683 80.9847C21.1056 77.4018 17.3488 72.7174 15.2269 67.4532C14.6123 65.9342 13.0238 64.9487 11.4121 65.2965C9.62643 65.6676 8.52489 67.488 9.209 69.1809C11.8643 75.8017 16.6995 81.6341 23.1348 85.959C24.3059 86.7591 25.8828 86.4576 26.7756 85.3561C27.854 83.9995 27.4829 82.0051 26.0799 80.9963L26.0683 80.9847Z" fill="#12284C"/>
<path d="M87.0814 65.0971C85.4581 64.7608 83.8811 65.7464 83.2666 67.2886C81.1794 72.5527 77.469 77.2604 72.5295 80.8549C71.1265 81.8752 70.767 83.8812 71.857 85.2262C72.7498 86.3278 74.3267 86.6061 75.4978 85.8176C81.8984 81.4578 86.6871 75.6023 89.2961 68.9583C89.957 67.2654 88.8438 65.4565 87.0698 65.0971H87.0814Z" fill="#12284C"/>
<path d="M66.64 90.6999C68.2922 90.6999 69.6315 89.3605 69.6315 87.7083C69.6315 86.0562 68.2922 84.7168 66.64 84.7168C64.9878 84.7168 63.6484 86.0562 63.6484 87.7083C63.6484 89.3605 64.9878 90.6999 66.64 90.6999Z" fill="#12284C"/>
<path d="M32.7806 90.6999C34.4328 90.6999 35.7722 89.3605 35.7722 87.7083C35.7722 86.0562 34.4328 84.7168 32.7806 84.7168C31.1284 84.7168 29.7891 86.0562 29.7891 87.7083C29.7891 89.3605 31.1284 90.6999 32.7806 90.6999Z" fill="#12284C"/>
<path d="M65.2363 24.2831C63.8101 25.1064 63.3231 26.9384 64.1464 28.3646C64.9696 29.7908 66.8017 30.2778 68.2279 29.4545C69.6541 28.6313 70.1411 26.7993 69.3178 25.3731C68.4946 23.9469 66.6625 23.4599 65.2363 24.2831Z" fill="#12284C"/>
<path d="M31.3906 24.2831C29.9644 25.1064 29.4774 26.9384 30.3007 28.3646C31.1239 29.7908 32.956 30.2778 34.3822 29.4545C35.8084 28.6313 36.2954 26.7993 35.4721 25.3731C34.6489 23.9469 32.8168 23.4599 31.3906 24.2831Z" fill="#12284C"/>
<path d="M12.5717 59.2318C13.395 57.8056 12.908 55.9736 11.4818 55.1503C10.0556 54.327 8.22355 54.814 7.4003 56.2402C6.57704 57.6664 7.06404 59.4985 8.49024 60.3217C9.91644 61.145 11.7485 60.658 12.5717 59.2318Z" fill="#12284C"/>
<path d="M95.0145 46.2812L83.5469 57.7372L95.0145 69.1932L106.47 57.7372L95.0145 46.2812ZM95.0145 62.155L90.5967 57.7372L95.0145 53.3195L99.4322 57.7372L95.0145 62.155Z" fill="#12284C"/>
</svg>
