<?xml version="1.0" encoding="UTF-8"?>
<svg id="Layer_1" data-name="Layer 1" xmlns="http://www.w3.org/2000/svg" viewBox="0 0 24 24">
  <defs>
    <style>
      .cls-1 {
        fill: #12284c;
        stroke-width: 0px;
      }
    </style>
  </defs>
  <path class="cls-1" d="m12,4.05c-4.42,0-8,3.58-8,8,0,3.72,2.55,6.58,6,7.38h0c0,.29.22.51.5.51h1.28v-2h-1.28c-.27,0-.48.21-.5.47-2.95-.77-5-3.25-5-6.36,0-3.86,3.14-7,7-7s7,3.14,7,7c0,3.12-2.05,5.6-5,6.36-.02-.26-.24-.47-.5-.47h-1.29v2h1.29c.27,0,.5-.22.5-.5,3.46-.79,6-3.66,6-7.39,0-4.42-3.59-8-8-8h0Z"/>
</svg>
