<svg width="114" height="114" viewBox="0 0 114 114" fill="none" xmlns="http://www.w3.org/2000/svg">
<path d="M85.0845 61.6907C83.5343 61.4226 82.0657 62.4599 81.6228 63.9751C80.4689 67.9147 78.4059 71.5279 75.5853 74.5116C74.5014 75.6539 74.3498 77.4488 75.3639 78.6493C76.3895 79.8498 78.1961 80.0013 79.3034 78.8824C83.1031 75.0128 85.8421 70.2224 87.264 64.9775C87.672 63.4623 86.623 61.9704 85.0728 61.7023L85.0845 61.6907Z" fill="#12284C"/>
<path d="M62.8438 81.9252C58.8577 82.8926 54.6967 82.9159 50.6989 81.9718C49.1603 81.6105 47.5402 82.3681 47.0041 83.8483C46.4796 85.3286 47.2489 86.972 48.7757 87.3683C54.0323 88.7203 59.5453 88.697 64.7903 87.31C66.3171 86.902 67.0747 85.2586 66.5386 83.7784C66.0024 82.2982 64.3707 81.5522 62.8322 81.9252H62.8438Z" fill="#12284C"/>
<path d="M31.7954 64.1505C31.3409 62.647 29.8723 61.6097 28.3221 61.8894C26.772 62.1691 25.7346 63.661 26.1542 65.1762C27.6111 70.4095 30.3851 75.1766 34.2081 79.0229C35.3154 80.1418 37.1336 79.9786 38.136 78.7664C39.15 77.5543 38.9752 75.771 37.8912 74.6288C35.059 71.6683 32.961 68.0668 31.7838 64.1389L31.7954 64.1505Z" fill="#12284C"/>
<path d="M28.2876 51.6795C29.8378 51.9475 31.3063 50.9102 31.7492 49.395C32.9031 45.4555 34.9661 41.8423 37.7868 38.8585C38.8707 37.7163 39.0222 35.9213 38.0082 34.7208C36.9825 33.5203 35.1759 33.3688 34.0687 34.4877C30.269 38.3573 27.53 43.1477 26.108 48.3926C25.7001 49.9078 26.7491 51.3997 28.2992 51.6678L28.2876 51.6795Z" fill="#12284C"/>
<path d="M50.5246 31.4456C54.5108 30.4782 58.6717 30.4549 62.6696 31.399C64.2081 31.7603 65.8282 31.0027 66.3643 29.5225C66.8888 28.0422 66.1196 26.3988 64.5927 26.0025C59.3361 24.6505 53.8231 24.6622 48.5781 26.0608C47.0513 26.4688 46.2937 28.1122 46.8298 29.5924C47.366 31.0726 48.9977 31.8186 50.5363 31.4456H50.5246Z" fill="#12284C"/>
<path d="M81.5752 49.2191C82.0298 50.7226 83.4984 51.76 85.0486 51.4802C86.5987 51.2005 87.6361 49.7086 87.2165 48.1934C85.7595 42.9601 82.9856 38.193 79.1626 34.3468C78.0553 33.2278 76.2371 33.391 75.2347 34.6032C74.2207 35.8153 74.3955 37.5986 75.4795 38.7409C78.3117 41.7013 80.4097 45.3029 81.5869 49.2307L81.5752 49.2191Z" fill="#12284C"/>
<path d="M85.3508 59.1977C87.018 59.1977 88.3695 57.8461 88.3695 56.1789C88.3695 54.5117 87.018 53.1602 85.3508 53.1602C83.6836 53.1602 82.332 54.5117 82.332 56.1789C82.332 57.8461 83.6836 59.1977 85.3508 59.1977Z" fill="#12284C"/>
<path d="M28.0188 59.1977C29.686 59.1977 31.0375 57.8461 31.0375 56.1789C31.0375 54.5117 29.686 53.1602 28.0188 53.1602C26.3515 53.1602 25 54.5117 25 56.1789C25 57.8461 26.3515 59.1977 28.0188 59.1977Z" fill="#12284C"/>
<path d="M69.5112 78.3942C68.0659 79.2217 67.5764 81.0749 68.4039 82.5202C69.2315 83.9654 71.0847 84.455 72.5299 83.6274C73.9752 82.7999 74.4647 80.9467 73.6372 79.5014C72.8097 78.0561 70.9565 77.5666 69.5112 78.3942Z" fill="#12284C"/>
<path d="M40.8393 28.7418C39.394 29.5693 38.9045 31.4226 39.732 32.8678C40.5596 34.3131 42.4128 34.8026 43.8581 33.9751C45.3033 33.1476 45.7929 31.2943 44.9653 29.8491C44.1378 28.4038 42.2846 27.9143 40.8393 28.7418Z" fill="#12284C"/>
<path d="M43.8593 78.3942C42.4141 77.5666 40.5725 78.0561 39.7333 79.5014C38.8941 80.9467 39.3953 82.7882 40.8406 83.6274C42.2859 84.4666 44.1274 83.9654 44.9666 82.5202C45.8058 81.0749 45.3046 79.2333 43.8593 78.3942Z" fill="#12284C"/>
<path d="M72.5299 28.7418C71.0847 27.9143 69.2431 28.4038 68.4039 29.8491C67.5764 31.2943 68.0659 33.1359 69.5112 33.9751C70.9565 34.8143 72.798 34.3131 73.6372 32.8678C74.4647 31.4226 73.9752 29.581 72.5299 28.7418Z" fill="#12284C"/>
</svg>
