<svg width="114" height="114" viewBox="0 0 114 114" fill="none" xmlns="http://www.w3.org/2000/svg">
<path d="M85.3771 75.4585C86.7766 76.4169 88.6917 75.9254 89.3546 74.365C91.7116 68.7376 92.9638 62.5451 93.0006 56.2543C93.0497 48.8576 91.4047 41.5838 88.262 35.1578C85.1193 28.7319 80.5648 23.3994 75.0773 19.6765C69.5899 15.9659 63.3658 14 57.019 14C50.6722 14 44.4359 15.9536 38.9484 19.6642C33.461 23.3748 28.9065 28.7073 25.7515 35.121C22.5965 41.547 20.9638 48.8208 21.0006 56.2174C21.0374 62.5082 22.2773 68.7008 24.6344 74.3404C25.285 75.9008 27.2124 76.3923 28.6119 75.4339C29.7658 74.6353 30.1464 73.124 29.594 71.8216C27.5193 66.9683 26.4267 61.6113 26.4021 56.1805C26.3653 49.8897 27.7648 43.7095 30.441 38.2541C33.1172 32.7988 36.9842 28.265 41.6492 25.1073C46.3142 21.9496 51.6175 20.2908 57.0067 20.2908C62.396 20.2908 67.6993 21.9618 72.3643 25.1195C77.0293 28.2772 80.8963 32.8111 83.5725 38.2787C86.2487 43.734 87.6359 49.9266 87.5991 56.2051C87.5622 61.6482 86.4697 66.9929 84.395 71.8462C83.8425 73.1363 84.2231 74.6599 85.3771 75.4585Z" fill="#12284C"/>
<path d="M36.4938 87.1193C35.6836 88.348 35.8923 89.9822 37.0462 90.8914C39.6488 92.9187 42.4723 94.5283 45.4432 95.7078C47.125 96.3713 48.9173 95.2655 49.2733 93.4962C49.6048 91.8866 48.6227 90.3262 47.1005 89.7241C44.9767 88.8763 42.9511 87.7705 41.036 86.4067C39.5629 85.3623 37.4759 85.6203 36.4815 87.1316L36.4938 87.1193Z" fill="#12284C"/>
<path d="M64.4821 93.557C64.8381 95.3263 66.6181 96.4444 68.3 95.7932C71.2708 94.6506 74.1066 93.0533 76.7214 91.0628C77.8877 90.1782 78.1087 88.5317 77.3107 87.2908C76.3286 85.7795 74.2294 85.4969 72.7562 86.529C70.8411 87.8683 68.8033 88.9618 66.6795 89.785C65.145 90.3748 64.1629 91.9475 64.4821 93.557Z" fill="#12284C"/>
<path d="M31.8531 84.0961C33.4871 84.0961 34.8117 82.7703 34.8117 81.1349C34.8117 79.4996 33.4871 78.1738 31.8531 78.1738C30.2191 78.1738 28.8945 79.4996 28.8945 81.1349C28.8945 82.7703 30.2191 84.0961 31.8531 84.0961Z" fill="#12284C"/>
<path d="M82.2457 84.182C83.8796 84.182 85.2042 82.8563 85.2042 81.2209C85.2042 79.5855 83.8796 78.2598 82.2457 78.2598C80.6117 78.2598 79.2871 79.5855 79.2871 81.2209C79.2871 82.8563 80.6117 84.182 82.2457 84.182Z" fill="#12284C"/>
<path d="M56.6011 99.0004C58.2351 99.0004 59.5597 97.6746 59.5597 96.0392C59.5597 94.4039 58.2351 93.0781 56.6011 93.0781C54.9672 93.0781 53.6426 94.4039 53.6426 96.0392C53.6426 97.6746 54.9672 99.0004 56.6011 99.0004Z" fill="#12284C"/>
</svg>
