<?xml version="1.0" encoding="UTF-8"?>
<svg id="Layer_1" data-name="Layer 1" xmlns="http://www.w3.org/2000/svg" viewBox="0 0 24 24">
  <defs>
    <style>
      .cls-1 {
        fill: #12284c;
        stroke-width: 0px;
      }
    </style>
  </defs>
  <path class="cls-1" d="m11.47,2.97l.53.03c.07,0,.13-.05.13-.11,0-.07-.05-.12-.12-.13l-.51-.03c-.12,0-.22-.09-.24-.2,0-.03,0-.06,0-.08.03-.15.23-.21.36-.12l.38.29.28.21c.26.2.67.06.72-.25,0-.01,0-.03,0-.04h0c.02-.26-.19-.49-.47-.51l-.52-.03c-.07,0-.13.05-.13.11,0,.07.05.12.12.13l.51.03c.12,0,.22.09.24.2,0,.03,0,.06,0,.08-.03.15-.23.21-.36.12l-.38-.29-.28-.21c-.26-.2-.67-.06-.72.25,0,.01,0,.03,0,.04h0c-.02.26.19.49.47.51Z"/>
  <path class="cls-1" d="m13,2.69h0c0,.23.15.42.37.48,3.21.82,5.63,4.47,5.63,8.82,0,4.96-3.14,9-7,9s-7-4.04-7-9c0-4.36,2.42-8,5.63-8.82.22-.06.37-.25.37-.48h0c0-.33-.31-.57-.63-.48-3.64.94-6.37,4.97-6.37,9.79,0,5.52,3.58,10,8,10s8-4.48,8-10c0-4.82-2.73-8.85-6.37-9.79-.32-.08-.63.15-.63.48Z"/>
</svg>
