<svg width="114" height="114" viewBox="0 0 114 114" fill="none" xmlns="http://www.w3.org/2000/svg">
<path d="M90.9728 60.522C92.3458 61.1975 94.0214 60.755 94.7777 59.4156C97.5121 54.5472 98.955 49.2246 99.0015 43.7971C99.0597 37.5195 97.2212 31.335 93.6839 25.8377C90.1466 20.3287 85.0152 15.7165 78.8016 12.4205C72.5881 9.13604 65.4786 7.27255 58.1829 7.02796C50.8872 6.78338 43.6264 8.14606 37.122 11.0112C30.6175 13.888 25.0905 18.1391 21.0528 23.3685C17.0268 28.6213 14.6298 34.666 14.1062 40.932C13.6641 46.3012 14.6066 51.682 16.8523 56.6902C17.4923 58.1228 19.1678 58.7051 20.6223 58.1111C22.3328 57.424 23.0426 55.3858 22.3561 53.662C20.7736 49.7137 20.122 45.5092 20.471 41.3163C20.9132 35.9937 22.9495 30.8458 26.3704 26.3967C29.7914 21.9476 34.5039 18.3254 40.0309 15.8912C45.558 13.4454 51.725 12.2923 57.9269 12.502C64.1288 12.7116 70.1678 14.2956 75.4622 17.0909C80.7448 19.8977 85.1083 23.8227 88.1103 28.4931C91.1124 33.1519 92.6716 38.4279 92.6251 43.7622C92.5901 47.9783 91.5546 52.1246 89.5997 55.9681C88.762 57.6219 89.3088 59.7067 90.9611 60.522H90.9728Z" fill="#12284C"/>
<path d="M29.9068 67.8599C28.5803 69.0712 28.6501 71.1676 30.1279 72.1809C34.8171 75.3721 40.2394 77.6782 46.0341 78.936C47.4653 79.2505 48.8383 78.3071 49.1525 76.8862C49.4899 75.3488 48.466 73.8464 46.93 73.4737C42.1244 72.3439 37.6446 70.364 33.7699 67.6735C32.583 66.8582 30.9773 66.8815 29.9068 67.8599Z" fill="#12284C"/>
<path d="M62.3829 77.0843C62.6389 78.5285 63.9887 79.5301 65.4315 79.2506C71.2727 78.1791 76.7881 76.0477 81.6054 73.0195C83.1064 72.0645 83.2577 69.9797 81.9894 68.7218C80.9654 67.7085 79.3713 67.6154 78.1612 68.3957C74.1584 70.9697 69.5972 72.7982 64.7334 73.7766C63.1975 74.091 62.127 75.5236 62.3946 77.0843H62.3829Z" fill="#12284C"/>
<path d="M56.0997 79.9727C57.7577 79.9727 59.1018 78.6273 59.1018 76.9678C59.1018 75.3082 57.7577 73.9629 56.0997 73.9629C54.4417 73.9629 53.0977 75.3082 53.0977 76.9678C53.0977 78.6273 54.4417 79.9727 56.0997 79.9727Z" fill="#12284C"/>
<path d="M24.1954 67.0684C25.8534 67.0684 27.1975 65.723 27.1975 64.0635C27.1975 62.4039 25.8534 61.0586 24.1954 61.0586C22.5374 61.0586 21.1934 62.4039 21.1934 64.0635C21.1934 65.723 22.5374 67.0684 24.1954 67.0684Z" fill="#12284C"/>
<path d="M87.2032 68.0684C88.8612 68.0684 90.2053 66.723 90.2053 65.0635C90.2053 63.4039 88.8612 62.0586 87.2032 62.0586C85.5452 62.0586 84.2012 63.4039 84.2012 65.0635C84.2012 66.723 85.5452 68.0684 87.2032 68.0684Z" fill="#12284C"/>
<path d="M56.0997 83.9668L44.5918 95.4855L56.0997 107.004L67.6075 95.4855L56.0997 83.9668ZM56.0997 99.923L51.6548 95.4855L56.0997 91.0481L60.5329 95.4855L56.0997 99.923Z" fill="#12284C"/>
</svg>
