<?xml version="1.0" encoding="UTF-8"?>
<svg id="Layer_1" data-name="Layer 1" xmlns="http://www.w3.org/2000/svg" viewBox="0 0 24 24">
  <defs>
    <style>
      .cls-1 {
        fill: #12284c;
        stroke-width: 0px;
      }
    </style>
  </defs>
  <path class="cls-1" d="m16,4.91h0c0,.22.14.41.35.48,2.74.96,4.65,2.76,4.65,4.78,0,2.39-2.66,4.49-6.23,5.22l-2.65-2.65s-.09-.06-.14-.06-.1.02-.14.06l-2.64,2.64c-3.56-.73-6.2-2.82-6.2-5.21,0-2.03,1.9-3.83,4.65-4.78.21-.07.35-.26.35-.48h0c0-.35-.34-.6-.67-.48-3.17,1.1-5.33,3.26-5.33,5.75,0,2.81,2.74,5.21,6.59,6.1h0s3.25,3.26,3.25,3.26c.04.04.09.06.14.06s.1-.02.14-.06l3.26-3.25c3.86-.89,6.62-3.29,6.62-6.11,0-2.49-2.16-4.65-5.33-5.75-.33-.11-.67.14-.67.48Zm-4.02,13.36l-2.12-2.12,2.12-2.12,2.12,2.12-2.12,2.12Z"/>
</svg>
