<svg width="114" height="114" viewBox="0 0 114 114" fill="none" xmlns="http://www.w3.org/2000/svg">
<path d="M14.0814 63.411L26.9324 50.5349C27.9023 49.5631 27.9023 47.9975 26.9324 47.0257C25.9625 46.0539 24.3999 46.0539 23.43 47.0257L10.579 59.8883C9.60909 60.8601 9.60909 62.4257 10.579 63.3975C11.5489 64.3693 13.1115 64.3693 14.0814 63.3975V63.411Z" fill="#12284C"/>
<path d="M32.8329 47.0257C31.863 47.9975 31.863 49.5631 32.8329 50.5349L45.6839 63.411C46.6538 64.3828 48.2164 64.3828 49.1863 63.411C50.1562 62.4392 50.1562 60.8736 49.1863 59.9018L36.3353 47.0257C35.3654 46.0539 33.8028 46.0539 32.8329 47.0257Z" fill="#12284C"/>
<path d="M26.9324 81.3764L14.0814 68.5003C13.1115 67.5285 11.5489 67.5285 10.579 68.5003C9.60909 69.4721 9.60909 71.0377 10.579 72.0095L23.43 84.8856C24.3999 85.8574 25.9625 85.8574 26.9324 84.8856C27.9023 83.9138 27.9023 82.3482 26.9324 81.3764Z" fill="#12284C"/>
<path d="M45.6702 68.512L32.8192 81.3881C31.8493 82.3599 31.8493 83.9255 32.8192 84.8973C33.7891 85.8691 35.3517 85.8691 36.3216 84.8973L49.1726 72.0212C50.1425 71.0495 50.1425 69.4838 49.1726 68.512C48.2027 67.5403 46.6401 67.5403 45.6702 68.512Z" fill="#12284C"/>
<path d="M10.8208 65.9628C10.8208 64.6266 9.74318 63.5469 8.40958 63.5469C6.87393 63.5469 5.67504 64.991 6.07916 66.5972C6.29469 67.407 6.95475 68.0818 7.76299 68.2843C9.366 68.7027 10.8074 67.5015 10.8208 65.9493V65.9628Z" fill="#12284C"/>
<path d="M51.0443 63.5467C49.5087 63.5467 48.3098 64.9909 48.7139 66.597C48.9295 67.4068 49.5895 68.0817 50.3978 68.2841C52.0008 68.7025 53.4421 67.5013 53.4556 65.9492C53.4556 64.613 52.3779 63.5332 51.0443 63.5332V63.5467Z" fill="#12284C"/>
<path d="M29.2345 85.2764C28.4263 85.4923 27.7527 86.1537 27.5507 86.9635C27.1331 88.5697 28.332 90.0138 29.8811 90.0138C31.2147 90.0138 32.2923 88.9341 32.2923 87.5979C32.2923 86.0592 30.851 84.858 29.248 85.2629L29.2345 85.2764Z" fill="#12284C"/>
<path d="M28.238 43.1118C27.9147 43.4088 27.6587 43.8002 27.551 44.2321C27.1334 45.8382 28.3323 47.2824 29.8814 47.2824C31.215 47.2824 32.2927 46.2026 32.2927 44.8664C32.2927 44.0296 31.8616 43.3008 31.215 42.8689V38.9008H31.3632L38.4622 24.0137H21.2871L28.238 38.6039V43.1118Z" fill="#12284C"/>
<path d="M68.4075 63.411L81.2586 50.5349C82.2284 49.5631 82.2284 47.9975 81.2586 47.0257C80.2887 46.0539 78.7261 46.0539 77.7562 47.0257L64.9052 59.9018C63.9353 60.8736 63.9353 62.4392 64.9052 63.411C65.875 64.3828 67.4376 64.3828 68.4075 63.411Z" fill="#12284C"/>
<path d="M87.1454 47.0257C86.1755 47.9975 86.1755 49.5631 87.1454 50.5349L99.9964 63.411C100.966 64.3828 102.529 64.3828 103.499 63.411C104.469 62.4392 104.469 60.8736 103.499 59.9018L90.6478 47.0257C89.6779 46.0539 88.1153 46.0539 87.1454 47.0257Z" fill="#12284C"/>
<path d="M81.2586 81.3764L68.4075 68.5003C67.4376 67.5285 65.875 67.5285 64.9052 68.5003C63.9353 69.4721 63.9353 71.0377 64.9052 72.0095L77.7562 84.8856C78.7261 85.8574 80.2887 85.8574 81.2586 84.8856C82.2284 83.9138 82.2284 82.3482 81.2586 81.3764Z" fill="#12284C"/>
<path d="M99.9964 68.512L87.1454 81.3881C86.1755 82.3599 86.1755 83.9255 87.1454 84.8973C88.1153 85.8691 89.6779 85.8691 90.6478 84.8973L103.499 72.0212C104.469 71.0495 104.469 69.4838 103.499 68.512C102.529 67.5403 100.966 67.5403 99.9964 68.512Z" fill="#12284C"/>
<path d="M65.3638 65.9628C65.3638 64.6266 64.2861 63.5469 62.9526 63.5469C61.4169 63.5469 60.218 64.991 60.6221 66.5972C60.8377 67.407 61.4977 68.0818 62.306 68.2843C63.909 68.7027 65.3503 67.5015 65.3638 65.9493V65.9628Z" fill="#12284C"/>
<path d="M105.587 63.5467C104.052 63.5467 102.853 64.9909 103.257 66.597C103.472 67.4068 104.132 68.0817 104.941 68.2841C106.544 68.7025 107.985 67.5013 107.999 65.9492C107.999 64.613 106.921 63.5332 105.587 63.5332V63.5467Z" fill="#12284C"/>
<path d="M83.5626 85.2764C82.7544 85.4923 82.0809 86.1537 81.8788 86.9635C81.4612 88.5697 82.6601 90.0138 84.2092 90.0138C85.5428 90.0138 86.6205 88.9341 86.6205 87.5979C86.6205 86.0592 85.1791 84.858 83.5761 85.2629L83.5626 85.2764Z" fill="#12284C"/>
<path d="M82.7818 38.9141V42.9362C82.3508 43.2601 82.014 43.7055 81.8793 44.2319C81.4617 45.838 82.6606 47.2822 84.2097 47.2822C85.5433 47.2822 86.621 46.2025 86.621 44.8663C86.621 44.1239 86.2842 43.4761 85.7723 43.0307V38.7656L92.804 24H75.6289L82.728 38.9006H82.7953L82.7818 38.9141Z" fill="#12284C"/>
</svg>
