<?xml version="1.0" encoding="UTF-8"?>
<svg id="Layer_1" data-name="Layer 1" xmlns="http://www.w3.org/2000/svg" viewBox="0 0 24 24">
  <defs>
    <style>
      .cls-1 {
        fill: #12284c;
        stroke-width: 0px;
      }
    </style>
  </defs>
  <path class="cls-1" d="m7.32,8.68c.61-.18,1.06-.73,1.06-1.4,0-.81-.66-1.46-1.46-1.46s-1.46.66-1.46,1.46c0,.67.45,1.23,1.06,1.4l-4.46,4.46c-.08.08-.08.2,0,.28l4.72,4.72s.09.06.14.06.1-.02.14-.06l4.72-4.72c.08-.08.08-.2,0-.28l-4.46-4.46Zm-.4-1.87c.26,0,.46.21.46.46s-.21.46-.46.46-.46-.21-.46-.46.21-.46.46-.46Zm0,10.05l-3.59-3.59,3.59-3.59,3.59,3.59-3.59,3.59Z"/>
  <path class="cls-1" d="m21.94,13.13l-4.46-4.46c.61-.18,1.06-.73,1.06-1.4,0-.81-.66-1.46-1.46-1.46s-1.46.66-1.46,1.46c0,.67.45,1.23,1.06,1.4l-4.46,4.46c-.08.08-.08.2,0,.28l4.72,4.72s.09.06.14.06.1-.02.14-.06l4.72-4.72c.08-.08.08-.2,0-.28Zm-4.86-6.32c.26,0,.46.21.46.46s-.21.46-.46.46-.46-.21-.46-.46.21-.46.46-.46Zm0,10.05l-3.59-3.59,3.59-3.59,3.59,3.59-3.59,3.59Z"/>
</svg>
