<svg width="114" height="114" viewBox="0 0 114 114" fill="none" xmlns="http://www.w3.org/2000/svg">
<path d="M107.622 49.0985C107.098 46.7715 106.412 44.491 105.574 42.2804C104.981 40.7097 103.189 40 101.63 40.6283C100.001 41.2914 99.2564 43.1763 99.873 44.8285C100.548 46.6668 101.106 48.5516 101.548 50.4714C103.852 60.6054 102.631 71.2164 98.0929 80.5709C94.009 88.983 87.4586 95.9174 79.349 100.467C77.8481 101.304 77.1733 103.154 77.918 104.713C78.651 106.272 80.5242 106.936 82.0251 106.11C91.4145 100.944 99.0004 92.9737 103.701 83.2935C108.855 72.6708 110.24 60.6054 107.622 49.0868V49.0985Z" fill="#12284C"/>
<path d="M34.8582 100.629C26.7138 96.1378 20.1168 89.2499 15.9747 80.8612C11.3673 71.5416 10.0758 60.9422 12.3097 50.7849C12.7751 48.6441 13.4034 46.5614 14.1597 44.537C14.7763 42.8848 14.055 41.0116 12.4261 40.3251C10.8786 39.6736 9.07523 40.3717 8.47021 41.9424C7.53942 44.3741 6.78315 46.8756 6.21304 49.4469C3.67663 60.9771 5.14263 73.0309 10.3783 83.6186C15.1487 93.2756 22.7928 101.176 32.2171 106.283C33.7296 107.098 35.5912 106.423 36.3126 104.864C37.0456 103.305 36.3591 101.455 34.8466 100.629H34.8582Z" fill="#12284C"/>
<path d="M76.5695 10.8425C70.5309 8.38752 64.0736 7.07277 57.5231 7.00297C50.9843 6.93316 44.492 8.09665 38.3953 10.4236C36.3825 11.1915 35.5564 13.5302 36.4755 15.4732C37.3947 17.4162 39.71 18.2423 41.7345 17.4977C46.7492 15.6593 52.078 14.7402 57.4417 14.7984C62.8053 14.8565 68.1109 15.892 73.0906 17.8467C75.0918 18.6262 77.4304 17.87 78.3845 15.9386C79.3502 14.0072 78.5707 11.6569 76.5695 10.8425Z" fill="#12284C"/>
<path d="M14.4747 38.7663C16.1036 39.5458 18.0467 38.8361 18.9426 37.277C22.5028 31.0407 27.5408 25.7701 33.6142 21.9422C35.1384 20.9765 35.755 19.0102 34.9057 17.4162C34.0563 15.8222 32.0784 15.2056 30.5309 16.148C23.2242 20.6507 17.1857 26.9568 13.0087 34.4613C12.1245 36.0437 12.8342 37.9984 14.4631 38.7663H14.4747Z" fill="#12284C"/>
<path d="M80.5122 22.0689C86.5623 25.9317 91.577 31.2372 95.1024 37.4968C95.9866 39.0675 97.918 39.7772 99.5585 39.0209C101.199 38.253 101.909 36.2984 101.036 34.716C96.8941 27.1882 90.9022 20.8472 83.6187 16.2979C82.0829 15.3439 80.0933 15.9489 79.244 17.5312C78.383 19.1252 78.988 21.0915 80.5122 22.0689Z" fill="#12284C"/>
</svg>
