<?xml version="1.0" encoding="UTF-8"?>
<svg id="Layer_1" data-name="Layer 1" xmlns="http://www.w3.org/2000/svg" viewBox="0 0 24 24">
  <defs>
    <style>
      .cls-1 {
        fill: #12284c;
        stroke-width: 0px;
      }
    </style>
  </defs>
  <path class="cls-1" d="m3.69,10.88c.89-3.97,4.27-6.94,8.31-6.94s7.41,2.97,8.31,6.93h0c0-3.19-1.95-6.12-5.02-7.32-1.02-.4-2.13-.62-3.29-.62s-2.26.22-3.28.62c-3.07,1.19-5.02,4.13-5.02,7.32h0Z"/>
  <path class="cls-1" d="m12,4.36c-4.97,0-8.99,4.03-8.99,9,0,3.21,1.69,6.03,4.22,7.62.33.21.77-.03.77-.42h0c0-.17-.09-.33-.24-.43-2.25-1.42-3.75-3.92-3.75-6.77,0-4.41,3.58-8,7.99-8s7.99,3.59,7.99,8c0,2.85-1.5,5.35-3.75,6.77-.15.09-.24.25-.24.43h0c0,.39.43.63.77.42,2.53-1.59,4.22-4.4,4.22-7.62,0-4.97-4.03-9-8.99-9Z"/>
</svg>
