<?xml version="1.0" encoding="UTF-8"?>
<svg id="Layer_1" data-name="Layer 1" xmlns="http://www.w3.org/2000/svg" viewBox="0 0 24 24">
  <defs>
    <style>
      .cls-1 {
        fill: #12284c;
        stroke-width: 0px;
      }
    </style>
  </defs>
  <path class="cls-1" d="m11.46,2.97l.53.03c.07,0,.13-.05.13-.11,0-.07-.05-.12-.12-.13l-.51-.03c-.12,0-.22-.09-.24-.2,0-.03,0-.06,0-.08.03-.15.23-.22.36-.12l.38.29.28.21c.26.2.67.06.72-.26,0-.01,0-.03,0-.04h0c.02-.26-.19-.49-.47-.51l-.52-.03c-.07,0-.13.05-.13.11,0,.07.05.12.12.13l.51.03c.12,0,.22.09.24.2,0,.03,0,.06,0,.08-.03.15-.23.22-.36.12l-.38-.29-.28-.21c-.26-.2-.67-.06-.72.26,0,.01,0,.03,0,.04h0c-.02.26.19.49.47.51Z"/>
  <path class="cls-1" d="m19,10.53c0-4.02-2.29-7.39-5.36-8.3-.32-.09-.64.15-.64.48,0,.22.14.42.35.48,2.66.77,4.65,3.77,4.65,7.33,0,3.77-2.21,6.9-5.09,7.44l-.77-.77c-.08-.08-.2-.08-.28,0l-.77.77c-2.88-.54-5.09-3.68-5.09-7.44,0-3.57,1.98-6.56,4.64-7.33.21-.06.36-.26.36-.48,0-.28-.24-.5-.51-.5-.05,0-.09.01-.14.02-3.07.9-5.35,4.28-5.35,8.3s2.24,7.34,5.27,8.27l-.63.63c-.08.08-.08.21,0,.28l2.22,2.23c.08.08.2.08.28,0l2.22-2.23c.08-.08.08-.21,0-.28l-.63-.63c3.02-.92,5.27-4.28,5.27-8.27Zm-7,10.13l-1.09-1.09.53-.53.56-.55.55.55.53.53-1.08,1.09Z"/>
</svg>
