<svg width="114" height="114" viewBox="0 0 114 114" fill="none" xmlns="http://www.w3.org/2000/svg">
<path fill-rule="evenodd" clip-rule="evenodd" d="M69.9563 86.4611C83.977 80.528 94 64.8724 94 46.4936C94 23.0277 77.6619 4 57.5 4C37.3381 4 21 23.0277 21 46.5052C21 64.884 31.0114 80.5396 45.0437 86.4727L49.9567 81.5593C36.469 77.6309 26.4808 63.4355 26.4808 46.5052C26.4808 26.5505 40.374 10.3735 57.5 10.3735C74.626 10.3735 88.5192 26.5505 88.5192 46.5052C88.5192 63.4239 78.531 77.6309 65.0433 81.5593L69.9563 86.4727V86.4611Z" fill="#12284C"/>
<path d="M57.5007 74.0156L40.0039 91.5137L57.5007 109.012L74.9976 91.5137L57.5007 74.0156ZM57.5007 101.931L47.0837 91.5137L57.5007 81.096L67.9177 91.5137L57.5007 101.931Z" fill="#12284C"/>
</svg>
