<?xml version="1.0" encoding="UTF-8"?>
<svg id="Layer_1" data-name="Layer 1" xmlns="http://www.w3.org/2000/svg" viewBox="0 0 24 24">
  <defs>
    <style>
      .cls-1 {
        fill: #12284c;
        stroke-width: 0px;
      }
    </style>
  </defs>
  <path class="cls-1" d="m20,3.52c-.14,5.3-2.61,9.77-5.92,11.1l-1.94-1.94c-.08-.08-.21-.08-.28,0l-1.94,1.94c-3.31-1.33-5.78-5.8-5.92-11.1,0-.27-.23-.48-.5-.48h0c-.28,0-.51.24-.5.52.15,5.51,2.68,10.17,6.16,11.83l-1.27,1.27c-.08.08-.08.21,0,.28l3.97,3.96c.08.08.21.08.28,0l3.96-3.96c.08-.08.08-.21,0-.28l-1.27-1.27c3.47-1.65,6.02-6.32,6.17-11.83,0-.28-.22-.52-.5-.52h0c-.27,0-.49.21-.5.48Zm-8,16.1l-2.83-2.82,1.01-1.01h.01l.83-.83.98-.99.99.99.82.83h.01l1.01,1.01-2.83,2.82Z"/>
</svg>
