<svg width="114" height="114" viewBox="0 0 114 114" fill="none" xmlns="http://www.w3.org/2000/svg">
<path d="M103.196 12.2139C102.806 10.6892 101.052 9.88675 99.47 10.4255C98.037 10.9299 97.269 12.3515 97.6244 13.7156C99.1261 19.5392 99.4471 25.6265 98.5873 31.6105C97.6014 38.4085 95.0794 44.897 91.239 50.5028C87.3987 56.1086 82.3432 60.7055 76.4737 63.9039C73.8027 65.3598 70.9826 66.4947 68.0938 67.3316L72.3812 72.2151C74.6969 71.3897 76.9667 70.3924 79.1448 69.2002C85.8052 65.5662 91.56 60.3501 95.9277 53.9648C100.295 47.591 103.15 40.2427 104.285 32.5047C105.271 25.7182 104.904 18.817 103.207 12.2254L103.196 12.2139Z" fill="#12284C"/>
<path d="M56.755 54.8691L32.1309 79.3442L56.6059 103.98L81.2301 79.4933L56.755 54.8691ZM39.2728 79.3672L56.7321 62.0111L74.0882 79.4703L56.6289 96.8379L39.2728 79.3672Z" fill="#12284C"/>
<path d="M10.6951 11.9391C11.0848 10.4259 12.8503 9.62345 14.4323 10.1737C15.8538 10.6781 16.6218 12.1111 16.255 13.4753C14.7188 19.2874 14.352 25.3746 15.1889 31.3587C16.1404 38.1682 18.6165 44.6567 22.4225 50.2968C26.2284 55.9255 31.261 60.5454 37.1075 63.7896C39.7786 65.2685 42.5757 66.4148 45.4646 67.2632L41.1542 72.1238C38.8386 71.2869 36.5802 70.2781 34.4021 69.063C27.7646 65.3946 22.0442 60.1327 17.7109 53.7245C13.3891 47.3277 10.569 39.9565 9.49138 32.2185C8.55135 25.432 8.96405 18.5308 10.6951 11.9391Z" fill="#12284C"/>
</svg>
