<?xml version="1.0" encoding="UTF-8"?>
<svg id="Layer_1" data-name="Layer 1" xmlns="http://www.w3.org/2000/svg" viewBox="0 0 24 24">
  <defs>
    <style>
      .cls-1 {
        fill: #12284c;
        stroke-width: 0px;
      }
    </style>
  </defs>
  <path class="cls-1" d="m13.56,7.21l1.09-1.91c.08-.13-.02-.3-.17-.3h-4.97c-.15,0-.25.17-.17.3l1.09,1.91c-2.56.69-4.43,3.02-4.43,5.79,0,3.32,2.68,6,6,6s6-2.68,6-6c0-2.77-1.89-5.11-4.44-5.79Zm-.46-1.21l-.58,1.03-.52.92-.53-.92-.58-1.03h2.21Zm-1.1,12c-2.76,0-5-2.24-5-5,0-2.39,1.69-4.4,3.94-4.89l.88,1.55c.04.07.11.1.18.1.06,0,.13-.03.17-.1l.88-1.55c2.25.48,3.95,2.5,3.95,4.89,0,2.76-2.25,5-5,5Z"/>
</svg>
