<svg width="114" height="114" viewBox="0 0 114 114" fill="none" xmlns="http://www.w3.org/2000/svg">
<path fill-rule="evenodd" clip-rule="evenodd" d="M67.5162 31.5762L65.0451 35.8774C76.103 39.3184 84.1594 49.6866 84.1594 61.8999C84.1594 76.9203 71.9845 89.1335 57.0113 89.1335C42.0381 89.1335 29.8519 76.9203 29.8519 61.8999C29.8519 49.6866 37.9083 39.3297 48.9661 35.8774L46.4951 31.5762C33.9817 35.9453 25 47.8643 25 61.8999C25 79.6255 39.33 94.0007 57 94.0007C74.67 94.0007 89 79.6255 89 61.8999C89 47.8643 80.0183 35.9453 67.5049 31.5762H67.5162Z" fill="#12284C"/>
<path fill-rule="evenodd" clip-rule="evenodd" d="M39.252 19L57.0009 49.8444L74.7498 19H39.252ZM57.0009 40.11L47.6469 23.8672H66.3436L56.9896 40.11H57.0009Z" fill="#12284C"/>
</svg>
